<svg width="383" height="30" viewBox="0 0 383 30" fill="none" xmlns="http://www.w3.org/2000/svg">
<path d="M0 30V28.1052H16.9479V1.89482H0V0H36V1.89482H19.1079V28.1052H36V30H0Z" fill="#336BB7"/>
<path d="M15 27H0V25.0726H12.7752V4.92737H0V3H15V27Z" fill="#F5BD33"/>
<path d="M0 23H10V7H0V8.88776H7.85918V21.1122H0V23Z" fill="#336BB7"/>
<path d="M6 20H0V17.9154H3.67755V12.0846H0V10H6V20Z" fill="#F5BD33"/>
<path d="M21 3H36V4.92737H23.2334V25.0726H36V27H21V3Z" fill="#F5BD33"/>
<path d="M36 7H26V23H36V21.1122H28.1528V8.88776H36V7Z" fill="#336BB7"/>
<path d="M30 10H36V12.0846H32.3459V17.9154H36V20H30V10Z" fill="#F5BD33"/>
<path d="M36 30V28.1052H52.9479V1.89482H36V0H72V1.89482H55.1079V28.1052H72V30H36Z" fill="#336BB7"/>
<path d="M72 30V28.1052H88.9479V1.89482H72V0H108V1.89482H91.1079V28.1052H108V30H72Z" fill="#336BB7"/>
<path d="M108 30V28.1052H124.948V1.89482H108V0H144V1.89482H127.108V28.1052H144V30H108Z" fill="#336BB7"/>
<path d="M144 30V28.1052H160.948V1.89482H144V0H180V1.89482H163.108V28.1052H180V30H144Z" fill="#336BB7"/>
<path d="M180 30V28.1052H196.948V1.89482H180V0H216V1.89482H199.108V28.1052H216V30H180Z" fill="#336BB7"/>
<path d="M216 30V28.1052H232.948V1.89482H216V0H252V1.89482H235.108V28.1052H252V30H216Z" fill="#336BB7"/>
<path d="M252 30V28.1052H268.948V1.89482H252V0H288V1.89482H271.108V28.1052H288V30H252Z" fill="#336BB7"/>
<path d="M288 30V28.1052H304.948V1.89482H288V0H324V1.89482H307.108V28.1052H324V30H288Z" fill="#336BB7"/>
<path d="M324 30V28.1052H340.948V1.89482H324V0H360V1.89482H343.108V28.1052H360V30H324Z" fill="#336BB7"/>
<path d="M360 30V28.1052H370.828V1.89482H360V0H383V1.89482H372.208V28.1052H383V30H360Z" fill="#336BB7"/>
<path d="M51 27H36V25.0726H48.7752V4.92737H36V3H51V27Z" fill="#F5BD33"/>
<path d="M87 27H72V25.0726H84.7752V4.92737H72V3H87V27Z" fill="#F5BD33"/>
<path d="M123 27H108V25.0726H120.775V4.92737H108V3H123V27Z" fill="#F5BD33"/>
<path d="M159 27H144V25.0726H156.775V4.92737H144V3H159V27Z" fill="#F5BD33"/>
<path d="M195 27H180V25.0726H192.775V4.92737H180V3H195V27Z" fill="#F5BD33"/>
<path d="M231 27H216V25.0726H228.775V4.92737H216V3H231V27Z" fill="#F5BD33"/>
<path d="M267 27H252V25.0726H264.775V4.92737H252V3H267V27Z" fill="#F5BD33"/>
<path d="M303 27H288V25.0726H300.775V4.92737H288V3H303V27Z" fill="#F5BD33"/>
<path d="M339 27H324V25.0726H336.775V4.92737H324V3H339V27Z" fill="#F5BD33"/>
<path d="M370 27H360V25.0726H368.517V4.92737H360V3H370V27Z" fill="#F5BD33"/>
<path d="M36 23H46V7H36V8.88776H43.8592V21.1122H36V23Z" fill="#336BB7"/>
<path d="M72 23H82V7H72V8.88776H79.8592V21.1122H72V23Z" fill="#336BB7"/>
<path d="M108 23H118V7H108V8.88776H115.859V21.1122H108V23Z" fill="#336BB7"/>
<path d="M144 23H154V7H144V8.88776H151.859V21.1122H144V23Z" fill="#336BB7"/>
<path d="M180 23H190V7H180V8.88776H187.859V21.1122H180V23Z" fill="#336BB7"/>
<path d="M216 23H226V7H216V8.88776H223.859V21.1122H216V23Z" fill="#336BB7"/>
<path d="M252 23H262V7H252V8.88776H259.859V21.1122H252V23Z" fill="#336BB7"/>
<path d="M288 23H298V7H288V8.88776H295.859V21.1122H288V23Z" fill="#336BB7"/>
<path d="M324 23H334V7H324V8.88776H331.859V21.1122H324V23Z" fill="#336BB7"/>
<path d="M360 23H366V7H360V8.88776H364.716V21.1122H360V23Z" fill="#336BB7"/>
<path d="M42 20H36V17.9154H39.6775V12.0846H36V10H42V20Z" fill="#F5BD33"/>
<path d="M78 20H72V17.9154H75.6775V12.0846H72V10H78V20Z" fill="#F5BD33"/>
<path d="M114 20H108V17.9154H111.678V12.0846H108V10H114V20Z" fill="#F5BD33"/>
<path d="M150 20H144V17.9154H147.678V12.0846H144V10H150V20Z" fill="#F5BD33"/>
<path d="M186 20H180V17.9154H183.678V12.0846H180V10H186V20Z" fill="#F5BD33"/>
<path d="M222 20H216V17.9154H219.678V12.0846H216V10H222V20Z" fill="#F5BD33"/>
<path d="M258 20H252V17.9154H255.678V12.0846H252V10H258V20Z" fill="#F5BD33"/>
<path d="M294 20H288V17.9154H291.678V12.0846H288V10H294V20Z" fill="#F5BD33"/>
<path d="M330 20H324V17.9154H327.678V12.0846H324V10H330V20Z" fill="#F5BD33"/>
<path d="M364 20H360V17.9154H362.452V12.0846H360V10H364V20Z" fill="#F5BD33"/>
<path d="M57 3H72V4.92737H59.2334V25.0726H72V27H57V3Z" fill="#F5BD33"/>
<path d="M93 3H108V4.92737H95.2334V25.0726H108V27H93V3Z" fill="#F5BD33"/>
<path d="M129 3H144V4.92737H131.233V25.0726H144V27H129V3Z" fill="#F5BD33"/>
<path d="M165 3H180V4.92737H167.233V25.0726H180V27H165V3Z" fill="#F5BD33"/>
<path d="M201 3H216V4.92737H203.233V25.0726H216V27H201V3Z" fill="#F5BD33"/>
<path d="M237 3H252V4.92737H239.233V25.0726H252V27H237V3Z" fill="#F5BD33"/>
<path d="M273 3H288V4.92737H275.233V25.0726H288V27H273V3Z" fill="#F5BD33"/>
<path d="M309 3H324V4.92737H311.233V25.0726H324V27H309V3Z" fill="#F5BD33"/>
<path d="M345 3H360V4.92737H347.233V25.0726H360V27H345V3Z" fill="#F5BD33"/>
<path d="M373 3H383V4.92737H374.489V25.0726H383V27H373V3Z" fill="#F5BD33"/>
<path d="M72 7H62V23H72V21.1122H64.1528V8.88776H72V7Z" fill="#336BB7"/>
<path d="M108 7H98V23H108V21.1122H100.153V8.88776H108V7Z" fill="#336BB7"/>
<path d="M144 7H134V23H144V21.1122H136.153V8.88776H144V7Z" fill="#336BB7"/>
<path d="M180 7H170V23H180V21.1122H172.153V8.88776H180V7Z" fill="#336BB7"/>
<path d="M216 7H206V23H216V21.1122H208.153V8.88776H216V7Z" fill="#336BB7"/>
<path d="M252 7H242V23H252V21.1122H244.153V8.88776H252V7Z" fill="#336BB7"/>
<path d="M288 7H278V23H288V21.1122H280.153V8.88776H288V7Z" fill="#336BB7"/>
<path d="M324 7H314V23H324V21.1122H316.153V8.88776H324V7Z" fill="#336BB7"/>
<path d="M360 7H350V23H360V21.1122H352.153V8.88776H360V7Z" fill="#336BB7"/>
<path d="M383 7H377V23H383V21.1122H378.292V8.88776H383V7Z" fill="#336BB7"/>
<path d="M66 10H72V12.0846H68.3459V17.9154H72V20H66V10Z" fill="#F5BD33"/>
<path d="M102 10H108V12.0846H104.346V17.9154H108V20H102V10Z" fill="#F5BD33"/>
<path d="M138 10H144V12.0846H140.346V17.9154H144V20H138V10Z" fill="#F5BD33"/>
<path d="M174 10H180V12.0846H176.346V17.9154H180V20H174V10Z" fill="#F5BD33"/>
<path d="M210 10H216V12.0846H212.346V17.9154H216V20H210V10Z" fill="#F5BD33"/>
<path d="M246 10H252V12.0846H248.346V17.9154H252V20H246V10Z" fill="#F5BD33"/>
<path d="M282 10H288V12.0846H284.346V17.9154H288V20H282V10Z" fill="#F5BD33"/>
<path d="M318 10H324V12.0846H320.346V17.9154H324V20H318V10Z" fill="#F5BD33"/>
<path d="M354 10H360V12.0846H356.346V17.9154H360V20H354V10Z" fill="#F5BD33"/>
<path d="M379 10H383V12.0846H380.564V17.9154H383V20H379V10Z" fill="#F5BD33"/>
</svg>
