<svg width="383" height="30" viewBox="0 0 383 30" fill="none" xmlns="http://www.w3.org/2000/svg">
<path d="M7.95314 14.0079C10.4066 13.3991 13.0454 12.4128 15.1318 10.8146C20.5354 6.67548 20.1879 0 20.1879 0C20.1879 0 11.0793 0.0353824 5.67571 4.17452C1.53838 7.34368 0.772556 11.9997 0.640835 14.0079H0V16.0228H0.642887C0.780398 18.0474 1.55932 22.6724 5.67571 25.8255C11.0793 29.9646 20.1879 30 20.1879 30C20.1879 30 20.5354 23.3245 15.1318 19.1854C13.0801 17.6138 10.4943 16.6338 8.07574 16.0228H20.0404C20.1779 18.0474 20.9568 22.6724 25.0732 25.8255C30.4768 29.9646 39.5854 30 39.5854 30C39.5854 30 39.9329 23.3245 34.5293 19.1854C32.4776 17.6138 29.8918 16.6338 27.4732 16.0228H39.4379C39.5754 18.0474 40.3543 22.6724 44.4707 25.8255C49.8744 29.9646 58.9829 30 58.9829 30C58.9829 30 59.3304 23.3245 53.9268 19.1854C51.8751 17.6138 49.2893 16.6338 46.8708 16.0228H58.8354C58.973 18.0474 59.7519 22.6724 63.8683 25.8255C69.2719 29.9646 78.3804 30 78.3804 30C78.3804 30 78.7279 23.3245 73.3243 19.1854C71.2726 17.6138 68.6868 16.6338 66.2683 16.0228H79V14.0079H66.1457C68.5992 13.3991 71.2379 12.4128 73.3243 10.8146C78.7279 6.67548 78.3804 0 78.3804 0C78.3804 0 69.2719 0.0353824 63.8683 4.17452C59.7309 7.34368 58.9651 11.9997 58.8334 14.0079H46.7482C49.2017 13.3991 51.8404 12.4128 53.9268 10.8146C59.3304 6.67548 58.9829 0 58.9829 0C58.9829 0 49.8744 0.0353824 44.4707 4.17452C40.3334 7.34368 39.5676 11.9997 39.4359 14.0079H27.3506C29.8041 13.3991 32.4429 12.4128 34.5292 10.8146C39.9329 6.67548 39.5854 0 39.5854 0C39.5854 0 30.4768 0.0353824 25.0732 4.17452C20.9359 7.34368 20.1701 11.9997 20.0383 14.0079H7.95314Z" fill="#E55733"/>
<path d="M86.9531 14.0079C89.4066 13.3991 92.0454 12.4128 94.1318 10.8146C99.5354 6.67548 99.1879 0 99.1879 0C99.1879 0 90.0793 0.0353824 84.6757 4.17452C80.5384 7.34368 79.7726 11.9997 79.6408 14.0079H79V16.0228H79.6429C79.7804 18.0474 80.5593 22.6724 84.6757 25.8255C90.0793 29.9646 99.1879 30 99.1879 30C99.1879 30 99.5354 23.3245 94.1318 19.1854C92.0801 17.6138 89.4943 16.6338 87.0757 16.0228H99.0404C99.1779 18.0474 99.9568 22.6724 104.073 25.8255C109.477 29.9646 118.585 30 118.585 30C118.585 30 118.933 23.3245 113.529 19.1854C111.478 17.6138 108.892 16.6338 106.473 16.0228H118.438C118.575 18.0474 119.354 22.6724 123.471 25.8255C128.874 29.9646 137.983 30 137.983 30C137.983 30 138.33 23.3245 132.927 19.1854C130.875 17.6138 128.289 16.6338 125.871 16.0228H137.835C137.973 18.0474 138.752 22.6724 142.868 25.8255C148.272 29.9646 157.38 30 157.38 30C157.38 30 157.728 23.3245 152.324 19.1854C150.273 17.6138 147.687 16.6338 145.268 16.0228H158V14.0079H145.146C147.599 13.3991 150.238 12.4128 152.324 10.8146C157.728 6.67548 157.38 0 157.38 0C157.38 0 148.272 0.0353824 142.868 4.17452C138.731 7.34368 137.965 11.9997 137.833 14.0079H125.748C128.202 13.3991 130.84 12.4128 132.927 10.8146C138.33 6.67548 137.983 0 137.983 0C137.983 0 128.874 0.0353824 123.471 4.17452C119.333 7.34368 118.568 11.9997 118.436 14.0079H106.351C108.804 13.3991 111.443 12.4128 113.529 10.8146C118.933 6.67548 118.585 0 118.585 0C118.585 0 109.477 0.0353824 104.073 4.17452C99.9359 7.34368 99.1701 11.9997 99.0383 14.0079H86.9531Z" fill="#E55733"/>
<path d="M165.953 14.0079C168.407 13.3991 171.045 12.4128 173.132 10.8146C178.535 6.67548 178.188 0 178.188 0C178.188 0 169.079 0.0353824 163.676 4.17452C159.538 7.34368 158.773 11.9997 158.641 14.0079H158V16.0228H158.643C158.78 18.0474 159.559 22.6724 163.676 25.8255C169.079 29.9646 178.188 30 178.188 30C178.188 30 178.535 23.3245 173.132 19.1854C171.08 17.6138 168.494 16.6338 166.076 16.0228H178.04C178.178 18.0474 178.957 22.6724 183.073 25.8255C188.477 29.9646 197.585 30 197.585 30C197.585 30 197.933 23.3245 192.529 19.1854C190.478 17.6138 187.892 16.6338 185.473 16.0228H197.438C197.575 18.0474 198.354 22.6724 202.471 25.8255C207.874 29.9646 216.983 30 216.983 30C216.983 30 217.33 23.3245 211.927 19.1854C209.875 17.6138 207.289 16.6338 204.871 16.0228H216.835C216.973 18.0474 217.752 22.6724 221.868 25.8255C227.272 29.9646 236.38 30 236.38 30C236.38 30 236.728 23.3245 231.324 19.1854C229.273 17.6138 226.687 16.6338 224.268 16.0228H237V14.0079H224.146C226.599 13.3991 229.238 12.4128 231.324 10.8146C236.728 6.67548 236.38 0 236.38 0C236.38 0 227.272 0.0353824 221.868 4.17452C217.731 7.34368 216.965 11.9997 216.833 14.0079H204.748C207.202 13.3991 209.84 12.4128 211.927 10.8146C217.33 6.67548 216.983 0 216.983 0C216.983 0 207.874 0.0353824 202.471 4.17452C198.333 7.34368 197.568 11.9997 197.436 14.0079H185.351C187.804 13.3991 190.443 12.4128 192.529 10.8146C197.933 6.67548 197.585 0 197.585 0C197.585 0 188.477 0.0353824 183.073 4.17452C178.936 7.34368 178.17 11.9997 178.038 14.0079H165.953Z" fill="#E55733"/>
<path d="M244.953 14.0079C247.407 13.3991 250.045 12.4128 252.132 10.8146C257.535 6.67548 257.188 0 257.188 0C257.188 0 248.079 0.0353824 242.676 4.17452C238.538 7.34368 237.773 11.9997 237.641 14.0079H237V16.0228H237.643C237.78 18.0474 238.559 22.6724 242.676 25.8255C248.079 29.9646 257.188 30 257.188 30C257.188 30 257.535 23.3245 252.132 19.1854C250.08 17.6138 247.494 16.6338 245.076 16.0228H257.04C257.178 18.0474 257.957 22.6724 262.073 25.8255C267.477 29.9646 276.585 30 276.585 30C276.585 30 276.933 23.3245 271.529 19.1854C269.478 17.6138 266.892 16.6338 264.473 16.0228H276.438C276.575 18.0474 277.354 22.6724 281.471 25.8255C286.874 29.9646 295.983 30 295.983 30C295.983 30 296.33 23.3245 290.927 19.1854C288.875 17.6138 286.289 16.6338 283.871 16.0228H295.835C295.973 18.0474 296.752 22.6724 300.868 25.8255C306.272 29.9646 315.38 30 315.38 30C315.38 30 315.728 23.3245 310.324 19.1854C308.273 17.6138 305.687 16.6338 303.268 16.0228H316V14.0079H303.146C305.599 13.3991 308.238 12.4128 310.324 10.8146C315.728 6.67548 315.38 0 315.38 0C315.38 0 306.272 0.0353824 300.868 4.17452C296.731 7.34368 295.965 11.9997 295.833 14.0079H283.748C286.202 13.3991 288.84 12.4128 290.927 10.8146C296.33 6.67548 295.983 0 295.983 0C295.983 0 286.874 0.0353824 281.471 4.17452C277.333 7.34368 276.568 11.9997 276.436 14.0079H264.351C266.804 13.3991 269.443 12.4128 271.529 10.8146C276.933 6.67548 276.585 0 276.585 0C276.585 0 267.477 0.0353824 262.073 4.17452C257.936 7.34368 257.17 11.9997 257.038 14.0079H244.953Z" fill="#E55733"/>
<path d="M322.745 14.0079C324.826 13.3991 327.064 12.4128 328.833 10.8146C333.416 6.67548 333.121 0 333.121 0C333.121 0 325.396 0.0353824 320.814 4.17452C317.305 7.34368 316.655 11.9997 316.543 14.0079H316V16.0228H316.545C316.662 18.0474 317.322 22.6724 320.814 25.8255C325.396 29.9646 333.121 30 333.121 30C333.121 30 333.416 23.3245 328.833 19.1854C327.093 17.6138 324.9 16.6338 322.849 16.0228H332.996C333.113 18.0474 333.774 22.6724 337.265 25.8255C341.847 29.9646 349.572 30 349.572 30C349.572 30 349.867 23.3245 345.284 19.1854C343.544 17.6138 341.351 16.6338 339.3 16.0228H349.447C349.564 18.0474 350.225 22.6724 353.716 25.8255C358.299 29.9646 366.023 30 366.023 30C366.023 30 366.318 23.3245 361.735 19.1854C359.995 17.6138 357.802 16.6338 355.751 16.0228H365.898C366.015 18.0474 366.676 22.6724 370.167 25.8255C374.75 29.9646 382.475 30 382.475 30C382.475 30 382.769 23.3245 378.186 19.1854C376.446 17.6138 374.253 16.6338 372.202 16.0228H383V14.0079H372.098C374.179 13.3991 376.417 12.4128 378.186 10.8146C382.769 6.67548 382.475 0 382.475 0C382.475 0 374.75 0.0353824 370.167 4.17452C366.658 7.34368 366.008 11.9997 365.897 14.0079H355.647C357.728 13.3991 359.966 12.4128 361.735 10.8146C366.318 6.67548 366.023 0 366.023 0C366.023 0 358.299 0.0353824 353.716 4.17452C350.207 7.34368 349.557 11.9997 349.446 14.0079H339.196C341.277 13.3991 343.515 12.4128 345.284 10.8146C349.867 6.67548 349.572 0 349.572 0C349.572 0 341.847 0.0353824 337.265 4.17452C333.756 7.34368 333.106 11.9997 332.995 14.0079H322.745Z" fill="#E55733"/>
</svg>
