<svg width="400" height="50" viewBox="0 0 400 50" fill="none" xmlns="http://www.w3.org/2000/svg">
<g clip-path="url(#clip0_28_1380)">
<path d="M383.729 0.169434C387.505 0.169433 391.281 0.169433 395.308 0.228766C396.87 1.31517 398.181 2.34225 399.514 3.44969C399.517 6.59196 399.499 9.65385 399.403 12.7439C399.229 12.8122 399.145 12.8559 398.912 12.8927C394.499 12.0389 390.039 11.8859 385.414 12.3305C378.002 13.0427 374.755 14.6174 374.74 17.4726C374.722 20.688 374.681 23.9033 374.506 27.1295C373.997 27.1931 373.633 27.2459 373.118 27.2762C372.348 26.8574 371.728 26.4611 371.095 26.0087C370.762 25.7197 370.442 25.4869 370.108 25.1966C369.674 24.8372 369.256 24.5352 368.821 24.1742C368.332 23.7604 367.859 23.4055 367.368 22.993C366.954 22.6613 366.559 22.3873 366.175 22.0901C366.186 22.067 366.097 22.0338 366.094 21.9845C365.951 21.8539 365.811 21.7726 365.655 21.6324C365.215 21.2577 364.791 20.9418 364.348 20.5758C364.185 20.4419 364.042 20.358 363.89 20.2243C363.709 20.0598 363.536 19.9451 363.351 19.7725C362.921 19.4115 362.504 19.1082 362.065 18.7474C361.628 18.3853 361.213 18.0807 360.776 17.7203C360.533 17.5019 360.311 17.3392 359.944 17.069C359.538 17.4322 359.24 17.6993 358.844 18.0119C358.472 18.3074 358.198 18.5573 357.816 18.8434C357.575 19.014 357.442 19.1485 357.334 19.2843C357.359 19.2855 357.359 19.2668 357.244 19.3058C356.759 19.6714 356.388 19.9979 355.909 20.3649C355.305 20.8336 354.809 21.2617 354.205 21.7289C353.743 22.0826 353.39 22.3971 352.951 22.7518C352.742 22.9181 352.618 23.0442 352.397 23.205C352.211 23.3333 352.122 23.4269 351.936 23.5577C351.753 23.6935 351.669 23.7921 351.473 23.9286C351.009 24.2827 350.657 24.5989 350.205 24.9625C349.387 25.6208 348.669 26.2317 347.83 26.8832C347.377 27.2147 347.045 27.5055 346.617 27.8382C346.389 28.0172 346.258 28.1543 346.042 28.3122C345.867 28.3745 345.834 28.4218 345.768 28.5197C345.538 28.6198 345.4 28.6752 345.234 28.6455C345.196 24.4076 345.185 20.2547 345.233 16.0333C345.523 15.6701 345.805 15.3789 345.954 15.0785C345.996 14.9958 345.645 14.8856 345.483 14.7858C345.491 14.7836 345.485 14.7692 345.619 14.831C345.958 14.8301 346.162 14.7673 346.49 14.6718C346.818 14.5101 347.022 14.3811 347.345 14.2247C347.954 13.9869 348.443 13.7765 349.06 13.5496C349.446 13.4415 349.704 13.3498 349.925 13.2538C349.889 13.2495 349.869 13.2773 350.012 13.263C350.383 13.1794 350.611 13.1101 350.992 13.0308C360.803 11.1926 369.518 12.0105 374.742 15.3717C374.742 12.5867 374.742 9.9596 374.857 7.29055C377.891 4.88888 380.81 2.52916 383.729 0.169434Z" fill="#FEA401"/>
<path d="M146.893 0.169434C150.669 0.169434 154.445 0.169434 158.517 0.220029C161.46 2.4115 164.097 4.55379 166.766 6.69047C166.971 6.85436 167.401 6.97864 167.718 7.20056C167.706 10.0523 167.702 12.8248 167.569 15.5612C165.569 13.2987 161.088 12.4122 155.303 12.1106C147.601 11.709 140.02 13.3976 137.94 15.9656C137.705 15.6862 137.555 15.4676 137.589 15.2228C137.814 14.6507 137.854 14.1049 137.939 13.4812C137.961 11.3162 137.937 9.22906 138.066 7.12297C141.11 4.79249 144.001 2.48096 146.893 0.169434Z" fill="#FCA401"/>
<path d="M206.102 0.169434C210.028 0.169433 213.955 0.169433 218.051 0.233751C220.901 2.50927 223.578 4.72123 226.279 6.92887C226.387 7.01737 226.734 7.06484 226.958 7.21018C226.938 9.77445 226.929 12.26 226.887 14.7988C226.824 14.9897 226.794 15.1273 226.754 15.3065C221.417 12.448 217.547 11.7321 209.418 12.2228C203.326 12.5906 198.748 13.7117 197.035 16.0612C196.838 15.8002 196.75 15.5892 196.791 15.33C197.002 15.1471 197.154 15.0124 197.154 14.8778C197.148 12.3025 197.124 9.72721 197.247 7.12658C200.294 4.79064 203.198 2.48004 206.102 0.169434Z" fill="#64044D"/>
<path d="M58.3051 0.169434C62.081 0.169434 65.8569 0.169434 69.863 0.230732C72.6537 2.39753 75.2141 4.50302 77.7005 6.64521C78.0368 6.88535 78.4472 7.08879 78.8767 7.37102C78.8494 9.99034 78.8031 12.5309 78.6775 15.0691C78.4923 15.0695 78.3871 15.0743 78.2011 15.0298C76.8858 13.8544 74.7081 13.081 71.7642 12.6071C64.4222 11.425 53.0821 12.265 49.5354 15.4249C49.4568 15.4262 49.2996 15.4287 49.2718 15.3495C49.246 14.1185 49.2193 12.9665 49.2569 11.8148C49.3073 10.273 49.4074 8.73138 49.5785 7.14202C52.5489 4.78606 55.427 2.47775 58.3051 0.169434Z" fill="#FDA401"/>
<path d="M345.485 14.7692C345.485 14.7692 345.491 14.7836 345.408 14.8382C345.24 15.0111 345.154 15.1294 344.938 15.4287C343.503 14.0054 341.3 13.0835 337.975 12.5973C331.954 11.7171 326.073 11.9051 320.788 13.2643C318.896 13.7509 317.787 14.6659 316.218 15.4067C315.897 15.4539 315.678 15.4798 315.461 15.5102C315.463 15.5146 315.455 15.5231 315.491 15.4383C315.513 12.628 315.499 9.90239 315.617 7.15648C318.673 4.81391 321.596 2.49167 324.52 0.169434C328.296 0.169432 332.072 0.169432 336.099 0.228694C338.977 2.40494 341.594 4.52373 344.249 6.63574C344.478 6.81839 344.962 6.9562 345.302 7.19409C345.255 8.25737 345.189 9.24161 345.222 10.2254C345.274 11.7402 345.394 13.2546 345.485 14.7692Z" fill="#026769"/>
<path d="M265.311 0.169434C269.087 0.169435 272.863 0.169435 276.898 0.227696C279.782 2.39704 282.396 4.50983 285.047 6.61626C285.282 6.80265 285.751 6.94755 286.094 7.19143C286.073 9.97794 286.068 12.6847 285.933 15.3653C284.135 13.8621 281.387 12.8466 277.206 12.3725C270.371 11.5974 261.057 12.4144 257.187 14.9291C256.918 14.8434 256.721 14.7938 256.474 14.667C256.402 12.1158 256.381 9.64186 256.506 7.14399C259.539 4.80321 262.425 2.48632 265.311 0.169434Z" fill="#036868"/>
<path d="M286.063 15.3915C286.068 12.6847 286.073 9.97794 286.095 7.1977C286.112 7.12425 286.079 7.12514 286.213 7.09379C288.755 5.15592 291.179 3.25217 293.558 1.34054C294.025 0.96582 294.317 0.56059 294.689 0.169434C298.616 0.169434 302.542 0.169434 306.68 0.232922C309.763 2.60119 312.636 4.90597 315.487 7.20385C315.465 7.19694 315.484 7.17681 315.484 7.17681C315.499 9.90239 315.513 12.628 315.395 15.3832C313.878 14.6639 312.87 13.7341 311.042 13.1979C303.89 11.1002 289.342 11.9953 286.16 15.5843C286.106 15.4772 286.085 15.4344 286.063 15.3915Z" fill="#64034D"/>
<path d="M49.4862 7.18967C49.4074 8.73138 49.3073 10.273 49.2569 11.8148C49.2193 12.9665 49.246 14.1185 49.1346 15.3191C46.4907 12.9084 41.1946 12.0294 34.7342 12.1097C28.1616 12.1913 22.5709 13.0731 19.8924 15.5828C19.8638 15.5658 19.8129 15.5304 19.7992 15.4551C19.799 12.6485 19.8125 9.91723 19.8365 7.19077C19.847 7.19557 19.8434 7.20791 19.9377 7.15329C22.8462 4.78892 25.6604 2.47918 28.4746 0.169434C32.4012 0.169434 36.3277 0.169434 40.4386 0.233368C42.8833 2.16081 45.1254 4.02747 47.4177 5.88543C47.9418 6.31025 48.6389 6.70505 49.3131 7.13299C49.3698 7.15231 49.4862 7.18967 49.4862 7.18967Z" fill="#64034D"/>
<path d="M197.103 7.15192C197.124 9.72721 197.148 12.3025 197.154 14.8778C197.154 15.0124 197.002 15.1471 196.783 15.2699C195.468 13.728 192.522 12.8909 188.685 12.4046C182.263 11.5906 171.346 12.2359 167.698 15.5938C167.691 15.5924 167.698 15.5973 167.698 15.5973C167.702 12.8248 167.706 10.0523 167.698 7.19946C167.687 7.11913 167.682 7.13388 167.832 7.11358C170.723 4.9147 173.468 2.73698 176.189 0.554958C176.325 0.44554 176.249 0.298797 176.271 0.169434C180.198 0.169434 184.124 0.169434 188.256 0.232676C191.332 2.57411 194.203 4.8523 197.078 7.13649C197.082 7.14249 197.103 7.15192 197.103 7.15192Z" fill="#016869"/>
<path d="M256.36 7.16789C256.381 9.64185 256.402 12.1158 256.424 14.7239C256.512 15.0486 256.597 15.2392 256.708 15.4262C256.733 15.4227 256.714 15.404 256.56 15.3867C256.169 15.2484 255.856 15.1393 255.706 15.0046C254.381 13.8178 252.077 13.0158 248.915 12.5481C241.884 11.5081 232.139 12.2632 227.796 14.7648C227.387 14.7551 227.153 14.7503 226.92 14.7455C226.929 12.26 226.938 9.77445 226.945 7.20736C226.944 7.12581 226.926 7.13469 227.064 7.10614C229.793 5.01122 232.393 2.94648 234.961 0.876065C235.232 0.657616 235.312 0.405781 235.48 0.169434C239.407 0.169433 243.333 0.169433 247.461 0.23279C250.536 2.57386 253.41 4.85157 256.299 7.13991C256.315 7.15054 256.36 7.16789 256.36 7.16789Z" fill="#FEA501"/>
<path d="M78.7568 15.0714C78.8031 12.5309 78.8494 9.99034 78.9771 7.32133C79.7592 6.66582 80.5033 6.14618 81.1528 5.61042C83.3478 3.79984 85.5093 1.98355 87.6836 0.169434C91.6102 0.169433 95.5368 0.169433 99.597 0.229438C102.497 2.56533 105.262 4.84122 108.07 7.14795C108.177 7.21838 108.262 7.25067 108.397 7.35515C108.467 9.81528 108.507 12.1959 108.501 14.6188C108.429 14.6895 108.401 14.718 108.197 14.7625C107.906 14.792 107.791 14.8054 107.586 14.7757C105.517 13.3473 102.361 12.575 98.3373 12.2448C91.2671 11.6645 82.0483 12.6539 78.9407 15.5065C78.8713 15.3022 78.814 15.1868 78.7568 15.0714Z" fill="#016869"/>
<path d="M345.619 14.831C345.394 13.2546 345.273 11.7402 345.222 10.2254C345.189 9.24161 345.255 8.25737 345.301 7.20008C345.325 7.12681 345.293 7.12666 345.423 7.09324C347.698 5.35696 349.865 3.65801 351.974 1.94905C352.691 1.36885 353.261 0.763366 353.898 0.169434C357.825 0.169432 361.751 0.169432 365.883 0.233107C368.958 2.58062 371.827 4.86446 374.706 7.1944C374.725 7.27117 374.733 7.30183 374.742 7.33249C374.742 9.9596 374.742 12.5867 374.742 15.3717C369.518 12.0105 360.803 11.1926 350.847 13.0463C350.323 13.1402 350.096 13.2088 349.869 13.2773C349.869 13.2773 349.889 13.2495 349.78 13.2594C349.425 13.3682 349.179 13.4671 348.933 13.566C348.443 13.7765 347.954 13.9869 347.187 14.2433C346.728 14.4276 346.547 14.566 346.366 14.7045C346.162 14.7673 345.958 14.8301 345.619 14.831Z" fill="#64034D"/>
<path d="M108.546 14.5766C108.507 12.1959 108.467 9.81528 108.443 7.31684C108.459 7.19905 108.495 7.11578 108.504 7.11839C108.513 7.12099 108.501 7.12825 108.631 7.0967C111.518 4.87628 114.281 2.68808 117.022 0.49617C117.136 0.404953 117.053 0.279133 117.062 0.169434C120.989 0.169434 124.915 0.169434 129.071 0.230891C131.996 2.51994 134.692 4.74753 137.467 7.00627C137.669 7.07226 137.791 7.10709 137.914 7.14192C137.937 9.22906 137.961 11.3162 137.762 13.4939C136.83 13.6405 136.122 13.6965 135.29 13.7247C134.254 13.413 133.342 13.1291 132.414 12.817C132.25 12.7703 132.102 12.752 131.797 12.7239C130.847 12.5916 130.056 12.4691 129.23 12.3066C128.907 12.2546 128.62 12.2426 128.223 12.2333C128.112 12.236 127.909 12.2018 127.801 12.1502C125.174 11.7618 122.673 11.6305 120.122 12.2058C119.934 12.2183 119.856 12.2146 119.677 12.1796C119.19 12.2181 118.804 12.2879 118.281 12.3865C117.643 12.4668 117.142 12.5183 116.531 12.5384C115.592 12.7 114.763 12.893 113.848 13.1309C112.684 13.535 111.606 13.8943 110.408 14.2824C110.165 14.3652 110.042 14.419 109.966 14.4558C110.014 14.4387 110.103 14.4751 109.995 14.4937C109.838 14.5663 109.788 14.6201 109.751 14.6945C109.764 14.7151 109.672 14.7392 109.493 14.7037C109.058 14.6377 108.802 14.6071 108.546 14.5766Z" fill="#64024D"/>
<path d="M57.4011 50.1695C54.8303 50.1695 52.2594 50.1695 49.4673 50.0902C49.2555 47.7782 49.2648 45.5455 49.3884 43.2625C50.7404 42.4914 51.6293 41.6235 53.2753 41.0753C61.1686 38.4468 73.7957 39.3464 78.6017 42.862C78.6722 43.0873 78.7731 43.2598 78.8864 43.5089C78.9645 45.7802 79.0303 47.9748 79.0961 50.1695C76.5252 50.1695 73.9543 50.1695 71.1492 50.1085C68.7089 48.2564 66.5029 46.4653 64.0979 44.5126C62.5308 45.7689 61.1923 46.806 59.9403 47.8575C59.0345 48.6183 58.2434 49.3982 57.4011 50.1695Z" fill="#FCA401"/>
<path d="M323.616 50.1695C321.045 50.1695 318.474 50.1695 315.723 50.0907C315.556 47.8279 315.569 45.6438 315.662 43.4087C315.824 43.2064 315.906 43.0552 316.077 42.8649C316.257 42.6955 316.349 42.5652 316.555 42.3949C320.651 40.0154 326.68 39.4317 333.528 39.6695C339.098 39.8629 343.084 40.9192 345.041 43.0312C345.111 43.1638 345.136 43.217 345.161 43.2916C345.171 43.3429 345.206 43.3678 345.245 43.4667C345.252 45.7538 345.281 47.9616 345.311 50.1695C342.74 50.1695 340.169 50.1695 337.406 50.106C335.015 48.2485 332.818 46.4546 330.357 44.4456C327.938 46.4999 325.777 48.3347 323.616 50.1695Z" fill="#026769"/>
<path d="M205.198 50.1695C202.627 50.1695 200.056 50.1695 197.304 50.0907C197.13 47.7546 197.138 45.4973 197.256 43.1992C198.692 41.8745 200.911 40.9099 204.267 40.3004C213.322 38.6556 221.898 39.6773 226.797 43.0055C226.792 43.0011 226.773 42.9944 226.831 43.0749C226.89 45.4935 226.891 47.8315 226.893 50.1695C224.322 50.1695 221.751 50.1695 218.977 50.1058C216.635 48.2739 214.495 46.5056 212.355 44.7373C212.128 44.7416 211.9 44.7459 211.673 44.7503C209.515 46.5567 207.356 48.3631 205.198 50.1695Z" fill="#64044D"/>
<path d="M167.684 50.1695C165.113 50.1695 162.542 50.1695 159.8 50.1067C157.466 48.2612 155.303 46.4787 152.855 44.462C150.396 46.5063 148.192 48.3379 145.989 50.1695C143.418 50.1695 140.847 50.1695 138.121 50.0925C137.994 47.8282 138.022 45.6409 138.074 43.4085C140.316 40.9608 145.473 39.6776 153.265 39.5892C160.274 39.5096 164.857 40.6279 167.564 43.1396C167.625 43.3166 167.691 43.4336 167.722 43.6297C167.705 45.8065 167.722 47.9041 167.699 50.0425C167.668 50.112 167.676 50.1408 167.684 50.1695Z" fill="#FCA401"/>
<path d="M264.407 50.1695C261.836 50.1695 259.265 50.1695 256.527 50.0915C256.354 47.7471 256.348 45.4807 256.444 43.1727C256.665 43.0593 256.813 42.992 256.901 42.9151C259.693 40.4732 265.169 39.6862 271.67 39.6278C277.976 39.5712 283.021 40.4032 285.637 42.7951C285.787 43.1162 285.931 43.3725 286.05 43.7034C286.05 45.9085 286.076 48.039 286.102 50.1695C283.531 50.1695 280.96 50.1695 278.202 50.106C275.823 48.251 273.632 46.4596 271.179 44.4542C268.721 46.5289 266.564 48.3492 264.407 50.1695Z" fill="#036868"/>
<path d="M138.05 43.4537C138.022 45.6409 137.994 47.8282 137.909 50.0925C135.433 50.1695 133.012 50.1695 130.348 50.1096C127.923 48.2783 125.742 46.5069 123.304 44.5263C121.647 45.8368 120.236 46.9118 118.927 48.0041C118.077 48.7129 117.377 49.4468 116.61 50.1695C114.039 50.1695 111.468 50.1695 108.677 50.0902C108.47 47.7714 108.485 45.532 108.574 43.2486C109.187 42.7566 109.724 42.3085 110.273 41.8615C110.285 41.8625 110.27 41.8554 110.388 41.8271C110.779 41.6578 111.051 41.5168 111.413 41.3648C111.614 41.3263 111.677 41.2876 111.818 41.2162C112.196 41.0958 112.448 40.9967 112.666 40.8941C112.632 40.8906 112.618 40.9169 112.749 40.9016C113.08 40.8195 113.281 40.7527 113.468 40.6824C113.456 40.6788 113.464 40.6901 113.606 40.6781C114.139 40.563 114.531 40.4598 115.003 40.3569C115.196 40.3484 115.284 40.3264 115.504 40.2799C116.129 40.1808 116.598 40.0928 117.186 40.0033C117.373 39.9874 117.442 39.9727 117.634 39.9559C117.98 39.9143 118.202 39.875 118.541 39.8386C118.728 39.8286 118.798 39.8156 118.997 39.8055C119.356 39.7717 119.586 39.735 120.003 39.6988C120.803 39.6687 121.416 39.6382 122.233 39.6166C123.659 39.6214 124.882 39.6173 126.278 39.6313C126.931 39.6603 127.41 39.6713 128.02 39.7181C128.683 39.7911 129.215 39.8283 129.774 39.8754C129.802 39.8853 129.859 39.866 129.976 39.9103C131.165 40.1472 132.237 40.3399 133.39 40.5779C134.07 40.8106 134.67 40.9979 135.316 41.2278C135.589 41.3568 135.815 41.4432 136.087 41.5856C136.415 41.8056 136.697 41.9696 137.041 42.1119C137.104 42.0902 137.246 42.126 137.246 42.126C137.246 42.126 137.187 42.186 137.186 42.2545C137.413 42.534 137.641 42.7449 137.907 43.0072C137.98 43.1902 138.015 43.3219 138.05 43.4537Z" fill="#64034D"/>
<path d="M345.522 50.1695C345.281 47.9617 345.252 45.7538 345.342 43.4316C345.557 43.2246 345.653 43.1319 345.745 42.977C347.286 42.1768 348.481 41.2548 350.435 40.7333C357.634 38.8126 367.445 39.3381 373.439 41.8794C373.755 42.1497 374 42.3667 374.325 42.6303C374.516 42.879 374.628 43.081 374.769 43.3687C374.762 45.6927 374.726 47.9311 374.689 50.1695C372.269 50.1695 369.849 50.1695 367.157 50.1135C364.66 48.2723 362.434 46.4871 359.979 44.5175C357.467 46.5498 355.231 48.3596 352.994 50.1695C350.574 50.1695 348.154 50.1695 345.522 50.1695Z" fill="#64034D"/>
<path d="M256.343 43.2143C256.348 45.4807 256.354 47.7471 256.315 50.0915C253.851 50.1695 251.431 50.1695 248.756 50.1106C246.274 48.2525 244.046 46.4533 241.643 44.5132C239.151 46.5078 236.864 48.3387 234.576 50.1695C232.156 50.1695 229.736 50.1695 227.104 50.1695C226.891 47.8314 226.89 45.4934 226.994 43.0799C230.087 40.4293 235.87 39.5909 242.748 39.6111C249.103 39.6297 254.076 40.5751 256.221 43.0451C256.208 43.1313 256.254 43.1759 256.343 43.2143Z" fill="#FEA501"/>
<path d="M286.313 50.1695C286.076 48.039 286.05 45.9084 286.139 43.6462C286.331 43.348 286.408 43.1815 286.509 42.9556C287.618 42.2975 288.462 41.6034 289.83 41.117C295.356 39.1535 309.142 38.6842 314.541 42.132C314.743 42.4065 314.921 42.6246 315.074 42.9088C315.227 43.1366 315.405 43.2982 315.582 43.4598C315.569 45.6438 315.556 47.8279 315.511 50.0907C313.06 50.1695 310.64 50.1695 307.955 50.112C305.488 48.282 303.287 46.5094 300.831 44.5315C298.883 46.0818 297.168 47.4159 295.536 48.7642C294.992 49.2138 294.664 49.7 294.237 50.1695C291.666 50.1695 289.096 50.1695 286.313 50.1695Z" fill="#64034D"/>
<path d="M108.499 43.2925C108.485 45.5319 108.47 47.7713 108.465 50.0901C105.904 50.1694 103.333 50.1694 100.614 50.1081C98.2781 48.2506 96.091 46.4545 93.6679 44.4646C91.2114 46.499 88.9956 48.3342 86.7797 50.1694C84.3594 50.1694 81.9391 50.1694 79.3074 50.1694C79.0303 47.9748 78.9645 45.7801 78.9379 43.445C80.639 41.2881 84.5817 40.2338 89.8184 39.805C96.8189 39.2317 105.601 39.7564 108.379 43.1152C108.482 43.1939 108.506 43.2421 108.499 43.2925Z" fill="#026869"/>
<path d="M167.739 50.0019C167.722 47.9042 167.705 45.8065 167.801 43.5855C167.985 43.3234 168.055 43.1847 168.149 42.9859C170.801 40.4785 176.25 39.7266 182.624 39.6325C189.319 39.5338 194.521 40.4441 197.083 42.9912C197.122 43.1066 197.134 43.1733 197.145 43.2399C197.137 45.4973 197.13 47.7546 197.092 50.0907C194.642 50.1695 192.222 50.1695 189.561 50.1092C187.085 48.2447 184.848 46.4406 182.465 44.5183C179.956 46.5159 177.662 48.3427 175.367 50.1695C173.097 50.1695 170.827 50.1695 168.29 50.1387C167.939 50.0681 167.845 50.0328 167.739 50.0019Z" fill="#016869"/>
<path d="M49.2742 43.3129C49.2648 45.5456 49.2555 47.7782 49.2558 50.0902C46.6947 50.1695 44.1238 50.1695 41.371 50.1056C39.0603 48.2564 36.9314 46.471 34.5317 44.4585C32.027 46.5134 29.7988 48.3415 27.5706 50.1695C25.6014 50.1695 23.6322 50.1695 21.4381 50.0984C21.0725 49.4729 20.8654 48.9195 20.8031 48.3639C20.6027 46.5794 20.4559 44.794 20.2878 42.9482C21.2445 42.3282 21.9806 41.6873 23.1971 41.2238C28.6882 39.1315 43.1999 38.6322 48.3687 42.264C48.6662 42.5395 48.9482 42.7554 49.2518 43.0278C49.2737 43.1605 49.2739 43.2367 49.2742 43.3129Z" fill="#64034D"/>
<path d="M0.451965 39.8305C0.451965 35.6462 0.451965 31.4618 0.545715 27.1508C1.98522 25.9769 3.33098 24.9296 4.91522 23.6967C5.60706 24.2232 6.04501 24.5418 6.44925 24.8664C10.4599 28.0865 14.4552 31.3092 18.4899 34.5251C18.8213 34.7892 19.4105 35.0079 19.8551 35.3272C19.7922 36.0517 19.7453 36.6966 19.7177 37.3416C19.6385 39.1922 19.5671 41.0429 19.391 42.8369C17.6128 41.069 14.2898 40.0212 9.57686 39.7811C6.59622 39.6292 3.49765 39.8029 0.451965 39.8305Z" fill="#64044D"/>
<path d="M19.826 7.18598C19.8125 9.91723 19.799 12.6485 19.6788 15.4266C18.1576 14.0675 15.7645 13.0154 11.8955 12.504C8.12089 12.005 4.30632 11.9276 0.451965 12.3728C0.451965 8.32386 0.451965 4.27489 0.451965 0.169434C3.77437 0.169434 7.09905 0.169434 10.6538 0.231821C13.5476 2.4464 16.2039 4.59989 18.8897 6.7482C19.0955 6.91282 19.509 7.04091 19.826 7.18598Z" fill="#026769"/>
<path d="M374.901 50.1695C374.726 47.9311 374.762 45.6927 374.867 43.335C376.331 41.5834 379.383 40.5601 383.596 40.0257C389.044 39.3345 394.386 39.4136 399.507 40.5925C399.543 43.8369 399.546 47.0032 399.548 50.1695C398.625 50.1695 397.702 50.1695 396.584 50.1068C394.195 48.2547 392.001 46.4653 389.525 44.4461C387.083 46.5324 384.954 48.3509 382.825 50.1695C380.254 50.1695 377.683 50.1695 374.901 50.1695Z" fill="#FDA401"/>
<path d="M0.451965 12.4523C4.30632 11.9276 8.12089 12.0051 11.8955 12.504C15.7645 13.0155 18.1576 14.0676 19.6925 15.5019C19.8129 15.5304 19.8638 15.5658 19.8769 15.6619C19.8329 17.8447 19.7344 19.9313 19.7298 22.018C19.7249 24.2445 19.8086 26.471 19.8374 28.7404C19.805 28.8118 19.7889 28.8401 19.6729 28.8217C14.7534 24.9182 9.93388 21.0613 4.99711 17.1106C3.35552 18.2766 1.90374 19.3078 0.451966 20.339C0.451965 17.7366 0.451965 15.1341 0.451965 12.4523Z" fill="#65054C"/>
<path d="M0.451965 39.9099C3.49765 39.8028 6.59622 39.6292 9.57686 39.781C14.2898 40.0212 17.6128 41.069 19.4079 42.8482C19.5263 42.9162 19.492 42.9732 19.4901 43.049C19.5769 43.6547 19.7228 44.1842 19.7437 44.7145C19.8151 46.5327 19.8427 48.3511 19.887 50.1695C17.3161 50.1695 14.7453 50.1695 11.9572 50.107C9.5254 48.2493 7.3109 46.4541 4.95697 44.5459C3.30345 45.8012 1.87771 46.8836 0.451965 47.9661C0.451965 45.3072 0.451965 42.6483 0.451965 39.9099Z" fill="#026769"/>
<path d="M0.451965 20.4184C1.90374 19.3078 3.35552 18.2766 4.99711 17.1106C9.93388 21.0613 14.7534 24.9182 19.6653 28.8971C19.7882 30.8717 19.8186 32.7245 19.8226 34.6454C19.8202 34.8967 19.8442 35.0799 19.8612 35.2582C19.8542 35.2533 19.8799 35.2477 19.8799 35.2477C19.4105 35.0079 18.8213 34.7892 18.4899 34.5251C14.4552 31.3092 10.4599 28.0865 6.44925 24.8664C6.04501 24.5418 5.60706 24.2232 4.91522 23.6967C3.33098 24.9296 1.98522 25.9769 0.545714 27.0714C0.451965 24.9117 0.451965 22.7048 0.451965 20.4184Z" fill="#036668"/>
<path d="M399.774 50.1694C399.545 47.0032 399.543 43.8369 399.537 40.5135C399.521 37.3867 399.509 34.4171 399.527 31.3619C399.527 29.1311 399.498 26.9858 399.497 24.7557C399.506 20.7922 399.487 16.9135 399.496 12.9818C399.51 12.8577 399.495 12.7867 399.48 12.7157C399.499 9.65385 399.517 6.59196 399.537 3.37328C399.542 2.2008 399.545 1.18512 399.548 0.169434C399.849 0.225931 400.354 0.262319 400.411 0.342986C400.541 0.52789 400.452 0.734405 400.452 0.932145C400.452 17.0903 400.454 33.2485 400.433 49.4067C400.433 49.661 400.151 49.9152 399.774 50.1694Z" fill="#0D0D05"/>
<path d="M175.579 50.1695C177.662 48.3427 179.956 46.5159 182.465 44.5183C184.848 46.4406 187.085 48.2447 189.35 50.1092C184.849 50.1695 180.32 50.1695 175.579 50.1695Z" fill="#FAA402"/>
<path d="M323.828 50.1694C325.777 48.3347 327.938 46.4999 330.357 44.4456C332.818 46.4545 335.015 48.2485 337.194 50.1059C332.797 50.1694 328.418 50.1694 323.828 50.1694Z" fill="#FAA402"/>
<path d="M86.9915 50.1694C88.9955 48.3342 91.2114 46.499 93.6679 44.4646C96.0909 46.4545 98.2781 48.2506 100.402 50.1081C95.9604 50.1694 91.5819 50.1694 86.9915 50.1694Z" fill="#FAA402"/>
<path d="M234.788 50.1695C236.864 48.3387 239.151 46.5078 241.643 44.5132C244.046 46.4533 246.274 48.2525 248.545 50.1106C244.058 50.1695 239.529 50.1695 234.788 50.1695Z" fill="#66054C"/>
<path d="M353.206 50.1695C355.231 48.3596 357.467 46.5498 359.979 44.5175C362.434 46.4871 364.66 48.2723 366.946 50.1135C362.476 50.1695 357.947 50.1695 353.206 50.1695Z" fill="#026769"/>
<path d="M27.7824 50.1695C29.7988 48.3414 32.0269 46.5133 34.5317 44.4584C36.9314 46.4709 39.0602 48.2563 41.1595 50.1056C36.7514 50.1695 32.3728 50.1695 27.7824 50.1695Z" fill="#026769"/>
<path d="M57.6129 50.1695C58.2434 49.3982 59.0345 48.6182 59.9402 47.8575C61.1923 46.806 62.5307 45.7689 64.0979 44.5126C66.5029 46.4653 68.7089 48.2564 70.9377 50.1085C66.5819 50.1695 62.2033 50.1695 57.6129 50.1695Z" fill="#66054C"/>
<path d="M116.822 50.1695C117.377 49.4468 118.077 48.7128 118.927 48.004C120.236 46.9118 121.647 45.8368 123.304 44.5262C125.742 46.5069 127.923 48.2783 130.137 50.1096C125.791 50.1695 121.412 50.1695 116.822 50.1695Z" fill="#026769"/>
<path d="M264.619 50.1695C266.564 48.3492 268.721 46.5289 271.179 44.4542C273.632 46.4596 275.823 48.2511 277.99 50.106C273.588 50.1695 269.209 50.1695 264.619 50.1695Z" fill="#FAA402"/>
<path d="M294.449 50.1695C294.664 49.7 294.992 49.2138 295.536 48.7642C297.168 47.4159 298.883 46.0818 300.831 44.5315C303.287 46.5094 305.488 48.282 307.743 50.112C303.418 50.1695 299.039 50.1695 294.449 50.1695Z" fill="#026769"/>
<path d="M146.201 50.1694C148.192 48.3378 150.396 46.5062 152.855 44.4619C155.303 46.4786 157.466 48.2612 159.589 50.1066C155.169 50.1694 150.791 50.1694 146.201 50.1694Z" fill="#66054C"/>
<path d="M205.41 50.1694C207.356 48.363 209.515 46.5566 211.673 44.7502C211.9 44.7458 212.128 44.7415 212.355 44.7372C214.495 46.5055 216.634 48.2738 218.766 50.1057C214.378 50.1694 210 50.1694 205.41 50.1694Z" fill="#026769"/>
<path d="M383.037 50.1695C384.954 48.3509 387.083 46.5323 389.525 44.446C392.001 46.4652 394.194 48.2546 396.386 50.1067C392.006 50.1695 387.627 50.1695 383.037 50.1695Z" fill="#65054C"/>
<path d="M0.451965 48.0469C1.87771 46.8837 3.30345 45.8012 4.95697 44.5459C7.3109 46.4541 9.5254 48.2493 11.7457 50.107C8.03045 50.1695 4.3095 50.1695 0.451965 50.1695C0.451965 49.4897 0.451965 48.8087 0.451965 48.0469Z" fill="#FBA402"/>
<path d="M87.4719 0.169434C85.5093 1.98355 83.3478 3.79984 81.1528 5.61042C80.5033 6.14618 79.7593 6.66582 78.9581 7.24254C78.4473 7.08879 78.0368 6.88535 77.8142 6.68986C78.2739 6.63637 78.7836 6.57467 78.7832 6.51353C78.7666 4.3988 78.7019 2.28412 78.6441 0.169434C81.5161 0.169434 84.3882 0.169434 87.4719 0.169434Z" fill="#E99C0A"/>
<path d="M19.8365 7.19078C19.509 7.04091 19.0955 6.91282 18.8897 6.74821C16.2039 4.59989 13.5476 2.4464 10.8656 0.231826C13.5689 0.169439 16.2903 0.169439 19.1148 0.232011C19.3896 0.707408 19.6917 1.11938 19.7109 1.5332C19.7984 3.42449 19.8067 5.3163 19.8434 7.20792C19.8434 7.20792 19.847 7.19557 19.8365 7.19078Z" fill="#F2A305"/>
<path d="M315.617 7.15648C315.484 7.17681 315.465 7.19694 315.511 7.11826C315.531 4.74953 315.506 2.45948 315.48 0.169434C318.352 0.169434 321.224 0.169434 324.308 0.169435C321.596 2.49167 318.673 4.81391 315.617 7.15648Z" fill="#F3A305"/>
<path d="M205.89 0.169434C203.198 2.48004 200.294 4.79064 197.247 7.12658C197.103 7.15192 197.082 7.14249 197.119 7.05749C197.168 5.25424 197.226 3.53573 197.163 1.81785C197.143 1.26753 196.803 0.718859 196.61 0.169434C199.633 0.169434 202.655 0.169434 205.89 0.169434Z" fill="#0B6866"/>
<path d="M138.066 7.12297C137.792 7.10709 137.669 7.07226 137.629 6.96123C137.797 6.58154 137.962 6.27798 137.959 5.97459C137.944 4.03952 137.893 2.10448 137.853 0.169434C140.725 0.169434 143.597 0.169434 146.681 0.169434C144.001 2.48096 141.11 4.79249 138.066 7.12297Z" fill="#62084D"/>
<path d="M345.326 7.12092C344.962 6.9563 344.478 6.81849 344.249 6.63584C341.594 4.52383 338.977 2.40504 336.311 0.228794C339.143 0.169533 342.015 0.169533 345.049 0.247054C345.238 2.59197 345.266 4.85937 345.293 7.12677C345.293 7.12677 345.325 7.12691 345.326 7.12092Z" fill="#F2A305"/>
<path d="M265.099 0.169434C262.425 2.48632 259.539 4.80321 256.506 7.14399C256.36 7.16789 256.315 7.15054 256.32 7.06003C256.344 4.97074 256.351 2.97192 256.397 0.973234C256.403 0.704966 256.61 0.437351 256.723 0.169434C259.445 0.169435 262.166 0.169435 265.099 0.169434Z" fill="#F6A004"/>
<path d="M374.857 7.29055C374.733 7.30183 374.725 7.27117 374.717 7.11239C374.709 4.71266 374.699 2.44104 374.689 0.169434C377.561 0.169434 380.433 0.169434 383.517 0.169434C380.81 2.52916 377.891 4.88888 374.857 7.29055Z" fill="#65064C"/>
<path d="M286.111 7.11802C285.751 6.94758 285.282 6.80269 285.047 6.6163C282.396 4.50987 279.782 2.39708 277.11 0.227735C279.934 0.169473 282.806 0.169473 285.854 0.247898C286.045 2.59261 286.062 4.85889 286.079 7.12518C286.079 7.12518 286.112 7.12429 286.111 7.11802Z" fill="#F3A305"/>
<path d="M116.85 0.169434C117.053 0.279133 117.136 0.404953 117.022 0.49617C114.281 2.68808 111.518 4.87628 108.618 7.01704C108.472 6.4908 108.494 6.01238 108.458 5.53459C108.323 3.74609 108.169 1.9578 108.023 0.169434C110.895 0.169434 113.767 0.169434 116.85 0.169434Z" fill="#046768"/>
<path d="M167.707 7.12033C167.401 6.97874 166.971 6.85447 166.766 6.69058C164.097 4.5539 161.46 2.41161 158.729 0.220136C161.516 0.169541 164.388 0.169541 167.46 0.248869C167.667 2.59679 167.675 4.86539 167.682 7.13399C167.682 7.13399 167.687 7.11924 167.707 7.12033Z" fill="#67064C"/>
<path d="M226.956 7.12866C226.734 7.06489 226.387 7.01741 226.279 6.92892C223.577 4.72128 220.901 2.50931 218.263 0.233798C220.876 0.16948 223.447 0.16948 226.207 0.240804C226.542 0.756066 226.796 1.19937 226.815 1.64405C226.891 3.47405 226.895 5.30447 226.926 7.13474C226.926 7.13474 226.944 7.12585 226.956 7.12866Z" fill="#046668"/>
<path d="M58.0933 0.169434C55.427 2.47775 52.549 4.78606 49.5785 7.14202C49.4862 7.18967 49.3698 7.15231 49.3151 7.05398C49.257 6.47934 49.2809 6.00274 49.2453 5.52676C49.1119 3.74088 48.9591 1.95519 48.8136 0.169434C51.8362 0.169434 54.8589 0.169434 58.0933 0.169434Z" fill="#64034D"/>
<path d="M107.811 0.169434C108.169 1.9578 108.323 3.74609 108.458 5.53459C108.494 6.01238 108.472 6.4908 108.489 7.04859C108.501 7.12825 108.513 7.12099 108.387 7.12523C108.184 7.12535 108.106 7.12123 108.028 7.11711C105.262 4.84122 102.497 2.56533 99.8088 0.229438C102.458 0.169434 105.029 0.169434 107.811 0.169434Z" fill="#F8A403"/>
<path d="M227.064 7.10614C226.895 5.30443 226.891 3.47401 226.815 1.64401C226.796 1.19932 226.542 0.756019 226.418 0.240757C229.313 0.169433 232.185 0.169433 235.269 0.169434C235.312 0.405781 235.232 0.657616 234.961 0.876065C232.393 2.94648 229.793 5.01122 227.064 7.10614Z" fill="#67064C"/>
<path d="M167.832 7.11358C167.675 4.86528 167.667 2.59669 167.672 0.248762C170.405 0.169434 173.126 0.169434 176.06 0.169434C176.249 0.298797 176.325 0.44554 176.189 0.554958C173.468 2.73698 170.723 4.9147 167.832 7.11358Z" fill="#FAA402"/>
<path d="M48.6021 0.169434C48.9591 1.95519 49.1119 3.74088 49.2453 5.52676C49.2809 6.00274 49.257 6.47934 49.2584 7.03466C48.6389 6.70505 47.9418 6.31025 47.4177 5.88543C45.1254 4.02747 42.8833 2.16081 40.6505 0.233368C43.2488 0.169434 45.8197 0.169434 48.6021 0.169434Z" fill="#046668"/>
<path d="M374.478 0.169434C374.699 2.44104 374.709 4.71266 374.707 7.06628C371.827 4.86446 368.958 2.58062 366.095 0.233108C368.823 0.169434 371.545 0.169434 374.478 0.169434Z" fill="#026769"/>
<path d="M286.213 7.09379C286.062 4.85885 286.045 2.59257 286.065 0.247859C288.823 0.169434 291.545 0.169434 294.478 0.169434C294.317 0.56059 294.025 0.96582 293.559 1.34054C291.179 3.25217 288.755 5.15592 286.213 7.09379Z" fill="#026769"/>
<path d="M345.423 7.09324C345.266 4.85927 345.238 2.59187 345.261 0.246954C348.032 0.169432 350.754 0.169432 353.687 0.169434C353.261 0.763366 352.691 1.36885 351.974 1.94905C349.865 3.65801 347.698 5.35696 345.423 7.09324Z" fill="#026769"/>
<path d="M19.9377 7.15329C19.8066 5.31629 19.7984 3.42449 19.7109 1.5332C19.6917 1.11938 19.3896 0.707403 19.3264 0.232006C22.3071 0.169434 25.1791 0.169434 28.2629 0.169434C25.6604 2.47918 22.8462 4.78892 19.9377 7.15329Z" fill="#036668"/>
<path d="M256.511 0.169434C256.61 0.437351 256.403 0.704965 256.397 0.973233C256.351 2.97192 256.344 4.97074 256.304 7.0494C253.41 4.85157 250.536 2.57386 247.673 0.232791C250.556 0.169434 253.428 0.169434 256.511 0.169434Z" fill="#64044D"/>
<path d="M315.269 0.169434C315.506 2.45948 315.531 4.74953 315.533 7.12517C312.636 4.90597 309.763 2.60119 306.892 0.232921C309.614 0.169434 312.335 0.169434 315.269 0.169434Z" fill="#026769"/>
<path d="M196.399 0.169434C196.803 0.718859 197.143 1.26753 197.163 1.81785C197.226 3.53573 197.168 5.25424 197.115 7.0515C194.203 4.85231 191.332 2.57411 188.468 0.232676C191.045 0.169434 193.616 0.169434 196.399 0.169434Z" fill="#FBA402"/>
<path d="M137.641 0.169434C137.893 2.10448 137.944 4.03952 137.959 5.97459C137.962 6.27798 137.797 6.58154 137.549 6.93007C134.692 4.74753 131.996 2.51994 129.283 0.230891C131.987 0.169434 134.708 0.169434 137.641 0.169434Z" fill="#026769"/>
<path d="M78.4324 0.169434C78.7019 2.28412 78.7666 4.3988 78.7831 6.51353C78.7836 6.57467 78.2738 6.63637 77.8883 6.65316C75.2141 4.50302 72.6537 2.39753 70.0749 0.230732C72.7779 0.169434 75.4993 0.169434 78.4324 0.169434Z" fill="#65054C"/>
<path d="M399.345 0.169434C399.545 1.18512 399.542 2.20081 399.516 3.29291C398.181 2.34225 396.87 1.31517 395.52 0.228767C396.701 0.169434 397.921 0.169434 399.345 0.169434Z" fill="#67064C"/>
<path d="M20.0565 50.1694C19.8427 48.3511 19.8151 46.5326 19.7437 44.7145C19.7229 44.1842 19.5769 43.6547 19.6175 43.0689C19.9272 43.0117 20.1078 43.0103 20.2884 43.0089C20.4559 44.7939 20.6027 46.5793 20.803 48.3638C20.8654 48.9194 21.0724 49.4728 21.2281 50.0983C20.904 50.1694 20.565 50.1694 20.0565 50.1694Z" fill="#66054C"/>
<path d="M316.321 15.3855C317.787 14.666 318.896 13.7511 320.788 13.2644C326.073 11.9052 331.954 11.7172 337.975 12.5974C341.3 13.0836 343.503 14.0055 344.938 15.4289C345.154 15.1295 345.24 15.0112 345.4 14.8405C345.645 14.8857 345.996 14.9959 345.954 15.0786C345.805 15.379 345.523 15.6702 345.09 16.0674C344.728 16.4902 344.432 16.8103 344.429 17.1309C344.394 20.3329 344.422 23.535 344.388 26.737C344.384 27.0905 344.104 27.4435 343.853 27.75C339.366 24.2016 334.977 20.6999 330.404 17.0512C325.683 20.8178 321.205 24.3914 316.646 27.9023C316.506 27.5052 316.394 27.171 316.392 26.8367C316.358 23.0196 316.342 19.2025 316.321 15.3855Z" fill="#64044D"/>
<path d="M399.468 13.0348C399.487 16.9135 399.506 20.7922 399.375 24.7115C396.068 22.2243 392.909 19.6965 389.578 17.0304C384.914 20.7788 380.481 24.3485 376.019 27.9131C375.685 28.1796 375.14 28.409 374.69 28.5724C374.667 28.4342 374.647 28.3792 374.649 28.2619C374.663 27.8393 374.656 27.479 374.65 27.1186C374.681 23.9033 374.722 20.688 374.74 17.4727C374.755 14.6174 378.003 13.0427 385.414 12.3305C390.039 11.8859 394.499 12.0389 398.948 12.9252C399.233 13.0035 399.341 13.0258 399.468 13.0348Z" fill="#046868"/>
<path d="M374.628 28.3242C374.647 28.3792 374.667 28.4342 374.723 28.6501C374.725 30.6196 374.69 32.4283 374.517 34.2191C373.745 33.9873 373.11 33.7734 372.383 33.5142C372.014 33.2255 371.737 32.982 371.49 32.7317C371.519 32.7248 371.527 32.6964 371.527 32.6964C371.527 32.6964 371.458 32.7366 371.36 32.7018C371.182 32.5714 371.103 32.4759 371.103 32.3385C370.372 31.7163 369.56 31.1359 368.637 30.5134C368.163 30.145 367.8 29.8188 367.468 29.4723C367.502 29.3986 367.425 29.3705 367.287 29.3653C367.303 29.363 367.31 29.376 367.335 29.3124C366.957 28.9908 366.555 28.7327 366.056 28.4328C365.824 28.2544 365.687 28.1179 365.596 27.9587C365.521 27.8895 365.402 27.8429 365.193 27.7486C364.822 27.4519 364.541 27.2029 364.314 26.9096C363.906 26.5543 363.444 26.2433 362.898 25.8919C362.689 25.7256 362.564 25.5997 362.433 25.4095C362.193 25.2093 361.96 25.0734 361.643 24.8999C361.408 24.7115 361.257 24.5608 361.158 24.367C360.864 24.128 360.518 23.9321 360.072 23.7465C359.823 23.8097 359.674 23.8626 359.399 23.9564C359.159 24.1126 359.044 24.228 358.927 24.3993C358.43 24.8345 357.936 25.2139 357.302 25.6137C356.541 26.1873 355.919 26.7405 355.278 27.3528C354.791 27.7661 354.323 28.1204 353.714 28.4942C353.098 28.9552 352.624 29.3968 352.135 29.8887C351.977 30.0227 351.833 30.1064 351.674 30.1793C351.658 30.1684 351.587 30.1648 351.587 30.1648C351.587 30.1648 351.691 30.189 351.675 30.2463C351.335 30.5414 351.012 30.7792 350.551 31.0357C350.078 31.3821 349.742 31.7099 349.388 32.097C348.751 32.6241 348.133 33.0918 347.378 33.5784C346.593 33.8107 345.946 34.0242 345.271 34.1588C345.231 32.3255 345.22 30.5711 345.223 28.7952C345.237 28.7737 345.262 28.7306 345.262 28.7306C345.4 28.6752 345.537 28.6199 345.844 28.5128C346.05 28.4045 346.088 28.348 346.126 28.2915C346.258 28.1544 346.389 28.0173 346.768 27.8156C347.327 27.4482 347.639 27.1454 347.951 26.8426C348.669 26.2317 349.387 25.6209 350.34 24.9433C350.912 24.548 351.249 24.2194 351.585 23.8907C351.669 23.7921 351.753 23.6935 352.034 23.5641C352.318 23.4123 352.407 23.2913 352.495 23.1704C352.618 23.0443 352.742 22.9182 353.087 22.7334C353.644 22.3464 353.979 22.0181 354.314 21.6898C354.809 21.2617 355.305 20.8336 356.057 20.3381C356.662 19.9361 357.01 19.6014 357.359 19.2668C357.359 19.2668 357.359 19.2856 357.468 19.2715C357.692 19.1074 357.808 18.9574 357.923 18.8073C358.198 18.5574 358.472 18.3075 359.005 18.0077C359.775 17.8973 360.287 17.8368 360.798 17.7762C361.213 18.0808 361.628 18.3853 362.007 18.7915C362.435 19.2056 362.9 19.518 363.364 19.8304C363.536 19.9451 363.709 20.0598 363.882 20.2696C364.045 20.4517 364.206 20.5388 364.367 20.626C364.791 20.9418 365.215 21.2577 365.589 21.6658C365.726 21.85 365.912 21.9419 366.097 22.0339C366.097 22.0339 366.186 22.067 366.171 22.1566C366.566 22.5143 366.976 22.7826 367.387 23.0508C367.859 23.4056 368.332 23.7604 368.743 24.2163C369.163 24.6296 369.643 24.9419 370.123 25.2541C370.442 25.4869 370.762 25.7197 371.097 26.0756C371.839 26.7314 372.564 27.2642 373.339 27.8214C373.388 27.8457 373.387 27.9068 373.409 27.9655C373.591 28.1246 373.751 28.2251 373.999 28.3187C374.267 28.316 374.448 28.3201 374.628 28.3242Z" fill="#64044D"/>
<path d="M345.234 28.6457C345.262 28.7307 345.237 28.7738 345.127 28.755C344.662 28.423 344.307 28.1099 343.951 27.7967C344.104 27.4435 344.384 27.0905 344.388 26.737C344.422 23.535 344.394 20.3329 344.429 17.1309C344.432 16.8103 344.728 16.4902 345.031 16.1359C345.185 20.2548 345.196 24.4077 345.234 28.6457Z" fill="#66054C"/>
<path d="M373.29 27.7971C372.564 27.2643 371.839 26.7315 371.111 26.1318C371.728 26.4612 372.348 26.8575 373.135 27.3383C373.298 27.5477 373.294 27.6724 373.29 27.7971Z" fill="#66054C"/>
<path d="M373.339 27.8214C373.294 27.6723 373.298 27.5476 373.285 27.3608C373.633 27.246 373.997 27.1932 374.506 27.1295C374.656 27.479 374.663 27.8393 374.649 28.2619C374.448 28.3201 374.267 28.316 373.978 28.2592C373.708 28.1066 373.548 28.0067 373.387 27.9068C373.387 27.9068 373.388 27.8457 373.339 27.8214Z" fill="#FDA401"/>
<path d="M360.776 17.7204C360.287 17.8367 359.775 17.8972 359.103 17.9621C359.24 17.6993 359.538 17.4322 359.944 17.069C360.312 17.3393 360.533 17.5019 360.776 17.7204Z" fill="#66054C"/>
<path d="M370.108 25.1966C369.643 24.9418 369.163 24.6296 368.761 24.2753C369.256 24.5352 369.674 24.8372 370.108 25.1966Z" fill="#66054C"/>
<path d="M363.351 19.7725C362.899 19.518 362.435 19.2056 362.029 18.8491C362.504 19.1082 362.921 19.4115 363.351 19.7725Z" fill="#66054C"/>
<path d="M354.205 21.729C353.979 22.0182 353.644 22.3465 353.173 22.6933C353.39 22.3972 353.743 22.0827 354.205 21.729Z" fill="#66054C"/>
<path d="M357.244 19.3059C357.011 19.6015 356.662 19.9361 356.165 20.2976C356.388 19.998 356.759 19.6715 357.244 19.3059Z" fill="#66054C"/>
<path d="M351.473 23.9287C351.249 24.2194 350.912 24.5481 350.44 24.896C350.657 24.599 351.009 24.2828 351.473 23.9287Z" fill="#66054C"/>
<path d="M367.368 22.993C366.977 22.7825 366.566 22.5143 366.16 22.1797C366.559 22.3873 366.954 22.6613 367.368 22.993Z" fill="#66054C"/>
<path d="M347.83 26.8833C347.639 27.1454 347.327 27.4482 346.864 27.7737C347.045 27.5056 347.377 27.2148 347.83 26.8833Z" fill="#66054C"/>
<path d="M357.816 18.8435C357.808 18.9574 357.692 19.1075 357.443 19.2703C357.442 19.1487 357.575 19.0141 357.816 18.8435Z" fill="#66054C"/>
<path d="M366.094 21.9845C365.912 21.9419 365.726 21.85 365.606 21.7247C365.811 21.7727 365.951 21.854 366.094 21.9845Z" fill="#66054C"/>
<path d="M346.49 14.6718C346.547 14.5661 346.728 14.4276 347.068 14.2706C347.022 14.3811 346.818 14.5101 346.49 14.6718Z" fill="#64044D"/>
<path d="M364.348 20.5759C364.206 20.5389 364.045 20.4518 363.891 20.3195C364.042 20.3581 364.185 20.442 364.348 20.5759Z" fill="#66054C"/>
<path d="M352.397 23.2051C352.407 23.2914 352.318 23.4123 352.132 23.5269C352.122 23.427 352.211 23.3334 352.397 23.2051Z" fill="#66054C"/>
<path d="M349.06 13.5496C349.179 13.4672 349.425 13.3683 349.817 13.2638C349.704 13.3499 349.446 13.4415 349.06 13.5496Z" fill="#64044D"/>
<path d="M350.012 13.2631C350.096 13.2088 350.323 13.1403 350.695 13.0563C350.611 13.1101 350.383 13.1794 350.012 13.2631Z" fill="#64044D"/>
<path d="M399.496 12.9818C399.341 13.0258 399.233 13.0036 399.11 12.9357C399.145 12.8559 399.229 12.8123 399.403 12.744C399.495 12.7868 399.51 12.8578 399.496 12.9818Z" fill="#FDA401"/>
<path d="M346.042 28.3123C346.088 28.348 346.051 28.4045 345.937 28.468C345.834 28.4219 345.867 28.3746 346.042 28.3123Z" fill="#66054C"/>
<path d="M138.025 16.0266C140.02 13.3976 147.601 11.709 155.303 12.1106C161.088 12.4122 165.569 13.2988 167.569 15.5612C167.698 15.5973 167.691 15.5924 167.698 15.6732C167.687 16.4314 167.659 17.1088 167.653 17.7862C167.619 21.4269 167.59 25.0676 167.447 28.6636C162.571 24.8068 157.807 20.9946 152.91 17.0761C152.469 17.3846 152.168 17.5726 151.922 17.7702C148.712 20.3491 145.537 22.934 142.295 25.5071C140.922 26.5967 139.411 27.6621 137.982 28.7331C138.002 28.7276 137.97 28.6977 137.969 28.6042C137.987 24.3494 138.006 20.188 138.025 16.0266Z" fill="#046868"/>
<path d="M137.94 15.9657C138.006 20.188 137.987 24.3494 137.853 28.5409C132.961 24.7725 128.184 20.974 123.244 17.0466C118.598 20.779 114.161 24.3502 109.696 27.9163C109.365 28.1807 108.83 28.4094 108.412 28.5749C108.441 27.4273 108.439 26.3595 108.458 25.2917C108.517 22.0621 108.584 18.8325 108.64 15.5977C108.632 15.5925 108.64 15.6014 108.747 15.5546C109.126 15.2516 109.399 14.9954 109.672 14.7392C109.672 14.7392 109.764 14.7152 109.838 14.6683C110.022 14.5813 110.086 14.5326 110.103 14.4751C110.103 14.4751 110.014 14.4388 110.111 14.439C110.314 14.3773 110.42 14.3155 110.527 14.2536C111.606 13.8943 112.684 13.5351 113.999 13.1172C115.037 12.8956 115.838 12.7327 116.64 12.5699C117.142 12.5184 117.643 12.4669 118.425 12.3873C119.063 12.3099 119.421 12.2604 119.778 12.2109C119.856 12.2146 119.934 12.2183 120.311 12.2137C123.043 12.2041 125.476 12.203 127.909 12.2019C127.909 12.2019 128.112 12.2361 128.318 12.2648C128.772 12.3112 129.019 12.3289 129.265 12.3466C130.056 12.4691 130.847 12.5917 131.849 12.7561C132.164 12.8349 132.288 12.8507 132.431 12.8453C133.342 13.1292 134.254 13.4131 135.357 13.7793C136.167 14.3241 136.786 14.7867 137.406 15.2492C137.555 15.4677 137.705 15.6863 137.94 15.9657Z" fill="#FDA401"/>
<path d="M137.589 15.2229C136.786 14.7867 136.167 14.3242 135.48 13.8071C136.122 13.6966 136.83 13.6406 137.717 13.5719C137.854 14.105 137.814 14.6509 137.589 15.2229Z" fill="#63044D"/>
<path d="M226.887 14.7988C227.153 14.7503 227.387 14.7551 227.748 14.8287C227.526 15.495 226.887 16.0916 226.875 16.6899C226.795 20.6535 226.85 24.6174 226.705 28.5544C226.186 28.2856 225.78 28.0513 225.467 27.8005C221.391 24.5355 217.332 21.2677 213.26 18.0021C212.93 17.7372 212.539 17.483 212.028 17.1179C211.564 17.4577 211.249 17.6721 210.974 17.8933C206.807 21.2355 202.654 24.5803 198.464 27.9184C198.138 28.1788 197.555 28.3941 197.118 28.5614C197.123 28.2609 197.101 28.0294 197.123 27.7284C197.138 27.4223 197.109 27.1857 197.124 26.871C197.158 23.2324 197.151 19.6718 197.143 16.1112C198.748 13.7117 203.326 12.5906 209.418 12.2228C217.547 11.7321 221.417 12.448 226.754 15.3065C226.794 15.1273 226.824 14.9897 226.887 14.7988Z" fill="#FBA302"/>
<path d="M197.035 16.0612C197.151 19.6718 197.158 23.2324 196.958 26.8747C196.222 27.0131 195.695 27.0699 195.065 27.0835C190.857 23.7615 186.751 20.4828 182.467 17.063C181.901 17.493 181.528 17.7636 181.184 18.0396C177.118 21.307 173.064 24.5766 168.979 27.8409C168.605 28.1398 168.043 28.4058 167.573 28.6928C167.578 28.6985 167.56 28.7085 167.56 28.7085C167.59 25.0677 167.619 21.427 167.653 17.7862C167.659 17.1088 167.687 16.4315 167.705 15.6747C171.346 12.236 182.263 11.5906 188.685 12.4047C192.522 12.891 195.468 13.7281 196.653 15.3182C196.749 15.5893 196.838 15.8002 197.035 16.0612Z" fill="#63034D"/>
<path d="M19.8537 28.6975C19.8087 26.471 19.7249 24.2445 19.7299 22.018C19.7345 19.9313 19.8329 17.8447 19.9056 15.6789C22.5709 13.0732 28.1616 12.1914 34.7343 12.1097C41.1947 12.0295 46.4908 12.9085 49.1624 15.3983C49.2997 15.4287 49.4568 15.4262 49.5384 15.4956C49.4968 16.0393 49.2736 16.5134 49.2664 16.9879C49.2103 20.7057 49.1956 24.4235 49.0871 28.1749C48.917 28.2586 48.8281 28.3088 48.6247 28.3162C43.9029 24.5745 39.2956 20.8758 34.4716 17.003C30.9932 19.8466 27.6878 22.5487 24.2762 25.2934C22.8531 26.4344 21.5363 27.5328 20.1151 28.6377C20.0107 28.6442 19.8537 28.6975 19.8537 28.6975Z" fill="#FEA401"/>
<path d="M49.1682 28.1413C49.1956 24.4235 49.2103 20.7056 49.2664 16.9879C49.2736 16.5133 49.4968 16.0393 49.617 15.4943C53.0821 12.265 64.4223 11.425 71.7642 12.6071C74.7081 13.081 76.8858 13.8544 78.2017 15.0757C78.4905 15.3577 78.6971 15.5422 78.9184 15.8149C78.8848 17.1381 78.8165 18.3728 78.7921 19.6077C78.733 22.6117 78.6943 25.6158 78.5337 28.5656C73.6952 24.7277 68.9704 20.9439 64.0792 17.0269C59.4302 20.7648 54.9955 24.3371 50.5332 27.9045C50.2019 28.1693 49.6719 28.3991 49.2321 28.6504C49.23 28.6555 49.2572 28.6572 49.2455 28.5924C49.2118 28.3989 49.19 28.2701 49.1682 28.1413Z" fill="#036868"/>
<path d="M78.9038 15.7267C78.6971 15.5422 78.4905 15.3577 78.2832 15.1273C78.3871 15.0744 78.4923 15.0695 78.6775 15.0691C78.8141 15.1868 78.8713 15.3022 78.908 15.5198C78.8374 15.6604 78.8428 15.6953 78.9038 15.7267Z" fill="#E99C0A"/>
<path d="M286.193 15.6486C289.342 11.9953 303.89 11.1002 311.042 13.1979C312.87 13.7341 313.878 14.6639 315.358 15.4679C315.455 15.5231 315.463 15.5146 315.437 15.5844C315.434 15.8026 315.457 15.951 315.38 16.1589C315.196 16.5506 315.04 16.8827 315.038 17.215C315.02 20.3298 315.049 23.4447 315.002 26.5594C314.995 26.9969 314.646 27.4337 314.344 27.8263C309.817 24.2443 305.402 20.7068 300.815 17.0317C297.806 19.4434 294.975 21.709 292.153 23.9763C290.407 25.3796 288.69 26.7881 286.906 28.1846C286.789 28.2757 286.711 28.8992 285.881 28.2388C285.919 24.1999 285.91 20.2394 285.968 16.2194C286.088 15.9895 286.14 15.819 286.193 15.6486Z" fill="#FEA401"/>
<path d="M315.48 16.0995C315.457 15.9511 315.434 15.8026 315.435 15.58C315.678 15.4799 315.897 15.454 316.218 15.4067C316.342 19.2025 316.358 23.0195 316.392 26.8366C316.394 27.171 316.506 27.5052 316.614 27.9524C316.437 28.2154 316.214 28.3654 315.965 28.4626C315.84 28.3117 315.742 28.2137 315.631 28.0377C315.626 24.1266 315.634 20.2935 315.705 16.4394C315.727 16.3632 315.683 16.308 315.613 16.2126C315.585 16.1724 315.48 16.0995 315.48 16.0995Z" fill="#500256"/>
<path d="M286.16 15.5844C286.14 15.819 286.088 15.9895 285.834 16.2559C285.489 16.6738 285.222 16.9957 285.219 17.3179C285.188 20.4588 285.214 23.5999 285.181 26.7408C285.177 27.0942 284.907 27.4473 284.67 27.7509C280.189 24.2032 275.797 20.705 271.204 17.047C266.529 20.8008 262.116 24.3527 257.669 27.8986C257.334 28.1655 256.753 28.3891 256.301 28.5542C256.333 24.6493 256.337 20.823 256.382 16.9967C256.388 16.4656 256.598 15.9349 256.714 15.4041C256.714 15.4041 256.733 15.4227 256.815 15.3918C257.017 15.2291 257.138 15.0972 257.259 14.9653C261.057 12.4144 270.371 11.5975 277.206 12.3726C281.387 12.8466 284.135 13.8621 285.932 15.3654C286.085 15.4344 286.106 15.4773 286.16 15.5844Z" fill="#63044D"/>
<path d="M257.187 14.9292C257.138 15.0972 257.018 15.2291 256.79 15.3954C256.597 15.2393 256.512 15.0486 256.475 14.8011C256.721 14.7938 256.918 14.8434 257.187 14.9292Z" fill="#026869"/>
<path d="M256.56 15.3868C256.598 15.935 256.388 16.4657 256.382 16.9968C256.337 20.823 256.333 24.6494 256.297 28.5569C256.278 28.6382 256.268 28.6432 256.143 28.6066C251.281 24.77 246.543 20.97 241.627 17.0267C236.951 20.7862 232.513 24.3605 228.047 27.93C227.761 28.1591 227.263 28.3509 226.863 28.5654C226.862 28.5707 226.86 28.5813 226.86 28.5813C226.85 24.6175 226.795 20.6536 226.875 16.69C226.887 16.0917 227.526 15.4951 227.923 14.8338C232.139 12.2633 241.884 11.5082 248.915 12.5482C252.077 13.0159 254.381 13.8179 255.706 15.0047C255.856 15.1394 256.169 15.2485 256.56 15.3868Z" fill="#026869"/>
<path d="M78.9184 15.8151C78.8428 15.6954 78.8374 15.6605 78.9202 15.6087C82.0483 12.654 91.2671 11.6647 98.3373 12.2449C102.361 12.5751 105.517 13.3474 107.62 14.8365C108.044 15.1612 108.346 15.382 108.647 15.6029C108.584 18.8325 108.517 22.0621 108.458 25.2918C108.439 26.3595 108.441 27.4274 108.397 28.5787C108.361 28.6621 108.33 28.6692 108.226 28.6273C103.38 24.8003 98.6382 21.0153 93.6762 17.0547C91.991 18.3995 90.5374 19.5654 89.0704 20.729C85.6679 23.4277 82.259 26.1252 78.7903 28.8048C78.701 28.7309 78.6742 28.6754 78.6474 28.6199C78.6943 25.6159 78.733 22.6118 78.7921 19.6078C78.8164 18.3729 78.8847 17.1382 78.9184 15.8151Z" fill="#63044D"/>
<path d="M109.493 14.7038C109.399 14.9954 109.126 15.2516 108.69 15.4706C108.476 15.2044 108.424 14.9754 108.373 14.7465C108.401 14.718 108.429 14.6896 108.501 14.6189C108.802 14.6072 109.058 14.6378 109.493 14.7038Z" fill="#63044D"/>
<path d="M108.197 14.7626C108.424 14.9755 108.476 15.2044 108.583 15.5174C108.64 15.6014 108.632 15.5926 108.64 15.5977C108.346 15.382 108.044 15.1612 107.709 14.8796C107.791 14.8055 107.906 14.7921 108.197 14.7626Z" fill="#0B6866"/>
<path d="M108.07 7.14804C108.106 7.12132 108.184 7.12544 108.378 7.12271C108.495 7.11587 108.459 7.19913 108.413 7.23745C108.262 7.25076 108.177 7.21846 108.07 7.14804Z" fill="#0B6866"/>
<path d="M127.801 12.1502C125.476 12.203 123.043 12.2041 120.421 12.1975C122.673 11.6305 125.174 11.7619 127.801 12.1502Z" fill="#63044D"/>
<path d="M116.531 12.5385C115.838 12.7327 115.037 12.8956 114.084 13.0723C114.763 12.8931 115.592 12.7001 116.531 12.5385Z" fill="#63044D"/>
<path d="M119.677 12.1797C119.421 12.2604 119.063 12.3099 118.562 12.3586C118.804 12.288 119.19 12.2182 119.677 12.1797Z" fill="#63044D"/>
<path d="M129.23 12.3066C129.019 12.3288 128.772 12.3111 128.429 12.262C128.62 12.2426 128.907 12.2547 129.23 12.3066Z" fill="#63044D"/>
<path d="M132.414 12.8171C132.288 12.8507 132.164 12.8349 132.008 12.7658C132.102 12.7521 132.25 12.7704 132.414 12.8171Z" fill="#63044D"/>
<path d="M110.408 14.2825C110.42 14.3154 110.314 14.3773 110.063 14.456C110.042 14.419 110.165 14.3652 110.408 14.2825Z" fill="#63044D"/>
<path d="M109.995 14.4938C110.086 14.5325 110.022 14.5812 109.825 14.6476C109.788 14.6201 109.838 14.5663 109.995 14.4938Z" fill="#63044D"/>
<path d="M108.332 43.0825C105.601 39.7565 96.8188 39.2317 89.8184 39.805C84.5817 40.2339 80.639 41.2882 78.9256 43.3685C78.7731 43.2598 78.6722 43.0873 78.6453 42.7774C78.7428 42.219 78.7725 41.7981 78.7883 41.377C78.8641 39.3566 78.9361 37.3363 79.0079 35.3212C79.0062 35.3264 79.0205 35.3426 79.103 35.2834C83.9536 31.4211 88.7218 27.618 93.7036 23.6445C96.5753 25.9561 99.1667 28.0771 101.841 30.1833C103.995 31.8803 106.249 33.5594 108.5 35.2592C108.542 35.2721 108.626 35.2972 108.603 35.3469C108.572 35.4622 108.562 35.528 108.516 35.672C108.502 37.788 108.525 39.8258 108.51 41.9382C108.425 42.3695 108.379 42.726 108.332 43.0825Z" fill="#63044D"/>
<path d="M79.0095 35.316C78.9361 37.3363 78.8641 39.3567 78.7883 41.377C78.7725 41.7981 78.7428 42.2191 78.6758 42.7248C73.7956 39.3464 61.1686 38.4468 53.2753 41.0754C51.6292 41.6235 50.7404 42.4915 49.3884 43.2625C49.2739 43.2367 49.2737 43.1605 49.2482 42.9498C49.2035 42.611 49.184 42.4067 49.2004 42.124C49.2429 39.8259 49.2496 37.6062 49.3772 35.353C54.3029 31.4812 59.1078 27.6429 64.0376 23.7048C64.4597 23.9907 64.7704 24.1746 65.0141 24.3701C69.2423 27.763 73.4552 31.1586 77.6972 34.549C78.0383 34.8216 78.5677 35.0611 79.0095 35.316Z" fill="#026868"/>
<path d="M347.515 33.5595C348.133 33.0918 348.751 32.6241 349.49 32.0558C349.971 31.6424 350.33 31.3297 350.689 31.017C351.012 30.7792 351.335 30.5414 351.647 30.2391C351.635 30.1748 351.69 30.1901 351.69 30.1901C351.833 30.1064 351.977 30.0226 352.242 29.8479C352.86 29.3295 353.358 28.9021 353.855 28.4747C354.323 28.1204 354.79 27.7661 355.391 27.3137C356.163 26.6748 356.802 26.134 357.442 25.5932C357.936 25.2138 358.43 24.8345 359.051 24.3578C359.294 24.1455 359.409 24.0305 359.525 23.9154C359.674 23.8625 359.823 23.8097 360.114 23.7992C360.539 24.0311 360.822 24.2206 361.105 24.4101C361.257 24.5608 361.408 24.7115 361.676 24.9597C362.008 25.1961 362.224 25.3349 362.439 25.4738C362.564 25.5996 362.689 25.7255 362.914 25.9493C363.429 26.3494 363.844 26.6517 364.259 26.9539C364.541 27.2029 364.822 27.4518 365.195 27.7866C365.324 27.926 365.412 27.9623 365.551 27.9813C365.687 28.1178 365.824 28.2544 366.072 28.4893C366.559 28.8505 366.934 29.1132 367.31 29.3759C367.31 29.3759 367.303 29.3629 367.305 29.4008C367.307 29.4387 367.437 29.4926 367.437 29.4926C367.8 29.8187 368.163 30.1449 368.663 30.5728C369.542 31.2431 370.282 31.8117 371.023 32.3803C371.103 32.4758 371.182 32.5714 371.394 32.6905C371.526 32.7141 371.46 32.7385 371.46 32.7385C371.737 32.982 372.014 33.2254 372.403 33.5738C373.297 34.1789 374.078 34.6791 374.872 35.2636C374.807 37.4635 374.73 39.5791 374.516 41.6967C374.043 41.7411 373.706 41.7835 373.369 41.826C367.445 39.338 357.634 38.8125 350.435 40.7332C348.481 41.2547 347.286 42.1767 345.58 43.0283C345.333 43.1846 345.247 43.2274 345.161 43.2702C345.136 43.217 345.111 43.1638 345.102 42.9476C345.191 40.2765 345.263 37.7684 345.324 35.2586C345.311 35.2568 345.319 35.2662 345.468 35.2178C345.567 34.9843 345.517 34.7991 345.395 34.6524C345.392 34.709 345.461 34.7269 345.692 34.7764C346.408 34.3918 346.962 33.9756 347.515 33.5595Z" fill="#FEA401"/>
<path d="M345.336 35.2604C345.264 37.7685 345.191 40.2766 345.058 42.8683C343.084 40.9193 339.098 39.863 333.528 39.6696C326.68 39.4317 320.651 40.0155 316.541 42.3105C316.403 40.3658 316.413 38.4656 316.365 36.5656C316.357 36.2402 316.102 35.9157 315.874 35.5836C315.788 35.5766 315.61 35.5736 315.568 35.535C315.525 35.4964 315.383 35.4321 315.396 35.3885C315.427 35.3167 315.446 35.2883 315.605 35.2335C316.033 35.0465 316.381 34.8967 316.597 34.7238C319.246 32.6075 321.873 30.4873 324.512 28.3692C326.402 26.852 328.302 25.3364 330.36 23.6899C330.863 24.0567 331.179 24.2703 331.454 24.491C335.591 27.8079 339.714 31.1274 343.873 34.4404C344.243 34.7346 344.843 34.988 345.336 35.2604Z" fill="#64034D"/>
<path d="M315.961 35.5907C316.102 35.9156 316.357 36.2402 316.365 36.5656C316.413 38.4656 316.403 40.3658 316.426 42.3504C316.349 42.5652 316.257 42.6956 316.052 42.8137C315.843 42.7062 315.747 42.6109 315.637 42.4384C315.629 40.2808 315.635 38.2005 315.722 36.0742C315.856 35.8824 315.909 35.7366 315.961 35.5907Z" fill="#500256"/>
<path d="M315.651 42.5155C315.747 42.6108 315.843 42.7062 315.963 42.8527C315.906 43.0552 315.824 43.2065 315.662 43.4088C315.405 43.2982 315.227 43.1366 315.172 42.8764C315.413 42.6903 315.532 42.6029 315.651 42.5155Z" fill="#993B32"/>
<path d="M345.161 43.2916C345.247 43.2275 345.333 43.1846 345.584 43.0905C345.653 43.1318 345.557 43.2246 345.365 43.3524C345.206 43.3678 345.171 43.3429 345.161 43.2916Z" fill="#64034D"/>
<path d="M197.256 43.1991C197.134 43.1732 197.122 43.1065 197.126 42.9071C197.136 40.3469 197.131 37.9196 197.244 35.4491C202.185 31.5441 207.009 27.6823 211.992 23.6936C212.503 24.0561 212.831 24.2663 213.105 24.486C217.267 27.8271 221.414 31.1708 225.594 34.5088C225.931 34.7778 226.479 35.0095 226.915 35.3376C226.868 37.9478 226.835 40.4789 226.803 43.01C221.898 39.6772 213.322 38.6556 204.267 40.3003C200.911 40.9099 198.692 41.8745 197.256 43.1991Z" fill="#FDA401"/>
<path d="M226.797 43.0055C226.835 40.4789 226.868 37.9478 226.897 35.3364C226.894 35.2562 226.888 35.2698 227.03 35.2418C231.941 31.4046 236.71 27.5954 241.651 23.6498C244.687 26.09 247.521 28.3883 250.406 30.6777C252.357 32.2266 254.38 33.763 256.367 35.3811C256.322 37.9747 256.281 40.4922 256.239 43.0096C254.076 40.5751 249.103 39.6297 242.748 39.6111C235.87 39.5909 230.087 40.4293 226.936 42.9994C226.773 42.9944 226.792 43.001 226.797 43.0055Z" fill="#026868"/>
<path d="M138.074 43.4085C138.015 43.3219 137.98 43.1901 137.948 42.9163C137.696 42.5781 137.442 42.382 137.187 42.1859L137.246 42.1259C137.246 42.1259 137.104 42.0902 137.24 42.1864C137.521 42.2376 137.665 42.1927 137.888 42.1054C137.942 41.996 137.917 41.929 137.94 41.7844C137.981 39.6184 137.974 37.5301 138.069 35.3984C143.032 31.4939 147.894 27.6327 152.894 23.6613C157.506 27.3671 161.944 30.941 166.41 34.51C166.744 34.7771 167.277 35.0095 167.699 35.3371C167.679 37.9624 167.675 40.5087 167.647 43.0614C167.622 43.0677 167.569 43.0794 167.569 43.0794C164.857 40.6279 160.274 39.5096 153.265 39.5891C145.473 39.6775 140.316 40.9608 138.074 43.4085Z" fill="#046868"/>
<path d="M168.126 43.0459C168.055 43.1846 167.985 43.3234 167.835 43.5063C167.691 43.4336 167.625 43.3166 167.564 43.1395C167.569 43.0794 167.622 43.0677 167.761 43.0633C167.976 43.0545 168.051 43.0502 168.126 43.0459Z" fill="#046868"/>
<path d="M256.221 43.0451C256.281 40.4922 256.322 37.9747 256.356 35.3714C256.348 35.2854 256.403 35.2807 256.503 35.2455C256.808 35.0645 257.014 34.9185 257.325 34.7287C261.945 31.0787 266.459 27.4727 271.15 23.7257C271.692 24.085 271.976 24.247 272.193 24.4208C276.401 27.7932 280.594 31.1682 284.815 34.5383C285.122 34.7836 285.618 34.9959 286.065 35.238C286.105 35.2526 286.188 35.2799 286.15 35.3568C286.057 37.7406 286.001 40.0475 285.876 42.3965C285.747 42.536 285.688 42.6332 285.63 42.7304C283.021 40.4032 277.976 39.5712 271.67 39.6278C265.169 39.6862 259.693 40.4732 256.901 42.9151C256.813 42.992 256.665 43.0593 256.444 43.1727C256.254 43.1759 256.208 43.1314 256.221 43.0451Z" fill="#63034D"/>
<path d="M285.637 42.7951C285.688 42.6332 285.747 42.536 285.924 42.4531C286.19 42.65 286.337 42.8326 286.485 43.0151C286.408 43.1816 286.331 43.348 286.164 43.5716C285.931 43.3725 285.787 43.1162 285.637 42.7951Z" fill="#993B32"/>
<path d="M137.967 35.4417C137.974 37.53 137.981 39.6184 137.866 41.8279C137.766 42.0153 137.788 42.0815 137.81 42.1476C137.665 42.1926 137.521 42.2375 137.178 42.208C136.697 41.9695 136.415 41.8055 136.057 41.5387C135.745 41.3523 135.508 41.2686 135.27 41.185C134.67 40.9977 134.07 40.8105 133.346 40.5193C132.1 40.2322 130.98 40.0491 129.859 39.8659C129.859 39.8659 129.802 39.8852 129.682 39.8342C129.005 39.7494 128.447 39.7157 127.888 39.682C127.41 39.6711 126.931 39.6602 126.195 39.5789C124.635 39.5414 123.332 39.5745 122.03 39.6076C121.416 39.6381 120.803 39.6686 119.923 39.6694C119.394 39.694 119.131 39.7483 118.868 39.8026C118.798 39.8155 118.728 39.8284 118.459 39.8135C118.01 39.8431 117.76 39.9005 117.511 39.958C117.442 39.9726 117.373 39.9872 117.072 39.9749C116.342 40.0623 115.845 40.1766 115.348 40.2909C115.284 40.3263 115.196 40.3483 114.843 40.3571C114.223 40.4681 113.844 40.5791 113.464 40.69C113.464 40.69 113.456 40.6787 113.333 40.694C113.013 40.7785 112.815 40.8477 112.618 40.9168C112.618 40.9168 112.632 40.8904 112.514 40.8995C112.161 41.0181 111.926 41.1278 111.692 41.2374C111.677 41.2875 111.614 41.3262 111.262 41.3766C110.772 41.5515 110.521 41.7034 110.27 41.8553C110.27 41.8553 110.285 41.8624 110.102 41.8621C109.462 41.8624 109.005 41.8629 108.549 41.8634C108.525 39.8257 108.502 37.788 108.649 35.6525C109.141 35.2265 109.462 34.8982 109.808 34.5104C110.447 33.9843 111.061 33.5178 111.807 33.0349C112.133 32.8024 112.327 32.5862 112.543 32.3106C113.18 31.7834 113.796 31.3159 114.553 30.8279C115.311 30.2531 115.928 29.6985 116.564 29.0914C116.723 28.9483 116.861 28.8577 117.098 28.775C117.283 28.6603 117.37 28.5379 117.469 28.3653C117.653 28.1989 117.826 28.0827 118.107 27.9552C118.286 27.8387 118.358 27.7335 118.446 27.5727C118.645 27.385 118.829 27.253 119.085 27.1145C119.197 27.053 119.237 26.9979 119.291 26.8946C119.439 26.765 119.572 26.6837 119.805 26.5645C119.998 26.4274 120.091 26.3282 120.201 26.1733C120.533 25.8865 120.848 25.6554 121.306 25.4022C121.741 25.0929 122.035 24.8057 122.321 24.5243C122.313 24.5302 122.285 24.5219 122.349 24.5196C122.413 24.5172 122.517 24.4674 122.517 24.4674C122.517 24.4674 122.45 24.4051 122.461 24.3603C122.515 24.2903 122.558 24.265 122.752 24.2522C123.305 24.3028 123.706 24.341 124.177 24.405C124.325 24.4744 124.348 24.5217 124.24 24.6147C124.639 24.969 125.116 25.2815 125.688 25.6412C126.207 26.0498 126.631 26.4112 126.997 26.8165C127.402 27.1726 127.865 27.4848 128.415 27.836C128.624 27.9995 128.747 28.1241 128.86 28.293C129.011 28.4238 129.171 28.5102 129.435 28.6387C129.763 28.8926 129.986 29.1046 130.153 29.3611C130.62 29.7656 131.143 30.1257 131.64 30.4857C131.614 30.4857 131.618 30.4662 131.631 30.5201C131.803 30.6597 131.963 30.7454 132.223 30.8741C132.818 31.345 133.311 31.7728 133.73 32.2418C134.133 32.5957 134.611 32.9084 135.185 33.266C135.552 33.5576 135.822 33.8043 136.062 34.0567C136.032 34.0624 136.029 34.0896 136.029 34.0896C136.029 34.0896 136.089 34.0484 136.188 34.0829C136.373 34.2116 136.459 34.3059 136.487 34.4416C136.746 34.6849 137.063 34.8867 137.392 35.0889C137.404 35.0893 137.389 35.0962 137.426 35.1467C137.631 35.2786 137.799 35.3601 137.967 35.4417Z" fill="#FFA500"/>
<path d="M108.51 41.9382C109.005 41.8629 109.462 41.8624 110.09 41.8611C109.724 42.3084 109.187 42.7565 108.574 43.2485C108.506 43.2421 108.482 43.1939 108.379 43.1152C108.379 42.7259 108.425 42.3694 108.51 41.9382Z" fill="#F8A203"/>
<path d="M122.233 39.6166C123.332 39.5746 124.635 39.5415 126.021 39.5608C124.882 39.6173 123.659 39.6214 122.233 39.6166Z" fill="#F8A203"/>
<path d="M129.976 39.9102C130.98 40.0491 132.1 40.2322 133.265 40.4739C132.237 40.3398 131.165 40.1471 129.976 39.9102Z" fill="#F8A203"/>
<path d="M115.504 40.2798C115.845 40.1766 116.342 40.0623 116.954 39.9763C116.599 40.0927 116.129 40.1807 115.504 40.2798Z" fill="#F8A203"/>
<path d="M128.02 39.718C128.447 39.7157 129.005 39.7494 129.655 39.8242C129.215 39.8282 128.683 39.7911 128.02 39.718Z" fill="#F8A203"/>
<path d="M113.606 40.6781C113.844 40.5792 114.223 40.4682 114.762 40.3569C114.531 40.4598 114.139 40.563 113.606 40.6781Z" fill="#F8A203"/>
<path d="M110.388 41.827C110.521 41.7034 110.772 41.5515 111.173 41.3877C111.051 41.5168 110.779 41.6577 110.388 41.827Z" fill="#F8A203"/>
<path d="M111.818 41.2162C111.926 41.1279 112.161 41.0182 112.548 40.9031C112.448 40.9967 112.196 41.0958 111.818 41.2162Z" fill="#F8A203"/>
<path d="M137.186 42.2545C137.442 42.3821 137.696 42.5782 137.91 42.8651C137.641 42.745 137.413 42.534 137.186 42.2545Z" fill="#F8A203"/>
<path d="M117.634 39.9558C117.76 39.9006 118.01 39.8431 118.342 39.8107C118.202 39.875 117.98 39.9143 117.634 39.9558Z" fill="#F8A203"/>
<path d="M118.997 39.8055C119.131 39.7484 119.394 39.6941 119.737 39.6691C119.586 39.735 119.356 39.7717 118.997 39.8055Z" fill="#F8A203"/>
<path d="M135.316 41.2278C135.508 41.2687 135.745 41.3523 136.012 41.4828C135.815 41.4432 135.589 41.3568 135.316 41.2278Z" fill="#F8A203"/>
<path d="M112.749 40.9016C112.815 40.8477 113.013 40.7786 113.346 40.6976C113.281 40.7527 113.08 40.8195 112.749 40.9016Z" fill="#F8A203"/>
<path d="M374.652 41.6947C374.73 39.5791 374.807 37.4636 374.849 35.2622C374.812 35.1765 374.817 35.1933 374.975 35.1735C379.905 31.3705 384.678 27.5873 389.605 23.6815C390.147 24.1038 390.471 24.355 390.792 24.6068C393.694 26.887 396.596 29.1672 399.498 31.4474C399.509 34.4171 399.521 37.3868 399.503 40.4354C394.386 39.4136 389.044 39.3345 383.596 40.0257C379.383 40.5601 376.331 41.5834 374.838 43.2495C374.628 43.081 374.516 42.879 374.484 42.5949C374.593 42.2401 374.623 41.9674 374.652 41.6947Z" fill="#036868"/>
<path d="M374.516 41.6967C374.623 41.9673 374.593 42.2401 374.405 42.5483C374 42.3667 373.755 42.1497 373.439 41.8793C373.706 41.7835 374.043 41.7411 374.516 41.6967Z" fill="#FAA402"/>
<path d="M286.509 42.9556C286.337 42.8326 286.19 42.65 285.994 42.4109C286.001 40.0475 286.057 37.7406 286.258 35.3145C291.148 31.3963 295.894 27.5974 300.825 23.6492C302.414 24.925 303.762 26.0212 305.14 27.1118C308.577 29.831 312.028 32.5476 315.48 35.2618C315.486 35.2582 315.465 35.2599 315.465 35.2599C315.446 35.2883 315.427 35.3166 315.314 35.4504C315.156 37.3187 315.12 39.0819 315.006 40.8444C314.979 41.256 314.686 41.6653 314.516 42.0756C309.142 38.6842 295.356 39.1536 289.83 41.1171C288.462 41.6034 287.618 42.2975 286.509 42.9556Z" fill="#FEA401"/>
<path d="M314.541 42.132C314.686 41.6652 314.979 41.256 315.006 40.8443C315.12 39.0819 315.156 37.3187 315.302 35.4939C315.383 35.432 315.525 35.4964 315.524 35.6026C315.561 35.8459 315.601 35.983 315.64 36.1201C315.635 38.2005 315.629 40.2808 315.637 42.4383C315.532 42.6029 315.413 42.6903 315.196 42.8102C314.921 42.6246 314.743 42.4065 314.541 42.132Z" fill="#FEB501"/>
<path d="M168.149 42.9859C168.051 43.0503 167.976 43.0546 167.786 43.057C167.675 40.5088 167.679 37.9625 167.694 35.3416C167.705 35.267 167.68 35.2644 167.805 35.2288C172.712 31.4046 177.493 27.6161 182.476 23.6676C184.152 25.0062 185.637 26.1985 187.136 27.3884C190.442 30.013 193.755 32.6363 197.079 35.3182C197.105 35.4149 197.116 35.4536 197.127 35.4923C197.131 37.9196 197.136 40.347 197.098 42.8584C194.521 40.4441 189.319 39.5338 182.624 39.6325C176.25 39.7266 170.801 40.4785 168.149 42.9859Z" fill="#63034D"/>
<path d="M49.2564 35.3865C49.2497 37.6062 49.2429 39.8259 49.0652 42.124C48.7139 42.2031 48.5336 42.2037 48.3533 42.2044C43.1999 38.6322 28.6882 39.1315 23.1971 41.2237C21.9805 41.6873 21.2445 42.3282 20.2878 42.9482C20.1078 43.0104 19.9272 43.0118 19.6193 42.9932C19.492 42.9733 19.5263 42.9163 19.5095 42.9049C19.5671 41.0429 19.6385 39.1922 19.7177 37.3416C19.7453 36.6966 19.7922 36.0517 19.8551 35.3273C19.88 35.2477 19.8542 35.2533 19.9671 35.227C20.3077 34.99 20.5355 34.7792 20.8475 34.5314C21.2142 34.2435 21.4967 33.9926 21.8875 33.7005C26.1166 30.3616 30.2375 27.0639 34.5023 23.651C35.6358 24.5564 36.5869 25.3195 37.5457 26.0812C41.4485 29.1821 45.3537 32.2825 49.2535 35.3825C49.249 35.3819 49.2564 35.3865 49.2564 35.3865Z" fill="#FEA401"/>
<path d="M48.3687 42.2639C48.5336 42.2037 48.7139 42.203 49.0294 42.2023C49.184 42.4066 49.2035 42.611 49.2266 42.8933C48.9482 42.7553 48.6662 42.5394 48.3687 42.2639Z" fill="#F8A403"/>
<path d="M21.7792 33.7417C21.4967 33.9926 21.2142 34.2435 20.6188 34.5329C20.1536 34.5734 20.0013 34.5753 19.8489 34.5772C19.8185 32.7245 19.7882 30.8717 19.7653 28.9437C19.7889 28.8401 19.805 28.8118 19.8374 28.7405C19.8537 28.6975 20.0107 28.6442 20.2663 28.6162C21.8166 27.8158 23.1113 27.0434 24.4964 26.2279C24.6771 26.0441 24.7674 25.9035 24.8579 25.7204C24.8585 25.6495 24.8587 25.6212 25.0044 25.5748C26.3721 24.7338 27.6861 23.9278 28.7948 23.0839C30.4174 21.8488 31.8711 20.5826 33.4546 19.3401C33.6867 19.158 34.2376 19.033 34.641 18.8816C35.0178 19.0669 35.4451 19.2409 35.7615 19.4398C36.5908 19.9609 37.3772 20.4918 38.1674 21.0216C38.3378 21.1358 38.4552 21.2614 38.5919 21.3825C40.2095 22.8155 41.5619 24.3018 43.5157 25.6671C45.5553 27.0925 47.2003 28.5266 47.4457 30.1508C47.5236 30.6662 47.4579 31.1848 47.4579 31.7019C47.249 31.7149 47.0401 31.7279 46.8312 31.7409C46.4252 31.5212 45.9252 31.318 45.6279 31.0792C42.8738 28.8676 40.1709 26.6471 37.4105 24.4367C36.9089 24.0351 36.3504 23.6214 35.5713 23.2965C34.71 22.9373 33.6158 22.9832 32.9818 23.4349C31.7933 24.2816 30.6643 25.141 29.5843 26.008C27.9543 27.3165 26.213 28.6111 24.8454 29.9582C23.5977 31.1872 22.7841 32.4781 21.7792 33.7417Z" fill="#64034D"/>
<path d="M19.8226 34.6454C20.0013 34.5753 20.1536 34.5734 20.5346 34.5699C20.5355 34.7792 20.3077 34.9899 19.9741 35.2319C19.8443 35.0799 19.8202 34.8967 19.8226 34.6454Z" fill="#66054C"/>
<path d="M399.527 31.3619C396.596 29.1672 393.694 26.8869 390.792 24.6068C390.471 24.355 390.147 24.1038 389.605 23.6815C384.678 27.5873 379.905 31.3705 374.939 35.0946C374.716 34.7693 374.686 34.5032 374.656 34.237C374.69 32.4283 374.725 30.6196 374.727 28.7333C375.14 28.409 375.685 28.1796 376.019 27.9131C380.481 24.3486 384.914 20.7788 389.578 17.0304C392.909 19.6965 396.068 22.2243 399.347 24.7963C399.498 26.9858 399.527 29.1311 399.527 31.3619Z" fill="#FAA402"/>
<path d="M345.324 35.2586C344.843 34.988 344.243 34.7345 343.873 34.4403C339.714 31.1273 335.591 27.8079 331.454 24.491C331.179 24.2703 330.863 24.0567 330.36 23.6899C328.302 25.3364 326.402 26.8519 324.512 28.3692C321.873 30.4873 319.246 32.6075 316.597 34.7238C316.381 34.8967 316.033 35.0464 315.605 35.2334C315.465 35.26 315.487 35.2582 315.51 35.1823C315.535 33.0279 315.535 30.9495 315.63 28.8348C315.813 28.7042 315.902 28.6098 315.992 28.5154C316.215 28.3654 316.437 28.2154 316.693 28.0152C321.205 24.3914 325.683 20.8177 330.404 17.0511C334.977 20.6998 339.366 24.2016 343.853 27.75C344.307 28.1098 344.662 28.423 345.113 28.7764C345.22 30.5711 345.231 32.3255 345.261 34.2458C345.363 34.5227 345.446 34.6338 345.529 34.7449C345.461 34.727 345.392 34.709 345.324 34.7319C345.322 34.9372 345.321 35.1017 345.319 35.2662C345.319 35.2662 345.312 35.2569 345.324 35.2586Z" fill="#036668"/>
<path d="M371.103 32.3384C370.282 31.8117 369.542 31.2431 368.774 30.615C369.56 31.1359 370.372 31.7163 371.103 32.3384Z" fill="#66054C"/>
<path d="M374.517 34.2192C374.686 34.5032 374.716 34.7694 374.782 35.1144C374.817 35.1933 374.812 35.1765 374.836 35.1779C374.078 34.6792 373.297 34.179 372.496 33.6191C373.11 33.7734 373.745 33.9874 374.517 34.2192Z" fill="#66054C"/>
<path d="M357.302 25.6136C356.803 26.134 356.163 26.6748 355.41 27.2546C355.919 26.7405 356.541 26.1873 357.302 25.6136Z" fill="#66054C"/>
<path d="M353.714 28.4941C353.358 28.9021 352.86 29.3295 352.256 29.7977C352.624 29.3968 353.098 28.9552 353.714 28.4941Z" fill="#66054C"/>
<path d="M345.692 34.7765C345.446 34.6338 345.363 34.5227 345.29 34.3246C345.946 34.0242 346.593 33.8107 347.378 33.5784C346.962 33.9757 346.408 34.3919 345.692 34.7765Z" fill="#66054C"/>
<path d="M350.551 31.0356C350.33 31.3298 349.971 31.6425 349.509 31.9964C349.743 31.7099 350.078 31.3821 350.551 31.0356Z" fill="#66054C"/>
<path d="M364.314 26.9096C363.844 26.6517 363.429 26.3494 362.998 25.9897C363.444 26.2433 363.906 26.5543 364.314 26.9096Z" fill="#66054C"/>
<path d="M367.335 29.3124C366.934 29.1132 366.559 28.8505 366.168 28.5312C366.555 28.7327 366.957 28.9908 367.335 29.3124Z" fill="#66054C"/>
<path d="M361.158 24.3671C360.822 24.2207 360.539 24.0312 360.214 23.7889C360.518 23.9321 360.864 24.1281 361.158 24.3671Z" fill="#66054C"/>
<path d="M362.433 25.4096C362.224 25.335 362.008 25.1962 361.76 24.9974C361.96 25.0735 362.193 25.2094 362.433 25.4096Z" fill="#66054C"/>
<path d="M365.596 27.9587C365.412 27.9624 365.324 27.9261 365.285 27.8344C365.402 27.8429 365.522 27.8894 365.596 27.9587Z" fill="#66054C"/>
<path d="M359.399 23.9564C359.409 24.0306 359.294 24.1456 359.054 24.302C359.044 24.2281 359.159 24.1127 359.399 23.9564Z" fill="#66054C"/>
<path d="M373.409 27.9655C373.548 28.0067 373.708 28.1065 373.89 28.266C373.751 28.225 373.591 28.1246 373.409 27.9655Z" fill="#66054C"/>
<path d="M371.492 32.7248C371.458 32.7358 371.526 32.6964 371.526 32.6964C371.526 32.6964 371.519 32.7242 371.49 32.7309C371.461 32.7377 371.525 32.7137 371.492 32.7248Z" fill="#66054C"/>
<path d="M351.662 30.1822C351.69 30.1894 351.587 30.1648 351.587 30.1648C351.587 30.1648 351.657 30.1685 351.673 30.1795C351.689 30.1906 351.635 30.175 351.662 30.1822Z" fill="#66054C"/>
<path d="M367.468 29.4724C367.437 29.4927 367.307 29.4388 367.289 29.4033C367.425 29.3706 367.502 29.3987 367.468 29.4724Z" fill="#66054C"/>
<path d="M374.015 28.7308C374.006 28.7343 374.023 28.7272 374.015 28.7308V28.7308Z" fill="#66054C"/>
<path d="M138.069 35.3984C137.799 35.3602 137.631 35.2787 137.616 35.1188C137.834 32.9398 137.898 30.8392 137.963 28.7385C139.411 27.6621 140.922 26.5968 142.295 25.5071C145.537 22.9341 148.712 20.3492 151.922 17.7703C152.168 17.5726 152.469 17.3846 152.91 17.0762C157.807 20.9947 162.571 24.8068 167.447 28.6637C167.56 28.7085 167.578 28.6985 167.598 28.7683C167.639 30.9801 167.66 33.1223 167.68 35.2644C167.68 35.2644 167.705 35.267 167.711 35.2626C167.277 35.0096 166.744 34.7772 166.41 34.51C161.944 30.941 157.506 27.3672 152.894 23.6613C147.894 27.6327 143.032 31.4939 138.069 35.3984Z" fill="#F8A203"/>
<path d="M137.982 28.7331C137.898 30.8391 137.834 32.9397 137.579 35.0683C137.389 35.0963 137.404 35.0893 137.38 35.0338C137.086 34.7856 136.815 34.5929 136.545 34.4002C136.459 34.3059 136.373 34.2117 136.164 34.0893C136.041 34.0612 136.092 34.051 136.092 34.051C135.822 33.8043 135.552 33.5576 135.169 33.2086C134.64 32.8044 134.223 32.5025 133.805 32.2006C133.311 31.7728 132.818 31.345 132.198 30.8222C131.92 30.6401 131.769 30.5532 131.618 30.4662C131.618 30.4662 131.614 30.4857 131.616 30.4256C131.148 30.0158 130.678 29.6662 130.209 29.3166C129.986 29.1046 129.763 28.8927 129.42 28.5887C129.156 28.4141 129.013 28.3314 128.869 28.2487C128.747 28.1241 128.624 27.9995 128.402 27.7782C127.887 27.3785 127.471 27.0756 127.056 26.7726C126.631 26.4112 126.207 26.0499 125.673 25.5838C125.148 25.177 124.733 24.8749 124.318 24.5728C124.348 24.5217 124.325 24.4744 124.139 24.3509C123.806 24.1153 123.581 23.9597 123.207 23.7009C122.923 23.9532 122.762 24.0965 122.601 24.2398C122.558 24.2651 122.515 24.2903 122.395 24.3847C122.319 24.4538 122.285 24.5219 122.285 24.5219C122.285 24.5219 122.313 24.5303 122.208 24.5624C121.791 24.871 121.477 25.1476 121.163 25.4242C120.848 25.6554 120.533 25.8865 120.096 26.21C119.885 26.4024 119.795 26.5024 119.705 26.6025C119.572 26.6838 119.439 26.765 119.21 26.9152C119.018 27.0232 118.984 27.0688 119.012 27.121C118.829 27.253 118.645 27.3851 118.353 27.6068C118.163 27.7865 118.081 27.8766 117.999 27.9666C117.826 28.0828 117.653 28.1989 117.371 28.3999C117.174 28.5789 117.087 28.673 116.999 28.7672C116.861 28.8577 116.723 28.9483 116.449 29.1297C115.68 29.7631 115.046 30.3057 114.412 30.8483C113.796 31.3159 113.18 31.7835 112.442 32.35C112.106 32.6497 111.891 32.8506 111.676 33.0514C111.061 33.5178 110.447 33.9843 109.705 34.5474C109.26 34.8617 108.943 35.0794 108.626 35.2972C108.626 35.2972 108.542 35.2721 108.504 35.1804C108.42 32.9488 108.375 30.809 108.33 28.6691C108.33 28.6691 108.361 28.662 108.376 28.6583C108.83 28.4093 109.365 28.1807 109.696 27.9163C114.161 24.3501 118.598 20.779 123.244 17.0465C128.184 20.974 132.961 24.7725 137.855 28.6343C137.97 28.6977 138.002 28.7277 137.982 28.7331Z" fill="#65054C"/>
<path d="M197.244 35.4491C197.116 35.4535 197.105 35.4148 197.106 35.2387C197.091 32.9495 197.065 30.7978 197.051 28.6418C197.063 28.6375 197.092 28.6304 197.092 28.6304C197.555 28.3941 198.138 28.1788 198.464 27.9184C202.654 24.5803 206.807 21.2356 210.974 17.8933C211.249 17.6721 211.564 17.4578 212.028 17.1179C212.539 17.483 212.93 17.7373 213.26 18.0021C217.332 21.2678 221.391 24.5355 225.467 27.8006C225.78 28.0513 226.186 28.2856 226.705 28.5544C226.86 28.5812 226.862 28.5706 226.87 28.6504C226.881 30.91 226.885 33.0899 226.888 35.2697C226.888 35.2697 226.894 35.2562 226.912 35.2573C226.479 35.0094 225.931 34.7777 225.594 34.5087C221.414 31.1707 217.267 27.827 213.105 24.4859C212.831 24.2662 212.503 24.056 211.992 23.6935C207.009 27.6822 202.185 31.5441 197.244 35.4491Z" fill="#65064C"/>
<path d="M195.167 27.1267C195.695 27.0699 196.222 27.0131 196.916 26.9528C197.109 27.1858 197.138 27.4224 196.969 27.7071C196.452 27.7278 196.132 27.7005 195.737 27.6319C195.497 27.436 195.332 27.2814 195.167 27.1267Z" fill="#64044D"/>
<path d="M195.812 27.6732C196.132 27.7005 196.452 27.7278 196.925 27.7766C197.101 28.0295 197.123 28.261 197.118 28.5615C197.092 28.6305 197.063 28.6376 196.949 28.5969C196.494 28.2619 196.153 27.9675 195.812 27.6732Z" fill="#63034D"/>
<path d="M195.737 27.6319C196.153 27.9675 196.494 28.2618 196.936 28.6011C197.065 30.7978 197.091 32.9495 197.091 35.1806C193.755 32.6362 190.442 30.0129 187.136 27.3883C185.637 26.1984 184.152 25.0061 182.476 23.6675C177.493 27.616 172.712 31.4045 167.805 35.2287C167.66 33.1222 167.639 30.9801 167.594 28.7625C168.043 28.4058 168.605 28.1398 168.979 27.8408C173.064 24.5766 177.118 21.307 181.184 18.0396C181.528 17.7636 181.901 17.4929 182.467 17.063C186.751 20.4828 190.857 23.7615 195.065 27.0834C195.332 27.2813 195.497 27.436 195.737 27.6319Z" fill="#026769"/>
<path d="M21.8875 33.7005C22.7841 32.4781 23.5977 31.1872 24.8454 29.9583C26.213 28.6111 27.9543 27.3165 29.5843 26.008C30.6643 25.141 31.7933 24.2816 32.9818 23.4349C33.6158 22.9833 34.71 22.9373 35.5714 23.2965C36.3504 23.6214 36.909 24.0351 37.4105 24.4367C40.1709 26.6471 42.8738 28.8677 45.6279 31.0792C45.9252 31.318 46.4252 31.5212 46.8312 31.7409C47.0401 31.7279 47.249 31.7149 47.4579 31.7019C47.4579 31.1848 47.5236 30.6663 47.4457 30.1508C47.2003 28.5266 45.5553 27.0925 43.5157 25.6671C41.5619 24.3018 40.2095 22.8155 38.5919 21.3825C38.4552 21.2614 38.3378 21.1358 38.1674 21.0216C37.3772 20.4918 36.5908 19.961 35.7615 19.4398C35.4451 19.2409 35.0178 19.0669 34.641 18.8816C34.2376 19.033 33.6867 19.158 33.4546 19.3401C31.8711 20.5826 30.4174 21.8488 28.7948 23.0839C27.6862 23.9278 26.3721 24.7338 24.975 25.5267C24.6609 25.4147 24.5217 25.3328 24.3824 25.2508C27.6878 22.5487 30.9932 19.8466 34.4716 17.0031C39.2956 20.8758 43.9029 24.5746 48.6481 28.3613C48.943 28.5186 49.1001 28.5879 49.2572 28.6572C49.2572 28.6572 49.23 28.6556 49.2594 28.7292C49.2786 30.9963 49.2683 33.1897 49.258 35.3831C45.3537 32.2825 41.4485 29.1821 37.5457 26.0812C36.5869 25.3194 35.6358 24.5563 34.5023 23.651C30.2375 27.0639 26.1166 30.3616 21.8875 33.7005Z" fill="#66054C"/>
<path d="M24.2762 25.2933C24.5217 25.3327 24.661 25.4147 24.8296 25.5448C24.8588 25.6212 24.8585 25.6495 24.7518 25.7458C24.5655 25.9662 24.4858 26.1186 24.4061 26.271C23.1113 27.0434 21.8166 27.8157 20.3707 28.6096C21.5363 27.5328 22.8531 26.4343 24.2762 25.2933Z" fill="#65054C"/>
<path d="M49.2454 28.5924C49.1001 28.5878 48.943 28.5185 48.7626 28.4041C48.8281 28.3087 48.917 28.2585 49.087 28.1748C49.19 28.2701 49.2118 28.3989 49.2454 28.5924Z" fill="#FDA401"/>
<path d="M49.2535 35.3824C49.2683 33.1897 49.2786 30.9963 49.2616 28.7241C49.6719 28.3992 50.2019 28.1693 50.5332 27.9045C54.9955 24.3371 59.4302 20.7648 64.0792 17.0269C68.9704 20.9439 73.6952 24.7277 78.5337 28.5656C78.6742 28.6753 78.701 28.7308 78.797 28.8838C78.9177 31.1018 78.9691 33.2222 79.0205 35.3426C79.0205 35.3426 79.0062 35.3264 79.0079 35.3211C78.5677 35.061 78.0383 34.8215 77.6972 34.5489C73.4552 31.1584 69.2423 27.7629 65.0141 24.37C64.7704 24.1745 64.4598 23.9906 64.0376 23.7047C59.1078 27.6428 54.3029 31.4811 49.3772 35.3529C49.2564 35.3864 49.249 35.3818 49.2535 35.3824Z" fill="#F8A403"/>
<path d="M315.536 28.8711C315.535 30.9495 315.535 33.0279 315.504 35.1859C312.028 32.5477 308.577 29.831 305.14 27.1119C303.762 26.0212 302.414 24.9251 300.825 23.6492C295.894 27.5974 291.148 31.3964 286.296 35.2377C286.188 35.2799 286.105 35.2526 286.064 35.161C286.017 33.755 286.064 32.4403 285.988 31.1265C285.937 30.2379 285.713 29.3507 285.603 28.4365C285.688 28.3745 285.753 28.3435 285.834 28.3172C286.711 28.8994 286.789 28.2758 286.906 28.1847C288.69 26.7882 290.407 25.3797 292.153 23.9764C294.975 21.7091 297.806 19.4435 300.815 17.0319C305.402 20.7069 309.817 24.2445 314.374 27.8813C314.839 28.2069 315.162 28.4332 315.479 28.7131C315.494 28.8014 315.515 28.8363 315.536 28.8711Z" fill="#67064C"/>
<path d="M285.881 28.2388C285.753 28.3434 285.688 28.3744 285.505 28.4C285.167 28.1933 284.964 27.9969 284.76 27.8005C284.907 27.4472 285.177 27.0942 285.181 26.7408C285.214 23.5998 285.188 20.4588 285.219 17.3179C285.222 16.9957 285.489 16.6738 285.767 16.3153C285.91 20.2394 285.919 24.2 285.881 28.2388Z" fill="#500256"/>
<path d="M315.485 28.6595C315.162 28.4332 314.839 28.2069 314.486 27.9257C314.646 27.4338 314.995 26.997 315.002 26.5595C315.049 23.4448 315.02 20.3299 315.038 17.2151C315.04 16.8828 315.196 16.5507 315.38 16.159C315.48 16.0995 315.585 16.1724 315.575 16.2646C315.59 16.3914 315.615 16.426 315.641 16.4606C315.634 20.2936 315.626 24.1267 315.575 28.1035C315.516 28.3847 315.5 28.5221 315.485 28.6595Z" fill="#FEB501"/>
<path d="M315.479 28.713C315.5 28.5221 315.516 28.3847 315.587 28.1815C315.742 28.2137 315.84 28.3117 315.965 28.4626C315.902 28.6098 315.813 28.7042 315.629 28.8348C315.515 28.8362 315.495 28.8014 315.479 28.713Z" fill="#993B32"/>
<path d="M315.705 16.4395C315.615 16.426 315.59 16.3914 315.602 16.3048C315.683 16.3081 315.726 16.3633 315.705 16.4395Z" fill="#993B32"/>
<path d="M284.67 27.7509C284.964 27.997 285.167 28.1934 285.469 28.4263C285.714 29.3506 285.937 30.2379 285.988 31.1265C286.064 32.4402 286.017 33.7549 286.024 35.1464C285.618 34.9959 285.122 34.7836 284.815 34.5383C280.594 31.1682 276.401 27.7932 272.193 24.4208C271.976 24.247 271.692 24.085 271.15 23.7257C266.459 27.4727 261.945 31.0788 257.257 34.6957C256.897 34.6627 256.711 34.6187 256.475 34.4974C256.373 32.4945 256.32 30.5688 256.268 28.6431C256.268 28.6431 256.278 28.6382 256.282 28.6355C256.753 28.3891 257.334 28.1656 257.669 27.8986C262.117 24.3528 266.529 20.8008 271.204 17.047C275.797 20.705 280.189 24.2032 284.67 27.7509Z" fill="#046768"/>
<path d="M256.143 28.6065C256.32 30.5688 256.373 32.4945 256.425 34.5659C256.418 34.9013 256.411 35.091 256.403 35.2807C256.403 35.2807 256.348 35.2855 256.359 35.2952C254.38 33.763 252.357 32.2266 250.406 30.6777C247.521 28.3883 244.687 26.0901 241.651 23.6498C236.71 27.5954 231.941 31.4047 227.03 35.2419C226.885 33.09 226.881 30.9101 226.87 28.6452C227.263 28.3509 227.761 28.1591 228.047 27.93C232.513 24.3605 236.951 20.7862 241.627 17.0267C246.543 20.97 251.281 24.77 256.143 28.6065Z" fill="#FBA402"/>
<path d="M79.103 35.2834C78.9691 33.2222 78.9177 31.1019 78.8595 28.9023C82.259 26.1252 85.6679 23.4276 89.0704 20.7289C90.5374 19.5654 91.991 18.3995 93.6762 17.0547C98.6382 21.0152 103.38 24.8003 108.226 28.6273C108.375 30.809 108.42 32.9489 108.462 35.1676C106.249 33.5594 103.995 31.8803 101.841 30.1834C99.1667 28.0771 96.5753 25.9561 93.7036 23.6445C88.7218 27.618 83.9537 31.4211 79.103 35.2834Z" fill="#026769"/>
<path d="M108.603 35.3469C108.943 35.0795 109.26 34.8618 109.68 34.6071C109.462 34.8983 109.141 35.2266 108.687 35.5743C108.562 35.528 108.572 35.4623 108.603 35.3469Z" fill="#F8A203"/>
<path d="M345.469 35.2179C345.321 35.1018 345.322 34.9373 345.395 34.6934C345.517 34.7992 345.567 34.9844 345.469 35.2179Z" fill="#66054C"/>
<path d="M315.722 36.0742C315.601 35.983 315.561 35.8459 315.566 35.6412C315.61 35.5736 315.788 35.5765 315.874 35.5836C315.909 35.7365 315.856 35.8824 315.722 36.0742Z" fill="#993B32"/>
<path d="M137.887 42.1053C137.788 42.0815 137.766 42.0153 137.818 41.9055C137.916 41.9289 137.941 41.9959 137.887 42.1053Z" fill="#F8A203"/>
<path d="M256.503 35.2456C256.411 35.091 256.418 34.9012 256.475 34.6431C256.711 34.6187 256.897 34.6627 257.151 34.7396C257.014 34.9186 256.808 35.0645 256.503 35.2456Z" fill="#026868"/>
<path d="M114.553 30.828C115.046 30.3057 115.68 29.7631 116.429 29.1823C115.928 29.6986 115.311 30.2531 114.553 30.828Z" fill="#F8A203"/>
<path d="M130.153 29.3611C130.678 29.6662 131.148 30.0158 131.642 30.4256C131.143 30.1257 130.62 29.7656 130.153 29.3611Z" fill="#F8A203"/>
<path d="M124.24 24.6147C124.733 24.8749 125.148 25.177 125.579 25.5365C125.116 25.2815 124.639 24.9691 124.24 24.6147Z" fill="#F8A203"/>
<path d="M126.997 26.8165C127.471 27.0756 127.887 27.3785 128.315 27.7393C127.865 27.4848 127.402 27.1727 126.997 26.8165Z" fill="#F8A203"/>
<path d="M133.73 32.2418C134.223 32.5025 134.64 32.8044 135.073 33.1637C134.611 32.9084 134.133 32.5958 133.73 32.2418Z" fill="#F8A203"/>
<path d="M111.807 33.035C111.891 32.8506 112.106 32.6498 112.421 32.4095C112.327 32.5863 112.133 32.8024 111.807 33.035Z" fill="#F8A203"/>
<path d="M121.306 25.4023C121.477 25.1477 121.791 24.8711 122.216 24.5565C122.035 24.8058 121.741 25.0931 121.306 25.4023Z" fill="#F8A203"/>
<path d="M136.487 34.4417C136.815 34.5929 137.086 34.7856 137.368 35.0334C137.063 34.8867 136.746 34.6849 136.487 34.4417Z" fill="#F8A203"/>
<path d="M122.752 24.2522C122.762 24.0965 122.923 23.9532 123.207 23.7009C123.581 23.9597 123.806 24.1153 124.069 24.325C123.706 24.341 123.305 24.3028 122.752 24.2522Z" fill="#F8A203"/>
<path d="M118.107 27.9553C118.081 27.8766 118.163 27.7866 118.337 27.6625C118.358 27.7336 118.286 27.8388 118.107 27.9553Z" fill="#F8A203"/>
<path d="M128.86 28.2931C129.013 28.3315 129.156 28.4142 129.316 28.5468C129.171 28.5103 129.011 28.4239 128.86 28.2931Z" fill="#F8A203"/>
<path d="M117.098 28.7751C117.087 28.6731 117.174 28.579 117.359 28.4502C117.37 28.538 117.283 28.6604 117.098 28.7751Z" fill="#F8A203"/>
<path d="M131.631 30.5203C131.769 30.5533 131.92 30.6402 132.097 30.7792C131.963 30.7455 131.803 30.6599 131.631 30.5203Z" fill="#F8A203"/>
<path d="M119.805 26.5646C119.795 26.5025 119.885 26.4025 120.079 26.2657C120.091 26.3283 119.998 26.4275 119.805 26.5646Z" fill="#F8A203"/>
<path d="M119.085 27.1145C118.984 27.0688 119.018 27.0232 119.196 26.9635C119.237 26.9979 119.197 27.053 119.085 27.1145Z" fill="#F8A203"/>
<path d="M136.065 34.0549C136.088 34.0486 136.029 34.089 136.029 34.089C136.029 34.089 136.031 34.0624 136.061 34.0568C136.091 34.0512 136.041 34.0611 136.065 34.0549Z" fill="#F8A203"/>
<path d="M122.349 24.5196C122.286 24.522 122.319 24.4538 122.385 24.4295C122.45 24.4051 122.517 24.4675 122.517 24.4675C122.517 24.4675 122.413 24.5172 122.349 24.5196Z" fill="#F8A203"/>
<path d="M24.4964 26.2279C24.4858 26.1186 24.5655 25.9662 24.7514 25.7883C24.7674 25.9035 24.6771 26.0441 24.4964 26.2279Z" fill="#66054C"/>
</g>
<defs>
<clipPath id="clip0_28_1380">
<rect width="400" height="50" fill="white"/>
</clipPath>
</defs>
</svg>
