<svg width="45" height="45" viewBox="0 0 45 45" fill="none" xmlns="http://www.w3.org/2000/svg">
<path opacity="0.3" fill-rule="evenodd" clip-rule="evenodd" d="M19.8486 3.93744C20.5123 3.27458 21.4004 2.88454 22.3375 2.84428C23.2747 2.80402 24.1929 3.11645 24.9111 3.71994L25.1511 3.93932L28.7136 7.49994H33.7498C34.6956 7.50012 35.6063 7.85764 36.2997 8.50089C36.993 9.14413 37.4176 10.0256 37.4886 10.9687L37.4998 11.2499V16.2862L41.0623 19.8487C41.7257 20.5125 42.1161 21.401 42.1563 22.3386C42.1966 23.2762 41.8839 24.1948 41.2798 24.9131L41.0604 25.1512L37.4979 28.7137V33.7499C37.4982 34.696 37.1409 35.6073 36.4976 36.301C35.8543 36.9947 34.9726 37.4196 34.0292 37.4906L33.7498 37.4999H28.7154L25.1529 41.0624C24.4891 41.7258 23.6007 42.1162 22.6631 42.1565C21.7255 42.1967 20.8068 41.884 20.0886 41.2799L19.8504 41.0624L16.2879 37.4999H11.2498C10.3037 37.5002 9.39251 37.1429 8.69879 36.4996C8.00508 35.8563 7.58015 34.9746 7.5092 34.0312L7.49982 33.7499V28.7137L3.93732 25.1512C3.27394 24.4874 2.88357 23.5989 2.8433 22.6613C2.80303 21.7237 3.11579 20.8051 3.71982 20.0868L3.93732 19.8487L7.49982 16.2862V11.2499C7.5 10.3042 7.85752 9.39342 8.50077 8.7001C9.14401 8.00679 10.0255 7.58212 10.9686 7.51119L11.2498 7.49994H16.2861L19.8486 3.93744Z" fill="#006A4E"/>
<path fill-rule="evenodd" clip-rule="evenodd" d="M28.2723 16.8431L20.3148 24.8006L16.9998 21.4856C16.648 21.134 16.1709 20.9366 15.6735 20.9368C15.1762 20.937 14.6992 21.1347 14.3476 21.4865C13.9961 21.8384 13.7987 22.3155 13.7988 22.8128C13.799 23.3102 13.9968 23.7872 14.3486 24.1387L18.8561 28.6462C19.0476 28.8379 19.275 28.9899 19.5253 29.0936C19.7756 29.1973 20.0439 29.2507 20.3148 29.2507C20.5858 29.2507 20.854 29.1973 21.1043 29.0936C21.3546 28.9899 21.582 28.8379 21.7736 28.6462L30.9236 19.4944C31.2651 19.1407 31.4541 18.6671 31.4498 18.1755C31.4456 17.6839 31.2484 17.2136 30.9007 16.8659C30.5531 16.5183 30.0828 16.3211 29.5912 16.3168C29.0996 16.3126 28.626 16.5016 28.2723 16.8431Z" fill="#006A4E"/>
</svg>
