<svg width="54" height="49" viewBox="0 0 54 49" fill="none" xmlns="http://www.w3.org/2000/svg">
<path d="M19.368 19.0465C21.1499 20.1964 22.2704 21.5056 22.7295 22.9742C23.1886 24.4428 22.8095 26.3394 21.5921 28.6639L20.9241 29.9396C20.2115 31.3003 19.6204 32.2911 19.1507 32.9121C18.7377 33.5627 18.0669 34.2229 17.1383 34.8925C15.4268 36.0913 12.8418 35.7851 9.38335 33.974C5.9249 32.1628 3.92562 30.3934 3.38552 28.6656C2.90212 26.9676 3.49177 24.5311 5.15447 21.3561C5.89674 19.9387 6.50272 18.9195 6.97241 18.2985C9.9821 13.5171 13.683 10.0369 18.0752 7.85783C22.4971 5.62207 26.664 5.52854 30.576 7.57723C30.9729 7.78506 31.1498 8.27504 31.1067 9.04715C31.1499 9.79226 30.9192 10.6467 30.4144 11.6106C29.9394 12.5177 29.4116 13.1805 28.8313 13.599C28.3076 14.0472 27.8459 14.2389 27.4464 14.1742C27.1332 14.0824 26.8767 14.0204 26.6769 13.988C26.5069 13.8989 26.1208 13.8773 25.5188 13.9233C25.0031 13.9422 24.4565 14.0894 23.8788 14.3648C22.3211 14.994 20.8175 16.5546 19.368 19.0465ZM40.1188 29.9135C41.9007 31.0633 43.0063 32.4009 43.4357 33.9262C43.9515 35.4245 43.3929 37.7328 41.7599 40.851C40.0081 44.1961 38.2994 46.0104 36.6337 46.2941C34.6819 46.5723 32.2319 45.9395 29.2837 44.3955C26.3922 42.8813 24.6764 41.2603 24.1363 39.5326C23.6529 37.8345 24.2425 35.398 25.9052 32.223C26.6475 30.8056 27.2535 29.7864 27.7232 29.1655C30.7328 24.3841 34.4338 20.9038 38.8259 18.7248C43.3045 16.5187 47.4998 16.44 51.4118 18.4887C51.8087 18.6965 51.9856 19.1865 51.9424 19.9586C51.9857 20.7037 51.755 21.5582 51.2502 22.522C50.7752 23.4292 50.2474 24.092 49.667 24.5105C49.1433 24.9587 48.6817 25.1504 48.2822 25.0857C47.969 24.9939 47.7125 24.9318 47.5127 24.8995C47.3426 24.8104 46.9566 24.7888 46.3546 24.8348C45.7822 24.824 45.2072 24.9564 44.6295 25.2318C43.0719 25.861 41.5683 27.4215 40.1188 29.9135Z" fill="#98CA3C"/>
</svg>
