<svg width="40" height="40" viewBox="0 0 40 40" fill="none" xmlns="http://www.w3.org/2000/svg">
<path d="M28.3333 3.33325H11.6666C10.7825 3.33325 9.93468 3.68444 9.30956 4.30956C8.68444 4.93468 8.33325 5.78253 8.33325 6.66659V34.9999C8.33325 35.4419 8.50885 35.8659 8.82141 36.1784C9.13397 36.491 9.55789 36.6666 9.99992 36.6666H29.9999C30.4419 36.6666 30.8659 36.491 31.1784 36.1784C31.491 35.8659 31.6666 35.4419 31.6666 34.9999V6.66659C31.6666 5.78253 31.3154 4.93468 30.6903 4.30956C30.0652 3.68444 29.2173 3.33325 28.3333 3.33325ZM18.3333 26.6666H13.3333V23.3333H18.3333V26.6666ZM18.3333 19.9999H13.3333V16.6666H18.3333V19.9999ZM18.3333 13.3333H13.3333V9.99992H18.3333V13.3333ZM26.6666 26.6666H21.6666V23.3333H26.6666V26.6666ZM26.6666 19.9999H21.6666V16.6666H26.6666V19.9999ZM26.6666 13.3333H21.6666V9.99992H26.6666V13.3333Z" fill="#F78F24"/>
</svg>
