<svg width="20" height="20" viewBox="0 0 20 20" fill="none" xmlns="http://www.w3.org/2000/svg">
<path d="M9.34082 3.18C9.30015 2.96275 9.17485 2.77054 8.99247 2.64567C8.81009 2.52081 8.58557 2.4735 8.36832 2.51417C8.15106 2.55484 7.95886 2.68014 7.83399 2.86252C7.70912 3.0449 7.66182 3.26941 7.70248 3.48667L7.97332 4.93667C7.1174 5.37701 6.42734 6.083 6.00664 6.94874C5.58594 7.81448 5.45729 8.79329 5.63998 9.73834L5.86998 10.9658L5.91582 11.2125C6.13082 12.3575 5.72582 13.0975 5.39082 13.7108C5.15332 14.1442 4.95165 14.5142 5.02665 14.9183C5.11832 15.4067 5.20998 15.8958 5.65165 15.8133L16.235 13.8325C16.675 13.7492 16.5833 13.2617 16.4917 12.7742C16.4058 12.3042 15.9616 11.8383 15.4958 11.3483C14.9908 10.8183 14.46 10.26 14.3258 9.63917C14.1316 8.735 14.0967 8.48334 14.0733 8.31667C14.0658 8.26417 14.06 8.21917 14.05 8.165C13.8621 7.12476 13.3101 6.18537 12.4927 5.51505C11.6753 4.84473 10.646 4.48727 9.58915 4.50667L9.34082 3.18Z" fill="#FBAE17"/>
<path fill-rule="evenodd" clip-rule="evenodd" d="M5.4489 3.56501C5.6126 3.71335 5.7107 3.92062 5.72164 4.14127C5.73258 4.36191 5.65546 4.57787 5.50723 4.74168C4.57806 5.76668 4.0864 6.91251 3.98223 8.29168C3.96565 8.51214 3.86218 8.71698 3.69457 8.86115C3.52696 9.00532 3.30894 9.077 3.08848 9.06043C2.86802 9.04385 2.66317 8.94038 2.519 8.77276C2.37484 8.60515 2.30315 8.38714 2.31973 8.16668C2.45306 6.41751 3.0939 4.92251 4.2714 3.62251C4.34492 3.54139 4.4337 3.47555 4.53268 3.42875C4.63165 3.38195 4.73888 3.35512 4.84823 3.34978C4.95758 3.34444 5.06692 3.3607 5.16998 3.39763C5.27305 3.43456 5.36782 3.49144 5.4489 3.56501Z" fill="#FBAE17"/>
<path d="M7.45801 16.4167C8.04134 17.0833 8.87467 17.5 9.79134 17.5C11.1247 17.5 12.208 16.5833 12.5413 15.4167L7.45801 16.4167Z" fill="#FBAE17"/>
</svg>
