<svg width="20" height="20" viewBox="0 0 20 20" fill="none" xmlns="http://www.w3.org/2000/svg">
<path d="M16.875 6.25C16.4453 6.25 16.0417 6.16862 15.6641 6.00586C15.2865 5.8431 14.9544 5.62174 14.668 5.3418C14.3815 5.06185 14.1569 4.72982 13.9941 4.3457C13.8314 3.96159 13.75 3.55469 13.75 3.125C13.75 2.69531 13.8314 2.29167 13.9941 1.91406C14.1569 1.53646 14.3783 1.20443 14.6582 0.917969C14.9382 0.63151 15.2702 0.406901 15.6543 0.244141C16.0384 0.0813802 16.4453 0 16.875 0C17.3047 0 17.7083 0.0813802 18.0859 0.244141C18.4635 0.406901 18.7956 0.628255 19.082 0.908203C19.3685 1.18815 19.5931 1.52018 19.7559 1.9043C19.9186 2.28841 20 2.69531 20 3.125C20 3.55469 19.9186 3.95833 19.7559 4.33594C19.5931 4.71354 19.3717 5.04557 19.0918 5.33203C18.8118 5.61849 18.4798 5.8431 18.0957 6.00586C17.7116 6.16862 17.3047 6.25 16.875 6.25ZM11.25 8.75V6.25H13.3789C13.4961 6.38021 13.6198 6.50391 13.75 6.62109V8.75C13.75 8.92578 13.7174 9.08854 13.6523 9.23828C13.5872 9.38802 13.4993 9.51823 13.3887 9.62891C13.278 9.73958 13.1445 9.83073 12.9883 9.90234C12.832 9.97396 12.6693 10.0065 12.5 10V8.75H11.25ZM7.5 10V8.75H6.25V6.25H8.75V8.75C8.75 8.92578 8.71745 9.08854 8.65234 9.23828C8.58724 9.38802 8.49935 9.51823 8.38867 9.62891C8.278 9.73958 8.14453 9.83073 7.98828 9.90234C7.83203 9.97396 7.66927 10.0065 7.5 10ZM18.75 13.75V7.42188C18.9779 7.32422 19.196 7.20703 19.4043 7.07031C19.6126 6.93359 19.8112 6.78385 20 6.62109V15H7.13867L2.5 19.6387V15H0V1.25H12.5781C12.4023 1.64714 12.2852 2.0638 12.2266 2.5H1.25V13.75H3.75V16.6113L6.61133 13.75H18.75Z" fill="#FBAE17"/>
</svg>
