<svg width="20" height="21" viewBox="0 0 20 21" fill="none" xmlns="http://www.w3.org/2000/svg">
<path d="M13 10.1667C14.9783 11.1525 16.3333 13.2083 16.3333 16V19.3333H3V16C3 13.205 4.35917 11.1458 6.33333 10.1667M14.6667 6C14.6667 6.65661 14.5373 7.30679 14.2861 7.91342C14.0348 8.52004 13.6665 9.07124 13.2022 9.53553C12.7379 9.99983 12.1867 10.3681 11.5801 10.6194C10.9735 10.8707 10.3233 11 9.66667 11C8.34058 11 7.06881 10.4732 6.13113 9.53553C5.19345 8.59785 4.66667 7.32608 4.66667 6M14.6667 6C14.6667 5.34339 14.5373 4.69321 14.2861 4.08658C14.0348 3.47995 13.6665 2.92876 13.2022 2.46447C12.7379 2.00017 12.1867 1.63188 11.5801 1.3806C10.9735 1.12933 10.3233 1 9.66667 1C8.34058 1 7.06881 1.52678 6.13113 2.46447C5.19345 3.40215 4.66667 4.67392 4.66667 6M14.6667 6C13.4167 6 12.1667 6.3 10.5 4.33333C8.83333 6.3 6.75 6.83333 4.66667 6M5.5 11L9.6875 15.3808L13.8333 11M9.66667 15.1667V19.3333" stroke="#FBAE17" stroke-width="1.66667"/>
</svg>
