<svg width="45" height="45" viewBox="0 0 45 45" fill="none" xmlns="http://www.w3.org/2000/svg">
<path d="M22.5 3.75C32.8125 3.75 41.25 12.1875 41.25 22.5C41.25 32.8125 32.8125 41.25 22.5 41.25C12.1875 41.25 3.75 32.8125 3.75 22.5C3.75 12.1875 12.1875 3.75 22.5 3.75ZM22.5 7.5C18.9375 7.5 15.75 8.625 13.3125 10.6875L34.3125 31.6875C36.1875 29.0625 37.5 25.875 37.5 22.5C37.5 14.25 30.75 7.5 22.5 7.5ZM31.6875 34.3125L10.6875 13.3125C8.625 15.75 7.5 18.9375 7.5 22.5C7.5 30.75 14.25 37.5 22.5 37.5C26.0625 37.5 29.25 36.375 31.6875 34.3125Z" fill="#ED145B"/>
</svg>
