<svg width="20" height="20" viewBox="0 0 20 20" fill="none" xmlns="http://www.w3.org/2000/svg">
<path fill-rule="evenodd" clip-rule="evenodd" d="M14.7098 6.05331C15.091 6.05331 15.4686 5.97821 15.8208 5.83231C16.1731 5.6864 16.4931 5.47254 16.7627 5.20294C17.0323 4.93334 17.2462 4.61328 17.3921 4.26103C17.538 3.90878 17.6131 3.53125 17.6131 3.14998C17.6131 2.7687 17.538 2.39117 17.3921 2.03892C17.2462 1.68667 17.0323 1.36661 16.7627 1.09701C16.4931 0.82741 16.1731 0.613552 15.8208 0.467646C15.4686 0.32174 15.091 0.246643 14.7098 0.246643C13.9397 0.246643 13.2013 0.552529 12.6568 1.09701C12.1123 1.64149 11.8064 2.37996 11.8064 3.14998C11.8064 3.91999 12.1123 4.65846 12.6568 5.20294C13.2013 5.74742 13.9397 6.05331 14.7098 6.05331ZM18.1389 8.70498C19.048 9.61434 19.5588 10.8475 19.5589 12.1333V13.3783C19.5589 13.5993 19.4711 13.8113 19.3148 13.9676C19.1586 14.1238 18.9466 14.2116 18.7256 14.2116H17.4806L16.8798 19.0233C16.8546 19.225 16.7565 19.4105 16.6041 19.5449C16.4517 19.6793 16.2555 19.7535 16.0523 19.7533H13.3673C13.1642 19.7533 12.9681 19.679 12.8159 19.5446C12.6637 19.4102 12.5658 19.2248 12.5406 19.0233L12.5139 18.8108V14.3116C12.5151 14.0235 12.4564 13.7382 12.3417 13.4738C12.2269 13.2094 12.0586 12.9718 11.8473 12.7758L9.98226 11.0558C10.1749 10.2108 10.5906 9.43293 11.1859 8.80306C11.7812 8.1732 12.5344 7.71438 13.3672 7.47437C14.1999 7.23436 15.0818 7.22192 15.921 7.43834C16.7602 7.65477 17.5261 8.09215 18.1389 8.70498ZM11.2639 14.3083C11.2646 14.1928 11.2412 14.0784 11.1953 13.9724C11.1494 13.8663 11.082 13.771 10.9973 13.6925L6.41726 9.46748C6.26335 9.32551 6.06164 9.24669 5.85226 9.24669C5.64288 9.24669 5.44117 9.32551 5.28726 9.46748L0.708092 13.6925C0.623279 13.7711 0.555769 13.8666 0.509859 13.9727C0.463948 14.0789 0.440643 14.1935 0.441425 14.3091V18.9375C0.441425 19.1583 0.529108 19.3702 0.685208 19.5264C0.841308 19.6827 1.05306 19.7706 1.27393 19.7708H10.4323C10.6533 19.7708 10.8652 19.683 11.0215 19.5267C11.1778 19.3704 11.2656 19.1585 11.2656 18.9375V14.3083H11.2639ZM6.53309 12.5341H5.17059C5.06009 12.5341 4.9541 12.578 4.87596 12.6562C4.79782 12.7343 4.75393 12.8403 4.75393 12.9508V14.3991H3.30643C3.19592 14.3991 3.08994 14.443 3.0118 14.5212C2.93366 14.5993 2.88976 14.7053 2.88976 14.8158V16.1783C2.88976 16.2888 2.93366 16.3948 3.0118 16.4729C3.08994 16.5511 3.19592 16.595 3.30643 16.595H4.75393V18.0433C4.75393 18.1538 4.79782 18.2598 4.87596 18.3379C4.9541 18.4161 5.06009 18.46 5.17059 18.46H6.53309C6.6436 18.46 6.74958 18.4161 6.82772 18.3379C6.90586 18.2598 6.94976 18.1538 6.94976 18.0433V16.595H8.39893C8.50943 16.595 8.61541 16.5511 8.69355 16.4729C8.77169 16.3948 8.81559 16.2888 8.81559 16.1783V14.8166C8.81559 14.7061 8.77169 14.6002 8.69355 14.522C8.61541 14.4439 8.50943 14.4 8.39893 14.4H6.94976V12.9516C6.94976 12.8411 6.90586 12.7352 6.82772 12.657C6.74958 12.5789 6.6436 12.5341 6.53309 12.5341Z" fill="#FBAE17"/>
</svg>
