<svg width="40" height="40" viewBox="0 0 40 40" fill="none" xmlns="http://www.w3.org/2000/svg">
<path fill-rule="evenodd" clip-rule="evenodd" d="M29.42 12.1067C30.1826 12.1067 30.9376 11.9565 31.6421 11.6647C32.3466 11.3729 32.9867 10.9452 33.5259 10.406C34.0651 9.86681 34.4929 9.22669 34.7847 8.52219C35.0765 7.81769 35.2267 7.06262 35.2267 6.30008C35.2267 5.53753 35.0765 4.78246 34.7847 4.07796C34.4929 3.37346 34.0651 2.73334 33.5259 2.19414C32.9867 1.65494 32.3466 1.22723 31.6421 0.935414C30.9376 0.643602 30.1826 0.493408 29.42 0.493408C27.88 0.493408 26.403 1.10518 25.3141 2.19414C24.2251 3.2831 23.6133 4.76005 23.6133 6.30008C23.6133 7.8401 24.2251 9.31705 25.3141 10.406C26.403 11.495 27.88 12.1067 29.42 12.1067ZM36.2783 17.4101C38.0965 19.2288 39.118 21.6951 39.1183 24.2667V26.7567C39.1183 27.1988 38.9427 27.6227 38.6302 27.9353C38.3176 28.2478 37.8937 28.4234 37.4517 28.4234H34.9617L33.76 38.0467C33.7096 38.45 33.5136 38.821 33.2088 39.0899C32.904 39.3588 32.5114 39.507 32.105 39.5067H26.735C26.3289 39.5066 25.9367 39.3582 25.6323 39.0894C25.3278 38.8205 25.132 38.4498 25.0817 38.0467L25.0283 37.6217V28.6234C25.0306 28.047 24.9133 27.4765 24.6838 26.9477C24.4543 26.419 24.1176 25.9437 23.695 25.5517L19.965 22.1117C20.3504 20.4218 21.1816 18.866 22.3722 17.6063C23.5628 16.3465 25.0693 15.4289 26.7348 14.9489C28.4003 14.4688 30.1641 14.444 31.8425 14.8768C33.5209 15.3097 35.0527 16.1844 36.2783 17.4101ZM22.5283 28.6167C22.5297 28.3857 22.483 28.1569 22.3911 27.9449C22.2993 27.7328 22.1644 27.5422 21.995 27.3851L12.835 18.9351C12.5272 18.6512 12.1238 18.4935 11.705 18.4935C11.2862 18.4935 10.8828 18.6512 10.575 18.9351L1.41667 27.3851C1.24705 27.5424 1.11203 27.7333 1.02021 27.9456C0.928385 28.158 0.881774 28.3871 0.883339 28.6184V37.8751C0.883339 38.3168 1.0587 38.7405 1.3709 39.053C1.68311 39.3655 2.1066 39.5413 2.54834 39.5417H20.865C21.307 39.5417 21.731 39.3661 22.0435 39.0536C22.3561 38.741 22.5317 38.3171 22.5317 37.8751V28.6167H22.5283ZM13.0667 25.0684H10.3417C10.1207 25.0684 9.9087 25.1562 9.75242 25.3125C9.59614 25.4688 9.50834 25.6807 9.50834 25.9017V28.7984H6.61334C6.39233 28.7984 6.18036 28.8862 6.02408 29.0425C5.8678 29.1988 5.78001 29.4107 5.78001 29.6317V32.3567C5.78001 32.5778 5.8678 32.7897 6.02408 32.946C6.18036 33.1023 6.39233 33.1901 6.61334 33.1901H9.50834V36.0867C9.50834 36.3078 9.59614 36.5197 9.75242 36.676C9.9087 36.8323 10.1207 36.9201 10.3417 36.9201H13.0667C13.2877 36.9201 13.4996 36.8323 13.6559 36.676C13.8122 36.5197 13.9 36.3078 13.9 36.0867V33.1901H16.7983C17.0194 33.1901 17.2313 33.1023 17.3876 32.946C17.5439 32.7897 17.6317 32.5778 17.6317 32.3567V29.6334C17.6317 29.4124 17.5439 29.2004 17.3876 29.0442C17.2313 28.8879 17.0194 28.8001 16.7983 28.8001H13.9V25.9034C13.9 25.6824 13.8122 25.4704 13.6559 25.3142C13.4996 25.1579 13.2877 25.0684 13.0667 25.0684Z" fill="#F78F24"/>
</svg>
