<svg width="120" height="35" viewBox="0 0 120 35" fill="none" xmlns="http://www.w3.org/2000/svg">
<path d="M120 12.4663C119.95 12.6516 119.88 12.8152 119.853 12.9866C119.709 13.9185 119.433 14.8049 119.039 15.6431C118.687 16.3919 118.242 17.0737 117.727 17.7088C116.765 18.8949 115.592 19.7644 114.287 20.4265C113.276 20.9396 112.218 21.3318 111.112 21.5299C110.361 21.6643 109.605 21.7685 108.849 21.8554C108.403 21.9066 107.952 21.9125 107.503 21.9134C105.053 21.9186 102.604 21.9159 100.136 21.9159C100.136 21.1276 100.136 20.3422 100.136 19.5171C100.208 19.5171 100.296 19.5171 100.384 19.5171C102.783 19.5171 105.183 19.5424 107.582 19.5082C109.155 19.4858 110.714 19.2932 112.211 18.703C113.202 18.3124 114.123 17.7957 114.94 17.0681C115.719 16.3755 116.368 15.5685 116.828 14.5951C117.146 13.9217 117.402 13.2137 117.474 12.4603C117.549 11.6747 117.616 10.8764 117.569 10.0918C117.494 8.82574 117.154 7.63393 116.513 6.54454C115.881 5.46857 115.037 4.66043 114.026 4.03642C113.039 3.42709 111.977 3.04475 110.861 2.83835C110.345 2.74288 109.824 2.67185 109.302 2.62206C108.847 2.5786 108.388 2.56499 107.931 2.56468C102.57 2.56099 97.2099 2.56231 91.8494 2.56231C91.7594 2.56231 91.6694 2.56231 91.56 2.56231C91.56 13.3462 91.56 24.1079 91.56 34.8798C90.7312 34.8798 89.9223 34.8798 89.1041 34.8798C89.1041 23.2893 89.1041 11.7098 89.1041 0.109041C89.1955 0.109041 89.2772 0.109041 89.3589 0.109041C95.8939 0.109041 102.429 0.10328 108.964 0.118494C109.576 0.11992 110.188 0.257176 110.801 0.325244C111.751 0.430787 112.668 0.694074 113.564 1.03737C114.702 1.47308 115.753 2.07948 116.71 2.88813C117.745 3.76337 118.534 4.84843 119.114 6.10935C119.515 6.98289 119.783 7.91279 119.9 8.8868C119.917 9.0272 119.94 9.16669 119.98 9.31452C120 10.2685 120 11.2146 119.983 12.1909C119.977 12.2725 119.989 12.3239 120 12.3754C120 12.3996 120 12.4239 120 12.4663Z" fill="#ED145B"/>
<path d="M0 0.243628C9.01548 0.218079 18.031 0.218079 27.0635 0.218079C27.0635 1.0274 27.0635 1.83086 27.0635 2.66322C18.8622 2.66322 10.6495 2.66322 2.41611 2.66322C2.41611 13.4443 2.41611 24.1966 2.41611 34.9745C1.61125 35 0.806397 35 0 35C0 23.4231 0 11.8461 0 0.243628Z" fill="#ED145B"/>
<path d="M42.1041 35C42.1326 34.8649 42.169 34.7194 42.239 34.5963C43.1185 33.0514 44.0086 31.5136 44.8844 29.9663C45.8737 28.2184 46.8461 26.4593 47.8356 24.7116C48.6609 23.254 49.5048 21.8088 50.3326 20.3528C51.2106 18.8084 52.0805 17.2585 52.9519 15.7097C53.6926 14.3932 54.4251 13.0713 55.1709 11.7582C55.998 10.3018 56.8425 8.85697 57.6674 7.39914C58.5719 5.80077 59.4605 4.19187 60.3602 2.59035C60.8395 1.73727 61.3277 0.890091 61.812 0.0201261C62.6017 -2.1934e-07 63.3914 -2.1664e-07 64.2046 1.42865e-09C64.6624 0.770242 65.0951 1.54155 65.5313 2.31046C66.0993 3.31167 66.6706 4.31072 67.2398 5.31118C67.7747 6.25152 68.3087 7.19248 68.8431 8.13319C69.4029 9.11859 69.9619 10.1045 70.5226 11.0893C71.0411 12.0002 71.5618 12.9095 72.0805 13.8203C72.7351 14.9696 73.3882 16.1199 74.0428 17.2692C74.4422 17.9704 74.8432 18.6706 75.2426 19.3718C75.2706 19.4209 75.2912 19.4749 75.3361 19.5717C75.0318 19.5717 74.7682 19.5717 74.5046 19.5717C73.9678 19.5717 73.4301 19.551 72.8947 19.5806C72.6353 19.5949 72.5042 19.4798 72.3821 19.2649C71.6779 18.0254 70.9672 16.7904 70.2586 15.5539C69.5071 14.2426 68.7562 12.9308 68.0037 11.6201C67.4864 10.719 66.9667 9.81954 66.4484 8.91912C65.7757 7.75063 65.103 6.58218 64.4309 5.41325C63.9688 4.60951 63.5082 3.80481 63.0453 3.00157C63.0295 2.97412 62.9971 2.95789 62.959 2.9248C62.0151 4.58543 61.0837 6.2361 60.1409 7.87919C59.3202 9.30974 58.4811 10.728 57.6603 12.1586C56.806 13.6477 55.9677 15.1477 55.1153 16.6381C54.4628 17.7792 53.7955 18.9103 53.1417 20.0505C52.42 21.309 51.7096 22.5752 50.988 23.8337C50.3343 24.974 49.6679 26.1057 49.0147 27.2462C48.2425 28.5946 47.4817 29.9507 46.7098 31.2993C46.0569 32.4399 45.3949 33.5745 44.7377 34.7122C44.6907 34.7935 44.6496 34.8786 44.6016 34.981C43.7741 35 42.9509 35 42.1041 35Z" fill="#ED145B"/>
<path d="M34.1511 35C34.1275 23.4192 34.1275 11.8385 34.1275 0.237885C34.9225 0.237885 35.7147 0.237885 36.5436 0.237885C36.5436 11.7973 36.5436 23.3731 36.5436 34.9745C35.754 35 34.9643 35 34.1511 35Z" fill="#ED145B"/>
<path d="M81.3659 35C81.2718 34.8077 81.2262 34.5987 81.127 34.4258C80.3069 32.9963 79.4743 31.5751 78.6504 30.1481C77.8695 28.7958 77.0942 27.4397 76.318 26.0842C76.2899 26.0351 76.2778 25.9753 76.2495 25.8958C77.1412 25.8958 78.0107 25.8944 78.8802 25.8994C78.9276 25.8997 78.9944 25.9393 79.0191 25.9827C79.5157 26.855 80.0057 27.7317 80.5005 28.6052C81.0929 29.6509 81.6885 30.6943 82.2825 31.7389C82.8423 32.7235 83.4026 33.7077 83.9597 34.694C84.005 34.7742 84.0274 34.8695 84.0604 34.9789C83.1701 35 82.2798 35 81.3659 35Z" fill="#ED145B"/>
<path d="M17.1141 19.2991C14.3554 19.2991 11.6218 19.2991 8.87366 19.2991C8.87366 18.4841 8.87366 17.6806 8.87366 16.8614C12.7493 16.8614 16.6285 16.8614 20.5223 16.8614C20.5223 17.6607 20.5223 18.4642 20.5223 19.2991C19.3972 19.2991 18.2682 19.2991 17.1141 19.2991Z" fill="#ED145B"/>
</svg>
