<svg width="20" height="20" viewBox="0 0 20 20" fill="none" xmlns="http://www.w3.org/2000/svg">
<path d="M13.3337 6.66667L15.8337 9.16667L18.3337 6.66667M7.91699 8.33333C8.30001 8.33333 8.67929 8.25789 9.03315 8.11132C9.38702 7.96474 9.70855 7.7499 9.97939 7.47906C10.2502 7.20822 10.4651 6.88669 10.6116 6.53283C10.7582 6.17896 10.8337 5.79969 10.8337 5.41667C10.8337 5.03364 10.7582 4.65437 10.6116 4.30051C10.4651 3.94664 10.2502 3.62511 9.97939 3.35427C9.70855 3.08343 9.38702 2.86859 9.03315 2.72202C8.67929 2.57544 8.30001 2.5 7.91699 2.5C7.14344 2.5 6.40158 2.80729 5.8546 3.35427C5.30762 3.90125 5.00033 4.64312 5.00033 5.41667C5.00033 6.19021 5.30762 6.93208 5.8546 7.47906C6.40158 8.02604 7.14344 8.33333 7.91699 8.33333ZM1.66699 17V17.5H14.167V17C14.167 15.1333 14.167 14.2 13.8037 13.4867C13.4841 12.8595 12.9742 12.3496 12.347 12.03C11.6337 11.6667 10.7003 11.6667 8.83366 11.6667H7.00033C5.13366 11.6667 4.20033 11.6667 3.48699 12.03C2.85981 12.3496 2.3499 12.8595 2.03033 13.4867C1.66699 14.2 1.66699 15.1333 1.66699 17Z" stroke="#FBAE17" stroke-width="1.66667" stroke-linecap="round" stroke-linejoin="round"/>
</svg>
