<svg width="40" height="36" viewBox="0 0 40 36" fill="none" xmlns="http://www.w3.org/2000/svg">
<path d="M20 0C21.1787 0 22.3092 0.474106 23.1427 1.31802C23.9762 2.16193 24.4444 3.30653 24.4444 4.5C24.4444 5.69347 23.9762 6.83807 23.1427 7.68198C22.3092 8.52589 21.1787 9 20 9C18.8213 9 17.6908 8.52589 16.8573 7.68198C16.0238 6.83807 15.5556 5.69347 15.5556 4.5C15.5556 3.30653 16.0238 2.16193 16.8573 1.31802C17.6908 0.474106 18.8213 0 20 0ZM26.6667 21.9375C26.6667 23.6953 25.7847 25.2422 24.4444 26.1492V29.25H15.5556V26.1492C14.2153 25.2422 13.3333 23.6953 13.3333 21.9375V19.125C13.3333 15.3984 16.3194 12.375 20 12.375C23.6806 12.375 26.6667 15.3984 26.6667 19.125V21.9375ZM27.7778 29.25V27.3305C29.1597 25.7484 30 23.6602 30 21.375V19.125C30 17.2477 29.4931 15.4969 28.6181 13.9852C29.3889 13.6687 30.2292 13.5 31.1111 13.5C34.7917 13.5 37.7778 16.5234 37.7778 20.25V22.5C37.7778 24.1664 36.8819 25.6219 35.5556 26.3953V29.25H27.7778ZM4.44444 26.3953C3.11806 25.6219 2.22222 24.1664 2.22222 22.5V20.25C2.22222 16.5234 5.20833 13.5 8.88889 13.5C9.77083 13.5 10.6111 13.6758 11.3819 13.9852C10.5069 15.4898 10 17.2477 10 19.125V21.375C10 23.6602 10.8403 25.7414 12.2222 27.3305V29.25H4.44444V26.3953ZM8.88889 2.25C9.39959 2.25 9.90528 2.35185 10.3771 2.54972C10.8489 2.7476 11.2776 3.03764 11.6387 3.40327C11.9999 3.7689 12.2863 4.20296 12.4818 4.68068C12.6772 5.1584 12.7778 5.67042 12.7778 6.1875C12.7778 6.70458 12.6772 7.2166 12.4818 7.69432C12.2863 8.17204 11.9999 8.6061 11.6387 8.97173C11.2776 9.33736 10.8489 9.6274 10.3771 9.82528C9.90528 10.0232 9.39959 10.125 8.88889 10.125C8.37819 10.125 7.8725 10.0232 7.40068 9.82528C6.92885 9.6274 6.50015 9.33736 6.13903 8.97173C5.77791 8.6061 5.49146 8.17204 5.29602 7.69432C5.10059 7.2166 5 6.70458 5 6.1875C5 5.67042 5.10059 5.1584 5.29602 4.68068C5.49146 4.20296 5.77791 3.7689 6.13903 3.40327C6.50015 3.03764 6.92885 2.7476 7.40068 2.54972C7.8725 2.35185 8.37819 2.25 8.88889 2.25ZM31.1111 2.25C31.6218 2.25 32.1275 2.35185 32.5993 2.54972C33.0711 2.7476 33.4999 3.03764 33.861 3.40327C34.2221 3.7689 34.5085 4.20296 34.704 4.68068C34.8994 5.1584 35 5.67042 35 6.1875C35 6.70458 34.8994 7.2166 34.704 7.69432C34.5085 8.17204 34.2221 8.6061 33.861 8.97173C33.4999 9.33736 33.0711 9.6274 32.5993 9.82528C32.1275 10.0232 31.6218 10.125 31.1111 10.125C30.6004 10.125 30.0947 10.0232 29.6229 9.82528C29.1511 9.6274 28.7224 9.33736 28.3613 8.97173C28.0001 8.6061 27.7137 8.17204 27.5182 7.69432C27.3228 7.2166 27.2222 6.70458 27.2222 6.1875C27.2222 5.67042 27.3228 5.1584 27.5182 4.68068C27.7137 4.20296 28.0001 3.7689 28.3613 3.40327C28.7224 3.03764 29.1511 2.7476 29.6229 2.54972C30.0947 2.35185 30.6004 2.25 31.1111 2.25ZM1.66667 32.625H38.3333C39.2569 32.625 40 33.3773 40 34.3125C40 35.2477 39.2569 36 38.3333 36H1.66667C0.743056 36 0 35.2477 0 34.3125C0 33.3773 0.743056 32.625 1.66667 32.625Z" fill="#F78F24"/>
</svg>
