<svg width="20" height="20" viewBox="0 0 20 20" fill="none" xmlns="http://www.w3.org/2000/svg">
<path d="M17.5 9.25825V4.16658C17.5 3.72456 17.3244 3.30063 17.0118 2.98807C16.6993 2.67551 16.2754 2.49992 15.8333 2.49992H12.35C12 1.53325 11.0833 0.833252 10 0.833252C8.91667 0.833252 8 1.53325 7.65 2.49992H4.16667C3.25 2.49992 2.5 3.24992 2.5 4.16658V15.8333C2.5 16.2753 2.67559 16.6992 2.98816 17.0118C3.30072 17.3243 3.72464 17.4999 4.16667 17.4999H9.25833C10.3083 18.5333 11.7417 19.1666 13.3333 19.1666C16.5583 19.1666 19.1667 16.5583 19.1667 13.3333C19.1667 11.7416 18.5333 10.3083 17.5 9.25825ZM10 2.49992C10.4583 2.49992 10.8333 2.87492 10.8333 3.33325C10.8333 3.79158 10.4583 4.16658 10 4.16658C9.54167 4.16658 9.16667 3.79158 9.16667 3.33325C9.16667 2.87492 9.54167 2.49992 10 2.49992ZM5 5.83325H15V7.49992H5V5.83325ZM7.56667 14.1666H5V12.4999H7.56667C7.525 12.7749 7.5 13.0499 7.5 13.3333C7.5 13.6166 7.525 13.8916 7.56667 14.1666ZM5 10.8333V9.16658H9.25833C8.75 9.64158 8.36667 10.2083 8.06667 10.8333H5ZM13.3333 17.4999C11.0333 17.4999 9.16667 15.6333 9.16667 13.3333C9.16667 11.0333 11.0333 9.16658 13.3333 9.16658C15.6333 9.16658 17.5 11.0333 17.5 13.3333C17.5 15.6333 15.6333 17.4999 13.3333 17.4999ZM13.75 13.5416L16.1333 14.9499L15.5083 15.9666L12.5 14.1666V9.99992H13.75V13.5416Z" fill="#F8A203"/>
</svg>
