<svg width="85" height="85" viewBox="0 0 85 85" fill="none" xmlns="http://www.w3.org/2000/svg">
<path d="M56.6667 38.9583C62.5458 38.9583 67.2562 34.2124 67.2562 28.3333C67.2562 22.4541 62.5458 17.7083 56.6667 17.7083C50.7875 17.7083 46.0417 22.4541 46.0417 28.3333C46.0417 34.2124 50.7875 38.9583 56.6667 38.9583ZM28.3333 38.9583C34.2125 38.9583 38.9229 34.2124 38.9229 28.3333C38.9229 22.4541 34.2125 17.7083 28.3333 17.7083C22.4542 17.7083 17.7083 22.4541 17.7083 28.3333C17.7083 34.2124 22.4542 38.9583 28.3333 38.9583ZM28.3333 46.0416C20.0812 46.0416 3.54166 50.1853 3.54166 58.4374V63.7499C3.54166 65.6978 5.13541 67.2916 7.08332 67.2916H49.5833C51.5312 67.2916 53.125 65.6978 53.125 63.7499V58.4374C53.125 50.1853 36.5854 46.0416 28.3333 46.0416ZM56.6667 46.0416C55.6396 46.0416 54.4708 46.1124 53.2312 46.2187C53.3021 46.2541 53.3375 46.3249 53.3729 46.3603C57.4104 49.2999 60.2083 53.2312 60.2083 58.4374V63.7499C60.2083 64.9895 59.9604 66.1937 59.5708 67.2916H77.9167C79.8646 67.2916 81.4583 65.6978 81.4583 63.7499V58.4374C81.4583 50.1853 64.9187 46.0416 56.6667 46.0416Z" fill="#FBAE17"/>
</svg>
