<svg width="90" height="90" viewBox="0 0 90 90" fill="none" xmlns="http://www.w3.org/2000/svg">
<path d="M71.25 11.25C73.2391 11.25 75.1468 12.0402 76.5533 13.4467C77.9598 14.8532 78.75 16.7609 78.75 18.75V71.25C78.75 73.2391 77.9598 75.1468 76.5533 76.5533C75.1468 77.9598 73.2391 78.75 71.25 78.75H18.75C16.7609 78.75 14.8532 77.9598 13.4467 76.5533C12.0402 75.1468 11.25 73.2391 11.25 71.25V18.75C11.25 16.7609 12.0402 14.8532 13.4467 13.4467C14.8532 12.0402 16.7609 11.25 18.75 11.25H71.25ZM69.375 69.375V49.5C69.375 46.2577 68.087 43.1483 65.7944 40.8556C63.5017 38.563 60.3923 37.275 57.15 37.275C53.9625 37.275 50.25 39.225 48.45 42.15V37.9875H37.9875V69.375H48.45V50.8875C48.45 48 50.775 45.6375 53.6625 45.6375C55.0549 45.6375 56.3902 46.1906 57.3748 47.1752C58.3594 48.1598 58.9125 49.4951 58.9125 50.8875V69.375H69.375ZM25.8 32.1C27.4709 32.1 29.0733 31.4363 30.2548 30.2548C31.4363 29.0733 32.1 27.4709 32.1 25.8C32.1 22.3125 29.2875 19.4625 25.8 19.4625C24.1192 19.4625 22.5072 20.1302 21.3187 21.3187C20.1302 22.5072 19.4625 24.1192 19.4625 25.8C19.4625 29.2875 22.3125 32.1 25.8 32.1ZM31.0125 69.375V37.9875H20.625V69.375H31.0125Z" fill="#F78F24"/>
</svg>
