<svg width="1440" height="155" viewBox="0 0 1440 155" fill="none" xmlns="http://www.w3.org/2000/svg">
<path d="M0.0635605 155H1440V92C1386.4 105.785 1327.88 112.264 1271.26 117.703C1122.48 131.996 972.172 125.927 824.652 108.182C760.2 100.429 697.511 87.3507 633.411 78.5023C541.738 65.8481 447.921 59 354.423 59C264.356 59 173.691 62.8287 85.5598 76.3391C64.7728 79.5258 44.1242 82.8722 23.6875 86.9601C17.8677 88.1241 5.01996 89.1485 1.21976 92.5266C-0.417393 93.9819 0.0688198 96.2988 0.0635605 98V109.25V155Z" fill="white"/>
<path d="M0.0635605 144H1440V81C1386.4 94.7854 1327.88 101.264 1271.26 106.703C1122.48 120.996 972.172 114.927 824.652 97.1817C760.2 89.4289 697.511 76.3507 633.411 67.5023C541.738 54.8481 447.921 48 354.423 48C264.356 48 173.691 51.8287 85.5598 65.3391C64.7728 68.5258 44.1242 71.8722 23.6875 75.9601C17.8677 77.1241 5.01996 78.1485 1.21976 81.5266C-0.417393 82.9819 0.0688198 85.2988 0.0635605 87V98.25V144Z" fill="white"/>
<path d="M0.0635605 119H1440V56C1386.4 69.7854 1327.88 76.2636 1271.26 81.7031C1122.48 95.9958 972.172 89.9269 824.652 72.1817C760.2 64.4289 697.511 51.3507 633.411 42.5023C541.738 29.8481 447.921 23 354.423 23C264.356 23 173.691 26.8287 85.5598 40.3391C64.7728 43.5258 44.1242 46.8722 23.6875 50.9601C17.8677 52.1241 5.01996 53.1485 1.21976 56.5266C-0.417393 57.9819 0.0688198 60.2988 0.0635605 62V73.25V119Z" fill="white"/>
<path d="M0.0635605 96H1440V33C1386.4 46.7854 1327.88 53.2636 1271.26 58.7031C1122.48 72.9958 972.172 66.9269 824.652 49.1817C760.2 41.4289 697.511 28.3507 633.411 19.5023C541.738 6.8481 447.921 0 354.423 0C264.356 0 173.691 3.82867 85.5598 17.3391C64.7728 20.5258 44.1242 23.8722 23.6875 27.9601C17.8677 29.1241 5.01996 30.1485 1.21976 33.5266C-0.417393 34.9819 0.0688198 37.2988 0.0635605 39V50.25V96Z" fill="white"/>
</svg>
