<svg width="20" height="20" viewBox="0 0 20 20" fill="none" xmlns="http://www.w3.org/2000/svg">
<path d="M10.0007 8.33333C10.3837 8.33333 10.7629 8.25789 11.1168 8.11132C11.4707 7.96474 11.7922 7.7499 12.063 7.47906C12.3339 7.20822 12.5487 6.88669 12.6953 6.53283C12.8419 6.17896 12.9173 5.79969 12.9173 5.41667C12.9173 5.03364 12.8419 4.65437 12.6953 4.30051C12.5487 3.94664 12.3339 3.62511 12.063 3.35427C11.7922 3.08343 11.4707 2.86859 11.1168 2.72202C10.7629 2.57544 10.3837 2.5 10.0007 2.5C9.2271 2.5 8.48524 2.80729 7.93826 3.35427C7.39128 3.90125 7.08398 4.64312 7.08398 5.41667C7.08398 6.19021 7.39128 6.93208 7.93826 7.47906C8.48524 8.02604 9.2271 8.33333 10.0007 8.33333Z" fill="#FBAE17" stroke="#FBAE17" stroke-width="1.66667" stroke-linecap="round" stroke-linejoin="round"/>
<path d="M5 3.02295C4.61387 3.29139 4.29848 3.64934 4.0808 4.0662C3.86312 4.48305 3.74962 4.94643 3.75 5.4167C3.7499 5.91993 3.87999 6.41463 4.12765 6.8527C4.37531 7.29078 4.7321 7.65732 5.16333 7.9167M15 3.02295C15.3861 3.29139 15.7015 3.64934 15.9192 4.0662C16.1369 4.48305 16.2504 4.94643 16.25 5.4167C16.2504 5.88704 16.137 6.3505 15.9193 6.76743C15.7016 7.18437 15.3862 7.54239 15 7.81087" stroke="#FBAE17" stroke-width="1.66667" stroke-linecap="round" stroke-linejoin="round"/>
<path d="M5 16.6667V17.5001H15V16.6667C15 15.1138 15 14.3372 14.7462 13.7242C14.4078 12.9075 13.7589 12.2587 12.9421 11.9205C12.33 11.6667 11.5533 11.6667 10 11.6667C8.44667 11.6667 7.67042 11.6667 7.05792 11.9205C6.65345 12.088 6.28594 12.3336 5.97638 12.6431C5.66682 12.9527 5.42127 13.3202 5.25375 13.7247C5 14.3372 5 15.1138 5 16.6667Z" fill="#FBAE17" stroke="#FBAE17" stroke-width="1.66667" stroke-linecap="round" stroke-linejoin="round"/>
<path d="M18.3337 17.5V17C18.3337 15.1334 18.3337 14.2 17.9703 13.4867C17.6508 12.8595 17.1408 12.3496 16.5137 12.03M1.66699 17.5V17C1.66699 15.1334 1.66699 14.2 2.03033 13.4867C2.3499 12.8595 2.85981 12.3496 3.48699 12.03" stroke="#FBAE17" stroke-width="1.66667" stroke-linecap="round" stroke-linejoin="round"/>
</svg>
