<svg width="20" height="20" viewBox="0 0 20 20" fill="none" xmlns="http://www.w3.org/2000/svg">
<path d="M15.417 2.5H13.3337C13.2232 2.5 13.1172 2.5439 13.039 2.62204C12.9609 2.70018 12.917 2.80616 12.917 2.91667V2.96583L15.8337 5.29917V2.91667C15.8337 2.80616 15.7898 2.70018 15.7116 2.62204C15.6335 2.5439 15.5275 2.5 15.417 2.5Z" fill="#FBAE17"/>
<path d="M8.95801 7.91667C8.95801 7.6404 9.06775 7.37545 9.2631 7.1801C9.45846 6.98475 9.72341 6.875 9.99967 6.875C10.2759 6.875 10.5409 6.98475 10.7362 7.1801C10.9316 7.37545 11.0413 7.6404 11.0413 7.91667C11.0413 8.19293 10.9316 8.45789 10.7362 8.65324C10.5409 8.84859 10.2759 8.95833 9.99967 8.95833C9.72341 8.95833 9.45846 8.84859 9.2631 8.65324C9.06775 8.45789 8.95801 8.19293 8.95801 7.91667Z" fill="#FBAE17"/>
<path fill-rule="evenodd" clip-rule="evenodd" d="M17.292 9.13334L17.9437 9.65501C18.0734 9.75611 18.2377 9.80199 18.4011 9.78272C18.5644 9.76345 18.7136 9.68057 18.8162 9.55205C18.9188 9.42354 18.9667 9.25975 18.9494 9.09619C18.932 8.93264 18.8509 8.78251 18.7237 8.67834L11.9528 3.26168C11.3987 2.81823 10.7101 2.57663 10.0003 2.57663C9.29058 2.57663 8.60198 2.81823 8.04782 3.26168L1.27699 8.67834C1.14748 8.78189 1.0644 8.93264 1.04604 9.09744C1.02768 9.26224 1.07553 9.42758 1.17908 9.55709C1.28262 9.68661 1.43337 9.76968 1.59817 9.78805C1.76297 9.80641 1.92831 9.75856 2.05783 9.65501L2.70866 9.13334V17.7083H1.66699C1.50123 17.7083 1.34226 17.7742 1.22505 17.8914C1.10784 18.0086 1.04199 18.1676 1.04199 18.3333C1.04199 18.4991 1.10784 18.6581 1.22505 18.7753C1.34226 18.8925 1.50123 18.9583 1.66699 18.9583H18.3337C18.4994 18.9583 18.6584 18.8925 18.7756 18.7753C18.8928 18.6581 18.9587 18.4991 18.9587 18.3333C18.9587 18.1676 18.8928 18.0086 18.7756 17.8914C18.6584 17.7742 18.4994 17.7083 18.3337 17.7083H17.292V9.13334ZM7.70866 7.91668C7.70866 7.30889 7.9501 6.726 8.37987 6.29622C8.80964 5.86645 9.39254 5.62501 10.0003 5.62501C10.6081 5.62501 11.191 5.86645 11.6208 6.29622C12.0505 6.726 12.292 7.30889 12.292 7.91668C12.292 8.52447 12.0505 9.10736 11.6208 9.53713C11.191 9.9669 10.6081 10.2083 10.0003 10.2083C9.39254 10.2083 8.80964 9.9669 8.37987 9.53713C7.9501 9.10736 7.70866 8.52447 7.70866 7.91668ZM10.042 11.0417C10.5953 11.0417 11.0728 11.0417 11.4553 11.0933C11.8653 11.1483 12.2578 11.2725 12.5762 11.5908C12.8945 11.9092 13.0187 12.3017 13.0737 12.7117C13.122 13.07 13.1253 13.5117 13.1253 14.0225V17.7083H11.8753V14.1667C11.8753 13.56 11.8737 13.1667 11.8353 12.8783C11.7987 12.6075 11.7403 12.5225 11.692 12.475C11.6437 12.4275 11.5595 12.3683 11.2887 12.3317C10.9995 12.2933 10.607 12.2917 10.0003 12.2917C9.39366 12.2917 9.00033 12.2933 8.71199 12.3317C8.44116 12.3683 8.35616 12.4275 8.30866 12.475C8.26116 12.5225 8.20199 12.6075 8.16533 12.8783C8.12699 13.1675 8.12533 13.56 8.12533 14.1667V17.7083H6.87533V14.125C6.87533 13.5717 6.87533 13.0942 6.92699 12.7117C6.98199 12.3017 7.10616 11.9092 7.42449 11.5908C7.74283 11.2725 8.13616 11.1483 8.54533 11.0933C8.92782 11.0417 9.40533 11.0417 9.95949 11.0417H10.042Z" fill="#FBAE17"/>
<path d="M8.95801 7.91667C8.95801 7.6404 9.06775 7.37545 9.2631 7.1801C9.45846 6.98475 9.72341 6.875 9.99967 6.875C10.2759 6.875 10.5409 6.98475 10.7362 7.1801C10.9316 7.37545 11.0413 7.6404 11.0413 7.91667C11.0413 8.19293 10.9316 8.45789 10.7362 8.65324C10.5409 8.84859 10.2759 8.95833 9.99967 8.95833C9.72341 8.95833 9.45846 8.84859 9.2631 8.65324C9.06775 8.45789 8.95801 8.19293 8.95801 7.91667Z" fill="#FBAE17"/>
</svg>
