<svg width="20" height="20" viewBox="0 0 20 20" fill="none" xmlns="http://www.w3.org/2000/svg">
<path d="M18.0921 7.25833C19.1337 6.21666 18.6587 4.99999 18.0921 4.40833L15.5921 1.90833C14.5421 0.866658 13.3337 1.34166 12.7421 1.90833L11.3254 3.33333H9.16706C7.58372 3.33333 6.66706 4.16666 6.20039 5.12499L2.50039 8.82499V12.1583L1.90872 12.7417C0.867055 13.7917 1.34206 15 1.90872 15.5917L4.40872 18.0917C4.85872 18.5417 5.34206 18.7083 5.80039 18.7083C6.39206 18.7083 6.93372 18.4167 7.25872 18.0917L9.50872 15.8333H12.5004C13.9171 15.8333 14.6337 14.95 14.8921 14.0833C15.8337 13.8333 16.3504 13.1167 16.5587 12.4167C17.8504 12.0833 18.3337 10.8583 18.3337 9.99999V7.49999H17.8421L18.0921 7.25833ZM16.6671 9.99999C16.6671 10.375 16.5087 10.8333 15.8337 10.8333H15.0004V11.6667C15.0004 12.0417 14.8421 12.5 14.1671 12.5H13.3337V13.3333C13.3337 13.7083 13.1754 14.1667 12.5004 14.1667H8.82539L6.09206 16.9C5.83372 17.1417 5.68372 17 5.59206 16.9083L3.10039 14.425C2.85872 14.1667 3.00039 14.0167 3.09206 13.925L4.16706 12.8417V9.50833L5.83372 7.84166V9.16666C5.83372 10.175 6.50039 11.6667 8.33372 11.6667C10.1671 11.6667 10.8337 10.175 10.8337 9.16666H16.6671V9.99999ZM16.9087 6.07499L15.4921 7.49999H9.16706V9.16666C9.16706 9.54166 9.00872 9.99999 8.33372 9.99999C7.65872 9.99999 7.50039 9.54166 7.50039 9.16666V6.66666C7.50039 6.28333 7.64206 4.99999 9.16706 4.99999H12.0087L13.9087 3.09999C14.1671 2.85833 14.3171 2.99999 14.4087 3.09166L16.9004 5.57499C17.1421 5.83333 17.0004 5.98333 16.9087 6.07499Z" fill="#FBAE17"/>
</svg>
