<svg width="20" height="20" viewBox="0 0 20 20" fill="none" xmlns="http://www.w3.org/2000/svg">
<path fill-rule="evenodd" clip-rule="evenodd" d="M14.7098 6.05325C15.091 6.05325 15.4686 5.97815 15.8208 5.83225C16.1731 5.68634 16.4931 5.47248 16.7627 5.20288C17.0323 4.93328 17.2462 4.61322 17.3921 4.26097C17.538 3.90872 17.6131 3.53119 17.6131 3.14991C17.6131 2.76864 17.538 2.39111 17.3921 2.03886C17.2462 1.68661 17.0323 1.36655 16.7627 1.09695C16.4931 0.827349 16.1731 0.613491 15.8208 0.467585C15.4686 0.321679 15.091 0.246582 14.7098 0.246582C13.9397 0.246582 13.2013 0.552468 12.6568 1.09695C12.1123 1.64143 11.8064 2.3799 11.8064 3.14991C11.8064 3.91993 12.1123 4.6584 12.6568 5.20288C13.2013 5.74736 13.9397 6.05325 14.7098 6.05325ZM18.1389 8.70491C19.048 9.61427 19.5588 10.8474 19.5589 12.1332V13.3782C19.5589 13.5993 19.4711 13.8112 19.3148 13.9675C19.1586 14.1238 18.9466 14.2116 18.7256 14.2116H17.4806L16.8798 19.0232C16.8546 19.2249 16.7565 19.4104 16.6041 19.5448C16.4517 19.6793 16.2555 19.7534 16.0523 19.7532H13.3673C13.1642 19.7532 12.9681 19.679 12.8159 19.5446C12.6637 19.4101 12.5658 19.2248 12.5406 19.0232L12.5139 18.8107V14.3116C12.5151 14.0234 12.4564 13.7381 12.3417 13.4737C12.2269 13.2094 12.0586 12.9717 11.8473 12.7757L9.98226 11.0557C10.1749 10.2108 10.5906 9.43287 11.1859 8.803C11.7812 8.17314 12.5344 7.71432 13.3672 7.47431C14.1999 7.2343 15.0818 7.22186 15.921 7.43828C16.7602 7.65471 17.5261 8.09209 18.1389 8.70491ZM11.2639 14.3082C11.2646 14.1927 11.2412 14.0783 11.1953 13.9723C11.1494 13.8663 11.082 13.771 10.9973 13.6924L6.41726 9.46741C6.26335 9.32545 6.06164 9.24663 5.85226 9.24663C5.64288 9.24663 5.44117 9.32545 5.28726 9.46741L0.708092 13.6924C0.623279 13.7711 0.555769 13.8665 0.509859 13.9727C0.463948 14.0789 0.440643 14.1934 0.441425 14.3091V18.9374C0.441425 19.1583 0.529108 19.3701 0.685208 19.5264C0.841308 19.6826 1.05306 19.7705 1.27393 19.7707H10.4323C10.6533 19.7707 10.8652 19.6829 11.0215 19.5267C11.1778 19.3704 11.2656 19.1584 11.2656 18.9374V14.3082H11.2639ZM6.53309 12.5341H5.17059C5.06009 12.5341 4.9541 12.578 4.87596 12.6561C4.79782 12.7343 4.75393 12.8402 4.75393 12.9507V14.3991H3.30643C3.19592 14.3991 3.08994 14.443 3.0118 14.5211C2.93366 14.5993 2.88976 14.7052 2.88976 14.8157V16.1782C2.88976 16.2888 2.93366 16.3947 3.0118 16.4729C3.08994 16.551 3.19592 16.5949 3.30643 16.5949H4.75393V18.0432C4.75393 18.1538 4.79782 18.2597 4.87596 18.3379C4.9541 18.416 5.06009 18.4599 5.17059 18.4599H6.53309C6.6436 18.4599 6.74958 18.416 6.82772 18.3379C6.90586 18.2597 6.94976 18.1538 6.94976 18.0432V16.5949H8.39893C8.50943 16.5949 8.61541 16.551 8.69355 16.4729C8.77169 16.3947 8.81559 16.2888 8.81559 16.1782V14.8166C8.81559 14.7061 8.77169 14.6001 8.69355 14.522C8.61541 14.4438 8.50943 14.3999 8.39893 14.3999H6.94976V12.9516C6.94976 12.8411 6.90586 12.7351 6.82772 12.657C6.74958 12.5788 6.6436 12.5341 6.53309 12.5341Z" fill="#FBAE17"/>
</svg>
