<svg width="45" height="45" viewBox="0 0 45 45" fill="none" xmlns="http://www.w3.org/2000/svg">
<rect width="45" height="45" rx="4" fill="#B5DE6B" fill-opacity="0.19"/>
<path d="M29.7572 27.8494C29.7557 28.1528 29.6347 28.4434 29.4205 28.6582C29.2062 28.873 28.9159 28.9947 28.6125 28.9969H16.3866C16.0822 28.9969 15.7904 28.876 15.5752 28.6608C15.36 28.4456 15.2391 28.1537 15.2391 27.8494C15.2391 27.5451 15.36 27.2532 15.5752 27.038C15.7904 26.8228 16.0822 26.7019 16.3866 26.7019H28.6125C28.9164 26.7034 29.2074 26.8247 29.4223 27.0396C29.6372 27.2545 29.7585 27.5455 29.76 27.8494M28.6153 20.5903H16.3866C16.0924 20.6049 15.8151 20.732 15.6121 20.9454C15.4091 21.1587 15.2959 21.4419 15.2959 21.7364C15.2959 22.0309 15.4091 22.3142 15.6121 22.5275C15.8151 22.7408 16.0924 22.8679 16.3866 22.8825H28.6125C28.9066 22.8679 29.1839 22.7408 29.387 22.5275C29.59 22.3142 29.7032 22.0309 29.7032 21.7364C29.7032 21.4419 29.59 21.1587 29.387 20.9454C29.1839 20.732 28.9095 20.6049 28.6153 20.5903ZM38.9288 7.9819V40.0753C38.9291 40.4264 38.8603 40.7742 38.7262 41.0987C38.5921 41.4232 38.3953 41.718 38.1472 41.9665C37.899 42.2149 37.6044 42.4119 37.28 42.5464C36.9557 42.6808 36.608 42.75 36.2569 42.75H8.74219C8.03356 42.75 7.35396 42.4685 6.85289 41.9674C6.35181 41.4664 6.07031 40.7868 6.07031 40.0781V7.97908C6.06994 7.62797 6.13878 7.28023 6.27289 6.95574C6.407 6.63125 6.60375 6.33637 6.85189 6.08796C7.10004 5.83956 7.39471 5.6425 7.71906 5.50805C8.04341 5.3736 8.39108 5.3044 8.74219 5.3044H15.8438C16.667 4.34523 17.6879 3.57537 18.8365 3.04758C19.985 2.51978 21.2341 2.24652 22.4981 2.24652C23.7622 2.24652 25.0112 2.51978 26.1598 3.04758C27.3084 3.57537 28.3292 4.34523 29.1525 5.3044H36.2513C36.6024 5.30403 36.9501 5.37286 37.2746 5.50697C37.5991 5.64108 37.894 5.83783 38.1424 6.08597C38.3908 6.33412 38.5878 6.62879 38.7223 6.95314C38.8567 7.27749 38.9259 7.62516 38.9259 7.97627M16.0041 11.0335V11.4131H28.9922V11.0335C29.0102 10.1691 28.8555 9.30982 28.5371 8.50601C28.2188 7.7022 27.7432 6.97001 27.1382 6.35235C26.5333 5.73469 25.8112 5.24398 25.0142 4.90897C24.2171 4.57397 23.3613 4.40142 22.4967 4.40142C21.6322 4.40142 20.7763 4.57397 19.9793 4.90897C19.1823 5.24398 18.4601 5.73469 17.8552 6.35235C17.2503 6.97001 16.7747 7.7022 16.4563 8.50601C16.138 9.30982 15.9861 10.1691 16.0041 11.0335ZM36.6309 7.97627C36.6309 7.92604 36.621 7.8763 36.6018 7.82989C36.5826 7.78349 36.5544 7.74132 36.5189 7.7058C36.4834 7.67028 36.4412 7.64211 36.3948 7.62289C36.3484 7.60366 36.2987 7.59377 36.2484 7.59377H30.5813C31.0453 8.6794 31.2844 9.8494 31.2844 11.0335V12.5606C31.2829 12.8645 31.1615 13.1555 30.9466 13.3704C30.7318 13.5853 30.4408 13.7067 30.1369 13.7081H14.8594C14.5555 13.7067 14.2645 13.5853 14.0496 13.3704C13.8347 13.1555 13.7134 12.8645 13.7119 12.5606V11.0335C13.7119 9.85221 13.9509 8.6794 14.415 7.59377H8.74219C8.69196 7.59377 8.64222 7.60366 8.59581 7.62289C8.54941 7.64211 8.50724 7.67028 8.47172 7.7058C8.4362 7.74132 8.40803 7.78349 8.38881 7.82989C8.36958 7.8763 8.35969 7.92604 8.35969 7.97627V40.0697C8.35969 40.1712 8.39999 40.2684 8.47172 40.3402C8.54345 40.4119 8.64074 40.4522 8.74219 40.4522H36.2513C36.3527 40.4522 36.45 40.4119 36.5217 40.3402C36.5935 40.2684 36.6338 40.1712 36.6338 40.0697L36.6309 7.97627Z" fill="#006A4E" fill-opacity="0.7"/>
</svg>
