<svg width="20" height="23" viewBox="0 0 20 23" fill="none" xmlns="http://www.w3.org/2000/svg">
<path d="M6.84961 0L5.57617 1.2707L6.4082 2.09766L7.67773 0.827734L6.84961 0ZM8.17383 1.32656L7.78711 1.71367L12.5918 6.51992L12.9785 6.1332L8.17383 1.32656ZM14.4004 2.03203C14.2559 2.03203 14.1113 2.03594 13.9746 2.04375C12.7285 2.11328 11.7598 2.50312 10.916 3.07461L13.4746 5.63711C13.6113 5.92227 15.5059 9.39492 16.0332 10.4535C15.6543 10.2035 11.2129 7.89883 11.2129 7.89883L10.6152 7.30508V12.7855C11.5488 12.2152 12.5723 11.7035 13.8809 11.5668C15.3457 11.4105 17.1426 11.7348 19.5137 12.8598V3.35195C17.4941 2.45391 15.8691 2.06719 14.5449 2.03594C14.4941 2.03594 14.4473 2.03164 14.4004 2.03203ZM5.38477 2.07227C4.17773 2.18906 2.73398 2.58242 1 3.35195V12.8598C3.375 11.7348 5.16992 11.4105 6.63477 11.5668C7.92383 11.7699 8.9043 12.184 9.90039 12.7855V6.59023C8.39258 5.08633 6.88867 3.57852 5.38477 2.07227ZM7.29102 2.21094L6.9043 2.59727L11.709 7.40273L12.0957 7.01602L7.29102 2.21094ZM13.3809 6.72695L12.3066 7.80117L14.459 8.8793L13.3809 6.72695ZM5.87305 12.2582C4.62305 12.2699 3.06641 12.641 1 13.6645V15.3246C3.375 14.1996 5.16992 13.8754 6.63477 14.0316C7.36133 14.1098 7.99805 14.3012 8.58008 14.5512C8.39648 14.7895 8.2168 15.0707 8.03711 15.3988H12.6152C12.3809 15.0785 12.1543 14.7973 11.9238 14.5551C12.5098 14.3012 13.1504 14.1098 13.8809 14.0316C15.3457 13.8754 17.1426 14.1996 19.5137 15.3246V13.6645C17.4395 12.6371 15.877 12.2621 14.623 12.2582H14.502C14.3145 12.2621 14.1348 12.2738 13.959 12.2934C12.6309 12.434 11.6309 12.9965 10.6152 13.6371C10.3926 13.6059 10.1074 13.5668 9.90039 13.602C8.83789 12.9691 7.62695 12.4145 6.56055 12.2934C6.3418 12.2699 6.11133 12.2582 5.87305 12.2582Z" fill="#FBAE17"/>
</svg>
