<svg width="45" height="45" viewBox="0 0 45 45" fill="none" xmlns="http://www.w3.org/2000/svg">
<rect width="45" height="45" rx="4" fill="#FBAE17" fill-opacity="0.2"/>
<path d="M23.8369 31.3369C24.1956 30.9769 24.375 30.5312 24.375 30C24.375 29.4688 24.195 29.0238 23.835 28.665C23.475 28.3063 23.03 28.1262 22.5 28.125C21.97 28.1238 21.525 28.3038 21.165 28.665C20.805 29.0263 20.625 29.4712 20.625 30C20.625 30.5288 20.805 30.9744 21.165 31.3369C21.525 31.6994 21.97 31.8788 22.5 31.875C23.03 31.8712 23.4756 31.6931 23.8369 31.3369ZM20.625 24.375H24.375V13.125H20.625V24.375ZM22.5 41.25C19.9063 41.25 17.4688 40.7575 15.1875 39.7725C12.9063 38.7875 10.9219 37.4519 9.23438 35.7656C7.54688 34.0794 6.21125 32.095 5.2275 29.8125C4.24375 27.53 3.75125 25.0925 3.75 22.5C3.74875 19.9075 4.24125 17.47 5.2275 15.1875C6.21375 12.905 7.54938 10.9206 9.23438 9.23438C10.9194 7.54813 12.9038 6.2125 15.1875 5.2275C17.4713 4.2425 19.9088 3.75 22.5 3.75C25.0913 3.75 27.5288 4.2425 29.8125 5.2275C32.0963 6.2125 34.0806 7.54813 35.7656 9.23438C37.4506 10.9206 38.7869 12.905 39.7744 15.1875C40.7619 17.47 41.2538 19.9075 41.25 22.5C41.2463 25.0925 40.7538 27.53 39.7725 29.8125C38.7913 32.095 37.4556 34.0794 35.7656 35.7656C34.0756 37.4519 32.0913 38.7881 29.8125 39.7744C27.5338 40.7606 25.0963 41.2525 22.5 41.25ZM22.5 37.5C26.6875 37.5 30.2344 36.0469 33.1406 33.1406C36.0469 30.2344 37.5 26.6875 37.5 22.5C37.5 18.3125 36.0469 14.7656 33.1406 11.8594C30.2344 8.95312 26.6875 7.5 22.5 7.5C18.3125 7.5 14.7656 8.95312 11.8594 11.8594C8.95313 14.7656 7.5 18.3125 7.5 22.5C7.5 26.6875 8.95313 30.2344 11.8594 33.1406C14.7656 36.0469 18.3125 37.5 22.5 37.5Z" fill="#F8A203" fill-opacity="0.7"/>
</svg>
