<svg width="120" height="60" viewBox="0 0 120 60" fill="none" xmlns="http://www.w3.org/2000/svg">
<path d="M57.1502 60C57.0329 59.9317 56.9697 59.8056 56.9016 59.8036C54.9546 59.7455 53.4039 57.9262 53.4092 56.2408C53.4425 45.6406 53.4256 35.0402 53.4265 24.44C53.4266 22.7579 54.5848 21.3664 56.3509 21.0558C58.6967 20.6432 60.7139 21.2839 61.4638 23.6765C61.5092 23.8215 61.4809 23.9849 61.4809 24.1397C61.4815 28.2247 61.4814 32.3097 61.4814 36.3947C61.4814 36.5806 61.4814 36.7665 61.4814 37.0678C61.9279 36.6715 62.2687 36.3234 62.6618 36.0283C64.1606 34.9032 65.8825 34.2285 67.8623 34.0239C70.8367 33.7165 73.5892 34.2102 76.187 35.5252C77.7965 36.3399 79.1132 37.3898 80.2569 38.6616C81.6089 40.1651 82.5111 41.8496 82.9791 43.6876C83.3805 45.2642 83.5109 46.8695 83.3064 48.5066C83.098 50.1756 82.6392 51.7682 81.7862 53.2509C81.2721 54.1444 80.6175 55.0064 79.8608 55.7551C78.9927 56.6142 78.0183 57.4265 76.951 58.0881C75.5898 58.9319 74.0656 59.5541 72.3821 59.7979C72.2774 59.813 72.1827 59.881 72.1131 59.9622C70.403 60 68.6631 60 66.8976 59.9623C66.5274 59.843 66.1732 59.7837 65.8396 59.6759C64.0366 59.093 62.4033 58.2931 61.2809 56.8257C61.2186 57.0227 61.1476 57.1657 61.1306 57.3134C61.0022 58.4333 59.5265 59.7259 58.2371 59.8016C58.1293 59.8079 58.0305 59.9311 57.9276 60C57.6857 60 57.4439 60 57.1502 60ZM65.6004 53.27C66.4402 53.4442 67.275 53.7427 68.1208 53.7684C70.3483 53.8361 72.2524 53.1452 73.6596 51.5817C74.3974 50.7618 74.8724 49.8141 75.0892 48.798C75.3235 47.7001 75.3544 46.5948 75.1229 45.4723C74.8324 44.0634 74.2285 42.7908 73.0387 41.8269C71.4348 40.5274 69.4945 40.0261 67.2994 40.3403C65.0474 40.6626 63.4551 41.7631 62.4267 43.4958C61.4033 45.2203 61.3206 47.0971 61.765 48.9257C62.2243 50.8154 63.4277 52.3555 65.6004 53.27Z" fill="#98CA3C"/>
<path d="M33.5801 60C33.4895 59.9339 33.4624 59.8145 33.4182 59.8094C31.4332 59.5818 29.7295 58.7675 28.1326 57.7931C26.4277 56.7527 25.1252 55.3766 24.0985 53.7924C23.0394 52.1583 22.3896 50.3917 22.1913 48.5512C22.0037 46.8103 22.1253 45.0569 22.6734 43.3312C23.4149 40.9966 24.6853 38.9476 26.6867 37.2795C28.2073 36.0122 29.9741 35.0982 32.0044 34.5148C33.6496 34.0422 35.3042 33.8799 36.9954 33.9409C38.8553 34.008 40.5893 34.4892 42.0978 35.4742C42.7782 35.9184 43.415 36.4135 44.0677 36.8827C44.0677 36.7838 44.0677 36.6196 44.0677 36.4555C44.0677 32.6115 44.0724 28.7674 44.0644 24.9234C44.0624 23.9936 44.1591 23.0937 44.8487 22.3309C45.5211 21.587 46.3337 21.0425 47.4736 20.9968C48.5731 20.9527 49.6587 20.9511 50.5783 21.6146C51.4951 22.2761 52.1059 23.117 52.1082 24.1495C52.1319 34.9404 52.1253 45.7313 52.1201 56.5222C52.1194 58.0565 50.5865 59.7377 48.6693 59.7997C48.5683 59.8029 48.4707 59.8856 48.4111 59.9656C48.2476 60 48.0445 60 47.8303 59.9657C47.7004 59.8854 47.5833 59.8035 47.4627 59.7992C46.5497 59.7669 45.8342 59.3793 45.3375 58.7612C44.8906 58.2052 44.5813 57.5647 44.3108 57.1236C44.0625 57.2968 43.6504 57.54 43.2987 57.8377C42.0897 58.861 40.6646 59.5081 39.02 59.8036C38.9525 59.8157 38.9096 59.9322 38.8553 60C37.1154 60 35.3755 60 33.5801 60ZM40.8698 41.2204C38.9103 40.1443 36.8297 39.9601 34.6674 40.642C32.8978 41.2001 31.6667 42.3219 30.9745 43.806C30.3542 45.1362 30.0229 46.5352 30.3084 48.0169C30.6008 49.5346 31.1225 50.9037 32.3874 52.0511C33.5831 53.1358 35.0439 53.6685 36.6773 53.7705C38.8924 53.9087 40.8246 53.2185 42.2715 51.7301C43.4406 50.5276 43.9541 49.0576 44.0598 47.4938C44.1253 46.525 43.975 45.5849 43.6495 44.6353C43.1661 43.2256 42.3219 42.0965 40.8698 41.2204Z" fill="#F78F24"/>
<path d="M0 36.3566C0.0785969 36.2623 0.192939 36.2325 0.230428 36.1684C0.785401 35.2192 1.70566 34.7118 2.88495 34.6671C4.41988 34.6089 5.95989 34.6529 7.58155 34.6529C7.58155 34.4505 7.58155 34.269 7.58155 34.0876C7.58154 31.6056 7.56995 29.1234 7.58763 26.6415C7.59409 25.7347 7.93939 24.8863 8.67373 24.2588C9.84856 23.255 11.4287 22.8352 13.1564 23.4292C14.8852 24.0236 15.7454 25.3603 15.7522 26.8761C15.7637 29.4432 15.7553 32.0103 15.7553 34.6232C15.943 34.6338 16.1118 34.6513 16.2807 34.6516C17.8201 34.6537 19.3621 34.702 20.8982 34.6396C22.5668 34.5718 24.2284 35.9708 24.2103 37.5253C24.1937 38.9376 23.1674 40.1722 21.6932 40.4834C21.4885 40.5266 21.2726 40.5464 21.0618 40.547C19.3108 40.5519 17.5599 40.5498 15.7554 40.5498C15.7554 40.782 15.7554 40.967 15.7554 41.1519C15.7554 46.1332 15.7546 51.1146 15.7559 56.0959C15.7562 57.2112 15.3749 58.1896 14.4057 58.9502C13.7925 59.4314 13.1225 59.8137 12.2453 59.8C12.1267 59.7981 12.0063 59.8838 11.9257 59.9645C11.7615 60 11.5584 60 11.3435 59.9646C10.9977 59.8728 10.6415 59.8633 10.3334 59.752C8.59169 59.1231 7.60986 58.0567 7.596 56.3297C7.55535 51.268 7.58152 46.2059 7.58151 41.144C7.58151 40.9599 7.58151 40.7759 7.58151 40.5499C5.96931 40.5499 4.41564 40.5788 2.86437 40.5381C2.04056 40.5165 1.30575 40.2384 0.774415 39.6332C0.542716 39.3693 0.259708 39.1397 1.29919e-06 38.8946C5.88427e-07 38.0648 5.92306e-07 37.2349 0 36.3566Z" fill="#F78F24"/>
<path d="M111.087 2.81235C113.124 3.96871 114.804 5.39349 116.211 7.07597C117.529 8.65299 118.519 10.3711 119.178 12.2325C119.666 13.6101 120.027 15.0124 119.998 16.4666C119.973 17.7564 120.043 19.0603 119.846 20.3313C119.672 21.4518 119.222 22.5455 118.829 23.633C118.148 25.5156 116.991 27.1898 115.569 28.6989C114.72 29.5997 113.716 30.4093 112.677 31.148C111.697 31.845 110.638 32.4955 109.51 32.9852C108.088 33.6027 106.589 34.1141 105.072 34.5307C102.927 35.1201 100.682 35.181 98.4592 35.0431C96.9672 34.9505 95.4586 34.7987 94.0415 34.2854C92.9771 33.8998 91.9051 33.5229 90.8099 33.2139C90.4414 33.1099 89.9716 33.1629 89.5813 33.2534C86.7919 33.8998 84.0122 34.5779 81.2266 35.2367C80.7518 35.349 80.2633 35.4167 79.6723 35.525C79.8759 34.837 80.0392 34.2549 80.2208 33.6773C80.8727 31.6035 81.5424 29.534 82.1805 27.4571C82.417 26.6874 82.4164 25.9796 81.929 25.195C80.8839 23.5125 80.3056 21.6697 80.0807 19.7557C79.9893 18.9777 79.8078 18.1908 79.8687 17.4201C79.9685 16.1577 80.1276 14.8838 80.4566 13.6545C80.805 12.3524 81.2754 11.0569 81.8823 9.83015C82.7729 8.02978 84.1462 6.48554 85.7003 5.07278C86.9396 3.94611 88.3747 3.02468 89.9086 2.24209C92.0189 1.16545 94.3206 0.495918 96.7203 0.114448C97.465 -0.00393794 98.2417 -0.00307965 99.0034 0.00172576C100.342 0.0101698 101.697 -0.0425431 103.014 0.120824C105.649 0.447673 108.137 1.20745 110.417 2.43735C110.63 2.55252 110.842 2.6699 111.087 2.81235ZM95.9503 23.9513C98.2941 25.1206 100.746 25.0675 103.179 24.2922C106.737 23.158 109.116 20.0604 108.765 16.3884C108.607 14.7276 107.917 13.2941 106.714 12.0326C104.016 9.2026 98.9062 8.52016 95.4458 10.4743C92.3427 12.2267 90.8101 14.7383 91.2267 17.9866C91.5674 20.643 93.2007 22.6105 95.9503 23.9513Z" fill="#98CA3C"/>
<path d="M95.9113 23.9337C93.2006 22.6105 91.5674 20.643 91.2267 17.9866C90.8101 14.7383 92.3426 12.2267 95.4458 10.4743C98.9062 8.52017 104.016 9.20261 106.714 12.0326C107.917 13.2941 108.607 14.7276 108.765 16.3884C109.116 20.0604 106.737 23.158 103.179 24.2922C100.746 25.0675 98.2941 25.1207 95.9113 23.9337Z" fill="#F78F24"/>
</svg>
