<svg width="699" height="483" viewBox="0 0 699 483" fill="none" xmlns="http://www.w3.org/2000/svg">
<path d="M604 244C656.118 244 698.368 297.388 698.368 363.245C698.368 429.102 656.118 482.49 604 482.49V461.533C646.959 461.533 681.783 417.528 681.783 363.245C681.783 308.962 646.959 264.957 604 264.957V244ZM604 281.194C639.862 281.194 668.934 317.93 668.934 363.245C668.934 408.56 639.862 445.296 604 445.296V424.339C630.702 424.339 652.348 396.986 652.348 363.245C652.348 329.504 630.702 302.151 604 302.151V281.194ZM604 316.699C624.344 316.699 640.836 337.538 640.836 363.245C640.836 388.952 624.344 409.791 604 409.791V388.834C615.184 388.834 624.251 377.378 624.251 363.245C624.251 349.113 615.184 337.656 604 337.656V316.699ZM94.3682 20.957C51.4097 20.9572 16.585 64.9621 16.585 119.245C16.585 173.528 51.4097 217.533 94.3682 217.533V238.49C42.25 238.49 -4.55631e-06 185.102 0 119.245C3.28955e-05 53.3879 42.2501 0.000181939 94.3682 0V20.957ZM94.3682 58.1514C67.6664 58.1516 46.0205 85.5043 46.0205 119.245C46.0205 152.986 67.6663 180.339 94.3682 180.339V201.296C58.5067 201.296 29.4355 164.56 29.4355 119.245C29.4356 73.9301 58.5067 37.1945 94.3682 37.1943V58.1514ZM94.3682 93.6562C83.1841 93.6564 74.1172 105.113 74.1172 119.245C74.1172 133.378 83.1841 144.834 94.3682 144.834V165.791C74.0244 165.791 57.5322 144.952 57.5322 119.245C57.5322 93.5385 74.0244 72.6994 94.3682 72.6992V93.6562Z" fill="#336BB7"/>
</svg>
