<svg width="45" height="45" viewBox="0 0 45 45" fill="none" xmlns="http://www.w3.org/2000/svg">
<rect width="45" height="45" rx="4" fill="#B5DE6B" fill-opacity="0.19"/>
<path d="M16.5 21C14.5109 21 12.6032 20.2098 11.1967 18.8033C9.79018 17.3968 9 15.4891 9 13.5V7.5C9 7.10218 9.15804 6.72064 9.43934 6.43934C9.72064 6.15804 10.1022 6 10.5 6H12C12.3978 6 12.7794 5.84196 13.0607 5.56066C13.342 5.27936 13.5 4.89782 13.5 4.5C13.5 4.10218 13.342 3.72064 13.0607 3.43934C12.7794 3.15804 12.3978 3 12 3H10.5C9.30653 3 8.16193 3.47411 7.31802 4.31802C6.47411 5.16193 6 6.30653 6 7.5V13.5C6.00193 15.1946 6.41516 16.8634 7.2042 18.3631C7.99324 19.8628 9.13451 21.1486 10.53 22.11C11.8721 23.2909 12.9603 24.7321 13.7287 26.3462C14.4971 27.9604 14.9296 29.7137 15 31.5C15 34.2848 16.1062 36.9555 18.0754 38.9246C20.0445 40.8938 22.7152 42 25.5 42C28.2848 42 30.9555 40.8938 32.9246 38.9246C34.8938 36.9555 36 34.2848 36 31.5V29.79C37.414 29.4249 38.6463 28.5567 39.4659 27.348C40.2855 26.1393 40.6362 24.6732 40.4522 23.2245C40.2682 21.7758 39.5621 20.4439 38.4663 19.4785C37.3706 18.5131 35.9604 17.9805 34.5 17.9805C33.0396 17.9805 31.6294 18.5131 30.5337 19.4785C29.4379 20.4439 28.7318 21.7758 28.5478 23.2245C28.3638 24.6732 28.7145 26.1393 29.5341 27.348C30.3537 28.5567 31.586 29.4249 33 29.79V31.5C33 33.4891 32.2098 35.3968 30.8033 36.8033C29.3968 38.2098 27.4891 39 25.5 39C23.5109 39 21.6032 38.2098 20.1967 36.8033C18.7902 35.3968 18 33.4891 18 31.5C18.0742 29.7115 18.5114 27.9568 19.285 26.3425C20.0586 24.7283 21.1524 23.2883 22.5 22.11C23.8899 21.1453 25.0254 19.858 25.8091 18.3585C26.5928 16.859 27.0014 15.1919 27 13.5V7.5C27 6.30653 26.5259 5.16193 25.682 4.31802C24.8381 3.47411 23.6935 3 22.5 3H21C20.6022 3 20.2206 3.15804 19.9393 3.43934C19.658 3.72064 19.5 4.10218 19.5 4.5C19.5 4.89782 19.658 5.27936 19.9393 5.56066C20.2206 5.84196 20.6022 6 21 6H22.5C22.8978 6 23.2794 6.15804 23.5607 6.43934C23.842 6.72064 24 7.10218 24 7.5V13.5C24 14.4849 23.806 15.4602 23.4291 16.3701C23.0522 17.2801 22.4997 18.1069 21.8033 18.8033C21.1069 19.4997 20.2801 20.0522 19.3701 20.4291C18.4602 20.806 17.4849 21 16.5 21ZM34.5 27C33.7044 27 32.9413 26.6839 32.3787 26.1213C31.8161 25.5587 31.5 24.7956 31.5 24C31.5 23.2044 31.8161 22.4413 32.3787 21.8787C32.9413 21.3161 33.7044 21 34.5 21C35.2956 21 36.0587 21.3161 36.6213 21.8787C37.1839 22.4413 37.5 23.2044 37.5 24C37.5 24.7956 37.1839 25.5587 36.6213 26.1213C36.0587 26.6839 35.2956 27 34.5 27Z" fill="#006A4E" fill-opacity="0.7"/>
</svg>
